<?xml version="1.0" standalone="no"?>
<!DOCTYPE svg PUBLIC "-//W3C//DTD SVG 20010904//EN"
 "http://www.w3.org/TR/2001/REC-SVG-20010904/DTD/svg10.dtd">
<svg version="1.0" xmlns="http://www.w3.org/2000/svg"
 width="2012.000000pt" height="2012.000000pt" viewBox="0 0 2012.000000 2012.000000"
 preserveAspectRatio="xMidYMid meet">
<metadata>
Created by potrace 1.14, written by Peter Selinger 2001-2017
</metadata>
<g transform="translate(0.000000,2012.000000) scale(0.100000,-0.100000)"
fill="#000000" stroke="none">
<path d="M12190 20055 c-8 -9 -8 -15 -2 -15 12 0 26 19 19 26 -2 2 -10 -2 -17
-11z"/>
<path d="M15444 20036 c-29 -22 -5 -40 40 -32 27 5 36 12 36 26 0 24 -46 28
-76 6z"/>
<path d="M4902 19992 c-17 -11 -5 -42 14 -35 8 3 11 10 8 15 -4 6 0 14 7 19
12 7 11 9 -1 9 -8 0 -21 -4 -28 -8z"/>
<path d="M19876 19961 c-3 -4 1 -17 9 -27 15 -19 15 -19 30 0 17 22 11 36 -15
36 -10 0 -21 -4 -24 -9z"/>
<path d="M776 19827 c-11 -8 -17 -21 -13 -29 6 -17 47 -31 47 -17 0 5 7 9 16
9 10 0 14 7 12 23 -4 26 -35 34 -62 14z"/>
<path d="M20014 19765 c21 -16 32 -13 21 4 -3 6 -14 11 -23 11 -15 -1 -15 -2
2 -15z"/>
<path d="M16797 19634 c-3 -3 -4 -11 -1 -18 5 -13 54 -16 54 -3 0 4 0 12 0 17
0 11 -43 14 -53 4z"/>
<path d="M8656 19455 c-3 -8 -2 -15 2 -15 5 0 14 -15 20 -34 9 -23 19 -34 31
-33 12 1 17 7 14 18 -3 9 3 23 12 33 9 9 11 16 5 16 -6 0 -9 4 -6 9 3 5 -1 12
-10 15 -28 11 -62 6 -68 -9z"/>
<path d="M12606 19445 c-3 -10 5 -20 23 -29 25 -13 27 -13 26 2 -3 39 -37 58
-49 27z"/>
<path d="M18710 19425 c-10 -12 -10 -18 0 -30 15 -18 30 -11 30 15 0 26 -15
33 -30 15z"/>
<path d="M11007 19363 c-13 -12 -7 -33 15 -58 26 -30 39 -31 63 -5 17 18 17
21 1 45 -16 24 -63 35 -79 18z"/>
<path d="M16705 19219 c-9 -14 -2 -20 14 -10 8 6 9 11 3 15 -6 3 -14 1 -17 -5z"/>
<path d="M18663 19179 c-16 -16 -5 -39 15 -32 24 9 33 26 19 35 -16 10 -21 10
-34 -3z"/>
<path d="M8545 19110 c-8 -13 20 -24 36 -15 8 6 7 10 -2 16 -18 11 -26 11 -34
-1z"/>
<path d="M5611 19044 c-38 -27 -25 -94 18 -94 7 0 10 -4 7 -8 -2 -4 -1 -14 5
-22 7 -13 9 -12 9 1 0 19 23 31 43 23 16 -6 61 41 52 55 -3 6 -16 11 -28 12
-12 0 -16 3 -9 6 6 2 12 9 12 14 0 6 -5 7 -10 4 -6 -3 -13 0 -16 8 -6 17 -58
18 -83 1z"/>
<path d="M15164 19015 c-4 -10 -1 -21 7 -26 20 -12 34 -5 34 17 0 24 -33 31
-41 9z"/>
<path d="M6421 19004 c0 -11 3 -14 6 -6 3 7 2 16 -1 19 -3 4 -6 -2 -5 -13z"/>
<path d="M8744 18679 c-8 -14 18 -31 30 -19 9 9 0 30 -14 30 -5 0 -12 -5 -16
-11z"/>
<path d="M15506 18626 c7 -19 48 -22 42 -3 -3 6 -14 13 -26 15 -16 3 -20 -1
-16 -12z"/>
<path d="M12227 18513 c-4 -3 -7 -15 -7 -25 0 -13 7 -17 25 -16 19 2 25 8 25
25 0 22 -27 32 -43 16z"/>
<path d="M9710 18494 c0 -6 8 -14 19 -17 14 -3 17 0 14 13 -5 19 -33 23 -33 4z"/>
<path d="M17774 18355 c-11 -29 5 -62 37 -75 27 -12 33 -11 51 7 25 25 18 55
-18 71 -34 16 -64 15 -70 -3z"/>
<path d="M8090 18293 c0 -19 11 -43 21 -43 13 0 11 14 -6 36 -8 10 -15 14 -15
7z"/>
<path d="M2828 18203 c-10 -2 -18 -8 -18 -13 0 -5 8 -14 18 -19 14 -7 17 -5
17 15 0 13 0 23 0 23 0 -1 -8 -3 -17 -6z"/>
<path d="M10261 18181 c-18 -11 -22 -48 -7 -60 6 -4 22 -11 35 -14 60 -15 88
52 30 72 -38 13 -40 13 -58 2z"/>
<path d="M14270 17817 c0 -19 21 -37 43 -37 13 0 17 5 13 16 -3 9 -6 20 -6 25
0 5 -11 9 -25 9 -14 0 -25 -6 -25 -13z"/>
<path d="M7505 17780 c-3 -5 1 -10 9 -10 9 0 16 5 16 10 0 6 -4 10 -9 10 -6 0
-13 -4 -16 -10z"/>
<path d="M13344 17684 c-8 -30 10 -54 27 -37 6 6 17 10 23 9 6 -2 8 -1 4 1
-12 7 -9 33 3 33 5 0 7 5 4 10 -3 6 -17 10 -30 10 -18 0 -26 -7 -31 -26z"/>
<path d="M13595 17651 c-6 -10 21 -41 36 -41 13 0 11 24 -3 38 -14 14 -25 15
-33 3z"/>
<path d="M8706 17603 c-4 -9 -3 -19 2 -22 4 -3 9 -18 10 -33 3 -42 42 -110 59
-104 8 3 17 6 19 6 10 0 3 48 -11 66 -18 24 -19 54 -2 54 16 1 -40 50 -57 50
-8 0 -17 -8 -20 -17z"/>
<path d="M9925 17560 c-11 -17 5 -32 21 -19 7 6 11 15 8 20 -7 12 -21 11 -29
-1z"/>
<path d="M1280 17308 c1 -25 22 -58 37 -58 13 0 3 63 -11 72 -19 13 -26 9 -26
-14z"/>
<path d="M10835 17310 c3 -5 10 -10 16 -10 5 0 9 5 9 10 0 6 -7 10 -16 10 -8
0 -12 -4 -9 -10z"/>
<path d="M11217 17295 c-4 -8 -2 -17 4 -20 5 -4 7 -10 4 -15 -3 -4 2 -13 9
-20 12 -9 17 -7 26 10 9 18 8 25 -6 41 -21 23 -30 24 -37 4z"/>
<path d="M9245 17057 c-40 -24 -67 -47 -56 -47 6 0 10 -6 9 -12 -2 -7 3 -12
10 -10 8 1 11 -5 6 -22 -12 -48 55 -66 126 -34 56 24 48 74 -16 104 -29 14
-40 15 -56 5 -17 -11 -18 -10 -8 9 12 23 12 23 -15 7z"/>
<path d="M19830 16902 c0 -10 5 -23 12 -30 15 -15 48 -16 48 -1 0 6 -5 19 -10
30 -14 24 -50 25 -50 1z"/>
<path d="M4490 16831 c0 -11 4 -22 9 -25 12 -8 34 21 26 34 -11 17 -35 11 -35
-9z"/>
<path d="M5773 16833 c-7 -2 -21 -24 -32 -47 -13 -32 -30 -49 -62 -65 -24 -13
-53 -28 -64 -34 -26 -15 -145 -152 -145 -169 0 -7 -7 -22 -15 -32 -8 -11 -15
-26 -15 -33 0 -8 -14 -29 -31 -47 -16 -19 -35 -41 -42 -50 -7 -9 -23 -18 -36
-21 -38 -7 -46 -21 -33 -50 14 -29 9 -41 -26 -69 -19 -15 -23 -26 -19 -51 4
-22 -1 -43 -14 -64 -10 -17 -19 -38 -19 -46 0 -8 -6 -18 -12 -22 -17 -11 -48
-67 -48 -86 0 -19 -110 -231 -122 -235 -11 -5 -45 -75 -53 -112 -3 -15 -12
-31 -19 -33 -7 -3 -25 -30 -40 -61 -15 -31 -47 -74 -70 -96 -42 -40 -74 -112
-82 -185 -8 -70 -19 -90 -51 -93 -21 -2 -33 -10 -36 -24 -5 -16 -2 -19 14 -15
10 3 21 2 24 -3 6 -10 -32 -87 -56 -111 -11 -11 -18 -27 -15 -35 9 -23 -22
-74 -44 -74 -12 0 -29 -15 -44 -39 -20 -31 -29 -38 -49 -34 -18 4 -30 -3 -50
-26 -16 -20 -31 -29 -41 -25 -16 6 -106 -70 -106 -89 0 -5 -12 -23 -27 -41
-62 -73 -73 -179 -29 -283 14 -35 26 -65 26 -68 0 -2 -15 -12 -32 -21 -18 -9
-45 -30 -59 -45 -15 -16 -34 -29 -43 -29 -26 0 -48 -56 -41 -101 4 -22 12 -45
19 -52 41 -44 55 -94 21 -81 -10 4 -16 -5 -20 -33 -4 -21 -12 -54 -20 -73 -7
-19 -16 -47 -19 -61 -3 -15 -14 -37 -24 -49 -17 -20 -20 -21 -34 -7 -9 9 -18
13 -22 10 -3 -4 -6 -1 -6 5 0 7 -4 12 -10 12 -16 0 -12 -56 5 -70 17 -14 20
-46 5 -55 -5 -3 -10 -17 -10 -30 0 -33 -10 -55 -25 -55 -14 0 -34 -42 -39 -81
-5 -36 -17 -62 -38 -83 -11 -10 -17 -25 -13 -33 3 -10 -3 -22 -15 -30 -11 -8
-29 -34 -40 -59 -11 -24 -25 -44 -31 -44 -5 0 -16 -15 -24 -34 -8 -18 -22 -37
-32 -41 -17 -6 -17 -7 1 -20 23 -17 14 -44 -13 -42 -12 1 -21 5 -21 10 0 5 -7
7 -17 5 -23 -4 -41 -74 -31 -125 8 -47 -8 -114 -48 -197 -13 -27 -24 -55 -24
-62 0 -6 -9 -23 -20 -37 -11 -14 -20 -35 -20 -46 0 -12 -4 -21 -10 -21 -5 0
-10 -11 -10 -24 0 -14 -11 -60 -25 -104 -18 -56 -23 -92 -20 -127 4 -35 1 -51
-10 -59 -8 -6 -17 -29 -20 -51 -5 -33 -2 -46 19 -74 22 -29 23 -35 10 -48 -18
-18 -18 -43 -1 -43 9 0 12 -11 9 -33 -2 -22 2 -38 12 -46 9 -8 16 -22 16 -32
0 -10 5 -21 10 -24 6 -4 8 -15 5 -24 -3 -10 1 -24 9 -30 8 -7 12 -19 9 -27 -3
-8 1 -14 10 -14 20 0 36 -27 29 -52 -2 -11 4 -28 16 -41 11 -12 23 -32 26 -44
5 -16 22 -26 64 -38 31 -8 65 -20 74 -25 10 -6 25 -10 34 -10 9 0 37 -18 62
-41 52 -46 111 -79 140 -79 10 0 27 -10 38 -21 25 -29 79 -51 107 -44 28 7 40
-2 58 -40 12 -24 21 -30 49 -31 58 -2 97 -15 121 -40 12 -13 32 -24 45 -24 12
0 29 -11 38 -25 9 -14 25 -25 35 -25 27 0 81 -30 81 -45 0 -7 6 -15 13 -17 18
-7 38 2 31 14 -4 6 5 8 22 6 26 -3 29 -7 27 -34 -2 -19 4 -37 15 -46 19 -17
94 -30 164 -28 79 2 206 -70 193 -111 -5 -14 2 -20 34 -29 22 -6 41 -16 44
-23 3 -9 9 -9 26 1 28 16 39 15 68 -8 14 -11 33 -20 42 -20 10 0 26 -8 37 -17
11 -10 51 -34 89 -52 88 -44 172 -99 179 -117 3 -8 18 -14 34 -14 27 0 66 -26
74 -50 2 -7 26 -16 53 -21 27 -5 58 -18 70 -29 12 -11 29 -20 38 -20 10 0 20
-7 23 -15 8 -20 96 -75 121 -75 39 0 83 -30 83 -57 0 -16 7 -27 20 -30 11 -3
20 -11 20 -18 0 -8 16 -19 34 -25 29 -9 39 -8 60 5 26 17 48 13 45 -8 -3 -27
3 -35 51 -57 45 -21 53 -22 76 -10 23 13 30 12 64 -8 22 -12 48 -22 59 -22 11
0 22 -9 26 -20 3 -11 13 -20 22 -20 8 0 17 -9 20 -20 4 -15 11 -19 27 -15 16
5 18 4 6 -4 -21 -15 -4 -26 22 -14 19 9 29 5 56 -18 18 -16 40 -29 48 -29 9 0
51 -18 95 -39 44 -22 104 -45 134 -51 30 -6 57 -16 61 -21 3 -5 33 -23 67 -40
92 -47 175 -99 181 -116 4 -11 17 -13 51 -9 42 4 46 3 43 -15 -3 -21 20 -38
79 -57 23 -7 33 -7 37 2 3 6 4 2 3 -9 -2 -17 5 -20 46 -23 26 -2 47 -7 47 -13
0 -5 9 -9 20 -9 19 0 25 -14 21 -47 -2 -17 40 -43 105 -64 44 -15 59 -16 74
-7 26 17 65 -3 86 -44 32 -62 54 -73 140 -69 34 2 46 -3 72 -28 22 -23 40 -31
66 -31 26 0 38 -6 47 -22 7 -13 21 -30 32 -38 11 -8 34 -28 50 -45 17 -16 35
-30 40 -30 5 0 14 -7 20 -15 7 -9 32 -22 57 -30 25 -8 53 -22 63 -31 10 -9 32
-19 48 -23 16 -3 29 -12 29 -20 0 -10 20 -21 55 -31 30 -9 81 -36 112 -59 60
-45 186 -109 238 -122 17 -4 52 -23 80 -41 27 -19 62 -37 77 -40 16 -3 39 -18
53 -34 13 -16 28 -29 33 -29 6 0 12 -6 15 -14 3 -8 23 -22 44 -32 36 -16 134
-90 141 -106 2 -5 11 -8 21 -8 15 0 58 -20 146 -67 51 -27 108 -53 116 -53 10
0 62 -34 86 -56 6 -6 35 -19 63 -28 28 -9 81 -37 117 -62 79 -54 185 -109 231
-119 17 -3 70 -8 116 -10 85 -3 113 -12 147 -46 10 -10 27 -19 37 -19 20 0 42
-17 102 -74 19 -19 62 -49 95 -67 49 -26 74 -33 138 -37 42 -2 77 -8 77 -13 0
-40 127 -148 191 -164 15 -4 36 -20 48 -36 12 -16 27 -29 34 -29 7 0 18 -5 25
-12 12 -12 53 -20 124 -22 37 -1 48 -5 48 -17 0 -17 64 -49 98 -49 9 0 33 -15
52 -33 45 -43 108 -68 152 -60 25 4 51 -2 92 -21 31 -14 61 -26 66 -26 6 0 28
-11 50 -25 22 -14 46 -25 54 -25 7 0 19 -7 26 -15 7 -8 19 -15 27 -15 8 0 35
-12 61 -27 26 -16 84 -44 130 -64 45 -19 90 -42 100 -50 23 -19 69 -39 91 -39
10 0 24 -11 31 -25 7 -14 18 -25 23 -25 19 0 139 -64 144 -77 3 -9 25 -13 66
-13 33 0 75 -5 93 -12 28 -10 36 -9 52 5 23 21 31 21 52 2 14 -13 26 -13 74
-4 43 9 60 9 69 0 16 -16 47 -14 68 5 10 9 35 17 56 19 81 6 124 18 134 36 5
11 18 19 29 19 11 0 24 9 31 21 7 14 17 19 30 16 27 -7 58 11 102 59 25 28 37
51 37 71 0 36 16 53 51 53 55 0 80 39 104 161 2 14 16 38 30 53 14 15 25 37
25 49 0 12 9 28 19 34 11 7 22 27 26 45 6 34 20 71 36 98 5 8 12 22 15 30 9
24 35 83 50 112 8 14 14 33 14 41 0 19 88 190 103 199 32 20 97 2 125 -34 7
-10 21 -18 30 -18 34 0 89 -26 113 -52 14 -15 38 -30 53 -34 22 -5 26 -11 22
-29 -5 -21 -2 -23 45 -27 46 -5 55 -10 89 -50 53 -61 108 -97 160 -103 48 -6
57 -15 131 -119 45 -65 76 -80 165 -81 l71 -1 79 -60 c44 -33 83 -69 89 -81 5
-12 20 -24 32 -28 13 -3 23 -12 23 -19 0 -8 6 -16 14 -19 22 -9 39 -77 28
-107 -7 -18 -5 -35 5 -60 31 -73 59 -122 81 -142 12 -12 22 -27 22 -34 0 -12
53 -118 69 -139 5 -5 14 -28 21 -50 7 -22 20 -56 29 -75 8 -19 20 -55 26 -80
9 -41 13 -45 39 -45 16 0 31 -6 33 -12 3 -8 -4 -13 -14 -13 -11 0 -22 -3 -26
-6 -3 -3 10 -42 29 -87 19 -45 34 -86 34 -92 0 -21 62 -75 87 -75 13 0 31 -6
38 -12 8 -7 22 -19 30 -27 12 -9 14 -16 6 -24 -29 -29 -2 -70 81 -123 113 -73
188 -96 246 -76 26 9 31 8 35 -9 3 -10 17 -24 31 -31 24 -10 28 -9 42 10 16
24 31 27 53 13 12 -8 11 -13 -8 -29 l-24 -19 28 -26 c26 -23 30 -24 49 -11 11
8 31 14 43 14 18 0 23 -6 23 -25 0 -20 5 -25 24 -25 14 0 28 -4 31 -10 12 -19
40 -10 67 22 25 31 27 32 53 18 21 -11 30 -12 45 -2 31 19 52 14 76 -15 18
-22 25 -25 35 -16 7 7 13 23 15 35 1 13 3 26 3 31 1 4 7 7 14 7 7 0 20 9 30
20 10 13 29 20 50 20 36 0 84 39 60 47 -20 7 -15 33 7 33 10 0 23 6 27 14 4 8
19 16 32 18 13 1 25 10 27 18 7 47 13 70 23 89 6 11 16 30 21 41 5 11 10 29
10 40 0 11 6 20 14 20 20 0 28 32 21 72 -5 25 -1 40 14 59 14 19 17 29 9 37
-17 17 -1 62 23 62 17 0 18 3 9 20 -9 17 -7 22 12 29 25 10 54 40 81 83 12 20
14 34 7 59 -10 33 4 114 21 125 5 3 9 20 9 39 0 37 8 45 60 60 28 9 36 16 38
39 2 16 -2 40 -9 53 -16 30 4 72 42 85 14 5 38 29 54 53 15 25 34 45 42 45 20
0 34 45 23 76 -15 40 -13 44 28 44 20 0 42 4 48 8 11 7 42 65 63 115 6 15 15
37 21 50 5 12 12 40 15 62 13 97 17 106 62 143 45 38 73 81 73 113 0 9 3 19 7
21 20 8 48 85 49 135 1 41 7 60 24 78 18 20 21 27 11 39 -10 12 -8 16 10 21
12 4 24 3 28 -3 12 -20 40 15 69 85 15 39 34 78 41 86 7 9 16 28 20 44 5 17
16 30 32 34 20 5 21 7 7 13 -9 4 -22 21 -29 38 -11 27 -10 32 4 43 9 7 14 15
11 18 -5 5 13 47 25 57 18 15 70 122 78 163 3 15 12 27 21 27 11 0 13 9 9 40
-3 27 -1 43 7 48 7 4 18 17 25 30 17 33 59 58 74 43 20 -20 33 -12 50 37 17
50 20 117 7 142 -9 16 24 104 47 128 7 7 13 19 13 25 0 7 9 29 20 50 11 20 20
46 20 57 0 11 7 20 15 20 11 0 13 7 9 28 -4 19 -1 34 10 44 8 9 20 52 27 101
11 77 10 89 -5 109 -9 13 -28 39 -41 58 -13 19 -31 45 -40 58 -9 13 -26 22
-41 22 -14 0 -42 9 -64 20 -22 11 -46 20 -53 20 -8 0 -25 8 -38 18 -13 10 -46
26 -72 36 -27 10 -66 34 -87 53 -38 35 -138 83 -174 83 -17 0 -87 28 -126 51
-67 39 -94 50 -108 43 -25 -11 -258 -56 -370 -71 -23 -3 -45 -10 -48 -14 -7
-12 -54 -11 -54 1 0 6 -8 10 -19 10 -13 0 -18 -7 -18 -25 0 -32 -5 -37 -37
-39 -14 0 -26 -4 -26 -7 0 -10 -72 -38 -115 -45 -22 -4 -44 -10 -50 -14 -21
-17 -103 -33 -177 -35 -55 -1 -81 -7 -93 -19 -9 -9 -31 -16 -48 -16 -18 0 -45
-7 -61 -15 -18 -10 -41 -13 -58 -10 -25 6 -30 3 -43 -29 -9 -20 -17 -55 -19
-79 -2 -23 -5 -42 -6 -42 -1 0 -3 -12 -4 -26 -2 -30 -51 -80 -72 -72 -20 8
-17 21 11 47 22 20 26 33 26 82 1 38 8 73 21 97 24 47 14 62 -43 70 -23 3 -52
15 -65 28 -23 22 -56 43 -84 54 -8 3 -33 15 -55 25 -22 10 -59 24 -82 30 -23
6 -43 14 -45 18 -3 6 -99 60 -155 87 -13 5 -23 13 -23 18 0 4 -9 7 -20 7 -12
0 -31 10 -44 23 -12 12 -40 27 -62 32 -25 7 -42 18 -49 33 -7 17 -16 21 -32
17 -15 -3 -27 2 -41 20 -11 14 -27 25 -36 25 -20 0 -58 21 -69 38 -4 6 -13 12
-19 12 -6 0 -26 16 -45 36 -21 23 -39 34 -49 30 -21 -8 -57 12 -50 29 3 8 -7
23 -22 34 -31 24 -34 26 -67 64 -14 15 -25 32 -25 38 0 17 48 87 71 102 16 12
20 22 15 44 -4 18 -1 35 8 48 9 11 16 28 16 37 0 9 4 18 8 20 9 3 62 111 62
126 0 4 14 18 30 31 26 19 30 27 25 54 -9 46 57 163 100 177 21 7 35 21 43 42
10 28 9 35 -8 53 -25 27 -25 51 -1 99 37 71 42 96 29 140 -6 23 -22 51 -35 64
-14 14 -23 34 -22 50 1 25 -9 81 -27 156 -6 26 -38 76 -90 139 -8 9 -14 23
-14 30 0 7 -5 18 -12 25 -8 8 -8 15 0 25 16 18 4 28 -24 21 -26 -7 -116 34
-159 70 -25 22 -155 91 -225 119 -19 8 -50 29 -69 46 -19 17 -39 31 -45 31 -6
0 -40 14 -74 30 -35 17 -75 30 -88 30 -13 0 -41 15 -61 33 -56 49 -96 75 -129
83 -16 4 -42 20 -58 36 -17 15 -36 28 -44 28 -8 0 -30 14 -49 30 -18 17 -42
30 -53 30 -10 0 -30 10 -44 23 -14 13 -51 30 -83 37 -37 8 -69 24 -88 42 -17
15 -36 28 -41 28 -6 0 -19 9 -29 20 -11 12 -31 20 -51 20 -22 0 -43 9 -61 26
-31 29 -103 68 -146 78 -27 6 -99 66 -81 66 5 0 2 5 -6 10 -8 5 -33 10 -56 10
-28 0 -47 6 -59 20 -10 11 -34 22 -54 26 -55 9 -91 25 -102 45 -5 11 -16 19
-24 19 -7 0 -15 6 -18 13 -2 7 -20 12 -43 12 -31 0 -39 4 -38 17 1 11 -10 21
-32 28 -19 6 -38 19 -43 28 -5 9 -20 18 -33 19 -71 7 -98 17 -113 39 -8 13
-21 24 -29 24 -7 0 -40 13 -72 30 -32 16 -71 32 -86 36 -16 3 -31 11 -35 18
-14 20 -66 51 -118 66 -47 15 -50 18 -50 50 0 26 -6 37 -27 49 -24 14 -28 14
-48 -4 -21 -19 -22 -19 -91 5 -39 14 -73 28 -75 32 -3 4 1 17 8 28 18 28 -2
40 -68 40 -36 0 -59 6 -77 20 -14 11 -37 20 -52 20 -15 0 -35 10 -48 24 -34
38 -93 66 -138 66 -40 0 -159 46 -159 62 0 4 -10 8 -23 8 -12 0 -38 15 -58 34
-25 25 -48 36 -82 41 -38 6 -53 14 -74 41 -14 19 -33 34 -42 34 -9 0 -25 6
-36 14 -11 7 -45 19 -75 25 -34 7 -65 22 -82 38 -16 16 -41 28 -59 29 -36 3
-109 33 -109 46 0 4 -7 8 -15 8 -8 0 -19 8 -24 19 -6 10 -28 26 -50 34 -22 9
-42 21 -46 26 -10 17 -93 50 -113 45 -10 -3 -24 2 -31 10 -8 9 -20 16 -29 16
-8 0 -23 7 -33 16 -33 30 -146 89 -233 121 -27 10 -51 26 -54 36 -2 10 -14 17
-28 17 -12 0 -25 4 -28 9 -8 12 -88 51 -105 51 -7 0 -9 4 -6 10 4 6 -6 7 -24
4 -23 -5 -32 -2 -37 10 -3 9 -12 16 -20 16 -8 0 -14 5 -14 10 0 6 -6 10 -14
10 -7 0 -25 9 -40 21 -40 32 -118 69 -143 69 -13 0 -23 5 -23 12 0 6 -3 9 -6
5 -5 -4 -87 37 -144 74 -8 5 -49 26 -90 46 -104 52 -189 104 -230 142 -57 54
-98 82 -112 80 -41 -7 -174 42 -232 86 -29 22 -118 65 -196 95 -19 7 -40 17
-46 22 -29 22 -132 68 -152 68 -12 0 -41 12 -63 26 -22 14 -48 24 -57 22 -16
-3 -49 20 -91 63 -17 18 -91 42 -91 31 0 -4 -4 -2 -8 3 -4 6 -20 17 -36 25
-17 8 -41 26 -54 39 -17 17 -26 21 -35 12 -14 -14 -27 -14 -27 0 0 22 -69 62
-154 89 -22 7 -60 27 -85 45 -26 18 -95 56 -156 84 -60 28 -117 56 -125 61
-33 21 -106 53 -125 54 -13 1 -26 15 -39 44 -18 39 -22 42 -60 42 -73 0 -114
22 -138 71 -12 24 -29 49 -38 56 -25 19 -34 -3 -10 -27 40 -40 11 -34 -98 21
-102 51 -108 53 -125 37 -35 -36 -52 -19 -50 50 1 6 -5 12 -13 12 -8 0 -14 5
-14 10 0 6 -7 10 -15 10 -8 0 -32 18 -54 40 -31 32 -46 40 -74 40 -19 0 -51 7
-71 15 -27 12 -35 20 -33 37 2 18 -6 25 -37 36 -22 7 -46 18 -54 24 -8 7 -42
13 -75 13 -44 1 -75 9 -107 25 -25 13 -47 25 -50 25 -3 1 -23 10 -45 20 -39
18 -127 34 -211 38 -22 1 -47 7 -55 14 -10 8 -20 9 -29 3 -24 -15 -32 -12 -25
11 6 16 4 20 -6 14 -11 -6 -12 -5 -1 6 19 20 15 24 -27 24 -23 1 -48 8 -59 18
-10 9 -32 17 -48 17 -30 1 -191 24 -209 31 -5 2 -24 -2 -42 -10 -27 -11 -35
-11 -55 3 -22 16 -42 19 -65 9z m262 -94 c-8 -12 -43 -6 -38 7 2 6 13 10 24 7
10 -3 16 -9 14 -14z m-55 -1 c0 -10 -36 -29 -44 -23 -3 3 -2 -1 4 -7 18 -22
10 -32 -10 -13 -19 17 -19 20 -4 36 15 17 54 22 54 7z m120 -39 c0 -21 -25
-26 -36 -7 -5 7 -3 8 7 3 11 -7 12 -6 2 7 -15 17 -7 29 13 21 8 -3 14 -14 14
-24z m-210 6 c0 -8 -7 -15 -15 -15 -26 0 -18 20 13 29 1 1 2 -6 2 -14z m294 0
c19 -14 19 -15 -6 -15 -27 0 -43 12 -31 24 9 9 16 7 37 -9z m629 -160 c-6 -17
-33 -21 -33 -5 0 6 7 10 16 10 9 0 12 5 8 12 -4 7 -3 8 4 4 6 -4 9 -13 5 -21z
m-1166 -171 c-3 -3 -12 -4 -19 -1 -8 3 -5 6 6 6 11 1 17 -2 13 -5z m3 -62 c0
-15 -22 -30 -36 -25 -11 4 -12 9 -3 19 12 15 39 19 39 6z m380 -117 c0 -8 -4
-15 -10 -15 -5 0 -7 -8 -3 -17 5 -14 3 -15 -7 -7 -7 7 -9 21 -5 33 7 24 25 28
25 6z m2541 -578 c-13 -13 -26 -3 -16 12 3 6 11 8 17 5 6 -4 6 -10 -1 -17z
m509 -221 c0 -3 -4 -8 -10 -11 -5 -3 -10 -1 -10 4 0 6 5 11 10 11 6 0 10 -2
10 -4z m-3515 -546 c4 -6 11 -8 16 -5 13 9 11 -29 -3 -43 -16 -16 -43 -15 -58
3 -10 12 -10 15 0 15 7 0 10 6 7 14 -8 21 26 35 38 16z m-965 -74 c0 -3 -4 -8
-10 -11 -5 -3 -10 -1 -10 4 0 6 5 11 10 11 6 0 10 -2 10 -4z m4592 -501 c8
-30 -2 -45 -31 -45 -12 0 -12 3 -3 12 18 18 15 48 -5 48 -15 0 -16 2 -3 10 22
14 33 7 42 -25z m-3937 11 c18 -13 18 -14 -8 -9 -15 3 -27 9 -27 14 0 13 13
11 35 -5z m3795 -2 c0 -8 -4 -12 -10 -9 -5 3 -10 10 -10 16 0 5 5 9 10 9 6 0
10 -7 10 -16z m-2712 -73 c-12 -19 -38 -29 -38 -15 0 8 44 43 48 39 2 -2 -3
-12 -10 -24z m2712 -77 c0 -13 -37 -1 -48 16 -20 33 -3 44 24 15 13 -14 24
-28 24 -31z m-4000 -224 c0 -5 -2 -10 -4 -10 -3 0 -8 5 -11 10 -3 6 -1 10 4
10 6 0 11 -4 11 -10z m-56 -226 c21 -8 21 -44 1 -44 -25 0 -44 22 -31 37 13
15 11 14 30 7z m676 -124 c0 -5 -5 -10 -11 -10 -5 0 -7 5 -4 10 3 6 8 10 11
10 2 0 4 -4 4 -10z m30 0 c0 -5 -4 -10 -10 -10 -5 0 -10 5 -10 10 0 6 5 10 10
10 6 0 10 -4 10 -10z m-580 -140 c0 -5 -12 -10 -27 -9 -25 0 -26 1 -8 9 27 12
35 12 35 0z m1430 -115 c-8 -35 -2 -47 30 -57 11 -4 8 -9 -12 -18 -36 -17 -58
0 -58 45 0 27 20 55 46 64 1 1 -2 -15 -6 -34z m50 25 c-19 -13 -30 -13 -30 0
0 6 10 10 23 10 18 0 19 -2 7 -10z m24 -52 c-10 -18 -19 -28 -21 -21 -3 10 25
53 34 53 2 0 -4 -15 -13 -32z m3576 1 c0 -13 -15 -18 -38 -12 -17 4 -20 9 -12
18 11 13 50 9 50 -6z m-2040 -38 c0 -12 -20 -25 -27 -18 -7 7 6 27 18 27 5 0
9 -4 9 -9z m-3880 -11 c0 -5 -5 -10 -11 -10 -5 0 -7 5 -4 10 3 6 8 10 11 10 2
0 4 -4 4 -10z m3946 -20 c0 -10 -8 -21 -18 -23 -10 -3 -18 0 -18 7 0 8 -11 11
-32 8 -31 -4 -32 -3 -14 10 10 8 33 15 50 16 25 1 32 -3 32 -18z m-2443 -45
c-3 -9 -8 -14 -10 -11 -3 3 -2 9 2 15 9 16 15 13 8 -4z m2263 -11 c-4 -9 -9
-15 -11 -12 -3 3 -3 13 1 22 4 9 9 15 11 12 3 -3 3 -13 -1 -22z m4516 -126
c-7 -7 -12 -8 -12 -2 0 14 12 26 19 19 2 -3 -1 -11 -7 -17z m-2 -27 c0 -14
-18 -23 -30 -16 -6 4 -8 11 -5 16 8 12 35 12 35 0z m-8870 -236 c0 -8 -4 -15
-9 -15 -5 0 -11 7 -15 15 -3 9 0 15 9 15 8 0 15 -7 15 -15z m7760 -5 c0 -5 -7
-10 -15 -10 -8 0 -15 5 -15 10 0 6 7 10 15 10 8 0 15 -4 15 -10z m2877 -97 c4
-11 -26 -27 -35 -19 -2 3 -2 12 2 21 6 18 27 16 33 -2z m-3361 -268 c-20 -31
-41 -33 -24 -3 20 34 33 47 36 37 2 -5 -3 -21 -12 -34z m-5720 -41 c13 -18 11
-22 -16 -42 -23 -17 -34 -20 -53 -13 -30 12 -40 36 -26 62 14 27 76 23 95 -7z
m9824 -21 c0 -15 -46 -18 -55 -3 -4 6 -4 17 -1 25 4 12 10 13 31 3 14 -6 25
-17 25 -25z m-9780 -17 c-14 -14 -22 -2 -14 18 5 14 9 15 15 4 4 -7 4 -17 -1
-22z m754 -2 c9 -3 16 -12 16 -19 0 -20 -26 -25 -47 -10 -16 13 -16 16 -3 25
18 12 15 11 34 4z m3006 -154 c0 -11 -50 -34 -57 -26 -3 2 8 11 24 20 34 19
33 18 33 6z m4185 -138 c0 -24 -48 -62 -61 -49 -4 4 1 23 12 42 21 39 49 43
49 7z m-5865 -13 c0 -5 -7 -9 -15 -9 -15 0 -20 12 -9 23 8 8 24 -1 24 -14z
m-2535 -209 c3 -5 -1 -10 -9 -10 -9 0 -16 5 -16 10 0 6 4 10 9 10 6 0 13 -4
16 -10z m-795 -55 c0 -9 -6 -12 -15 -9 -8 4 -15 10 -15 15 0 5 7 9 15 9 8 0
15 -7 15 -15z m9216 -307 c5 -8 2 -9 -9 -5 -10 4 -17 1 -17 -5 0 -6 -3 -9 -6
-5 -7 7 4 27 16 27 5 0 12 -5 16 -12z m-731 -729 c10 -14 1 -21 -19 -13 -9 3
-13 10 -10 15 7 12 21 11 29 -2z m-2747 -41 c18 -18 15 -27 -8 -21 -11 3 -18
9 -15 13 3 5 -5 11 -17 13 -21 4 -21 4 3 6 14 0 30 -4 37 -11z m2787 -8 c3 -5
-1 -10 -9 -10 -8 0 -18 5 -21 10 -3 6 1 10 9 10 8 0 18 -4 21 -10z m-3249 -83
c4 -4 -2 -7 -14 -7 -12 0 -22 4 -22 9 0 10 26 9 36 -2z m34 -25 c0 -13 -39
-46 -46 -39 -3 3 3 14 13 25 19 22 33 27 33 14z m-70 -51 c0 -5 -9 -7 -20 -4
-11 3 -20 7 -20 9 0 2 9 4 20 4 11 0 20 -4 20 -9z m6130 -16 c-12 -15 -30 -12
-30 6 0 5 10 9 21 9 18 0 19 -2 9 -15z m-6983 -41 c-9 -9 -28 6 -21 18 4 6 10
6 17 -1 6 -6 8 -13 4 -17z m6923 12 c0 -2 -7 -7 -16 -10 -8 -3 -12 -2 -9 4 6
10 25 14 25 6z m-7160 -36 c0 -5 -4 -10 -10 -10 -5 0 -10 5 -10 10 0 6 5 10
10 10 6 0 10 -4 10 -10z m3598 -38 c2 -7 -2 -12 -8 -12 -12 0 -40 24 -40 34 0
10 44 -11 48 -22z m-3268 -26 c0 -3 -4 -8 -10 -11 -5 -3 -10 -1 -10 4 0 6 5
11 10 11 6 0 10 -2 10 -4z m3875 -6 c-3 -5 -11 -10 -16 -10 -6 0 -7 5 -4 10 3
6 11 10 16 10 6 0 7 -4 4 -10z m-4195 -20 c0 -5 -4 -10 -10 -10 -5 0 -10 5
-10 10 0 6 5 10 10 10 6 0 10 -4 10 -10z m-536 -59 c3 -5 0 -13 -7 -19 -15
-13 -42 1 -33 17 9 13 33 15 40 2z m1786 -128 c0 -5 -17 -16 -36 -26 -25 -12
-35 -14 -32 -5 7 21 68 48 68 31z m69 -18 c37 -18 47 -44 24 -60 -14 -11 -21
-10 -40 4 -25 18 -38 45 -28 61 8 13 11 13 44 -5z m-56 -85 c-3 -11 -7 -20 -9
-20 -2 0 -4 9 -4 20 0 11 4 20 9 20 5 0 7 -9 4 -20z m-23 -23 c0 -2 -13 -13
-29 -25 -25 -18 -31 -19 -41 -7 -9 11 -5 16 22 24 38 11 48 12 48 8z m1750
-57 c0 -5 -4 -10 -9 -10 -6 0 -13 5 -16 10 -3 6 1 10 9 10 9 0 16 -4 16 -10z
m-165 -10 c-3 -5 -10 -10 -16 -10 -5 0 -9 5 -9 10 0 6 7 10 16 10 8 0 12 -4 9
-10z m-15 -94 c0 -4 -7 -5 -16 -2 -9 3 -20 6 -25 6 -5 0 -9 6 -9 14 0 11 5 12
25 3 14 -7 25 -16 25 -21z m-3340 -17 c0 -6 -4 -7 -10 -4 -5 3 -10 11 -10 16
0 6 5 7 10 4 6 -3 10 -11 10 -16z m50 -3 c0 -3 -4 -8 -10 -11 -5 -3 -10 -1
-10 4 0 6 5 11 10 11 6 0 10 -2 10 -4z m31 -29 c-13 -13 -26 -3 -16 12 3 6 11
8 17 5 6 -4 6 -10 -1 -17z m8484 -37 c-3 -5 -17 -10 -31 -10 -14 0 -22 4 -19
10 3 6 17 10 31 10 14 0 22 -4 19 -10z m-7855 -14 c0 -3 -4 -8 -10 -11 -5 -3
-10 -1 -10 4 0 6 5 11 10 11 6 0 10 -2 10 -4z m2935 -6 c3 -5 -3 -10 -15 -10
-12 0 -18 5 -15 10 3 6 10 10 15 10 5 0 12 -4 15 -10z m-3385 -20 c0 -5 -4
-10 -10 -10 -5 0 -10 5 -10 10 0 6 5 10 10 10 6 0 10 -4 10 -10z m3267 4 c-3
-3 -12 -4 -19 -1 -8 3 -5 6 6 6 11 1 17 -2 13 -5z m-3185 -46 c-6 -6 -15 -8
-19 -4 -4 4 -1 11 7 16 19 12 27 3 12 -12z m3448 -27 c0 -9 -41 -33 -47 -27
-7 7 19 33 34 33 7 0 13 -3 13 -6z m6927 -23 c-3 -8 -6 -5 -6 6 -1 11 2 17 5
13 3 -3 4 -12 1 -19z m-6817 -68 c0 -5 -4 -10 -10 -10 -5 0 -10 5 -10 10 0 6
5 10 10 10 6 0 10 -4 10 -10z m1000 0 c0 -5 -7 -7 -15 -4 -8 4 -15 8 -15 10 0
2 7 4 15 4 8 0 15 -4 15 -10z m17 -37 c-3 -3 -11 -2 -17 2 -9 6 -9 10 1 16 14
8 27 -7 16 -18z m-4242 7 c3 -5 -1 -10 -10 -10 -9 0 -13 5 -10 10 3 6 8 10 10
10 2 0 7 -4 10 -10z m3551 -200 c8 0 14 -5 14 -11 0 -5 -4 -8 -9 -5 -5 3 -14
-1 -21 -9 -14 -17 -36 -20 -45 -5 -9 15 15 42 32 35 8 -3 21 -5 29 -5z m-626
-20 c0 -5 -4 -10 -10 -10 -5 0 -10 5 -10 10 0 6 5 10 10 10 6 0 10 -4 10 -10z
m710 -20 c0 -5 -7 -10 -16 -10 -8 0 -12 5 -9 10 3 6 10 10 16 10 5 0 9 -4 9
-10z m85 -40 c-3 -5 -10 -10 -16 -10 -5 0 -9 5 -9 10 0 6 7 10 16 10 8 0 12
-4 9 -10z m245 -56 c0 -8 -4 -12 -10 -9 -5 3 -10 10 -10 16 0 5 5 9 10 9 6 0
10 -7 10 -16z m-27 -41 c4 -3 -5 -12 -20 -20 -30 -15 -36 -13 -27 11 6 16 35
22 47 9z m-63 -73 c0 -5 -7 -10 -16 -10 -8 0 -12 5 -9 10 3 6 10 10 16 10 5 0
9 -4 9 -10z m-2456 -229 c6 -9 -15 -61 -25 -61 -8 0 -19 52 -12 62 6 11 31 10
37 -1z m3026 -281 c0 -5 -12 -10 -27 -10 -22 0 -25 2 -13 10 20 13 40 13 40 0z
m-50 -160 c0 -5 -7 -10 -15 -10 -8 0 -15 5 -15 10 0 6 7 10 15 10 8 0 15 -4
15 -10z m-1230 -175 c0 -8 -4 -15 -10 -15 -5 0 -10 7 -10 15 0 8 5 15 10 15 6
0 10 -7 10 -15z m1806 -109 c15 -12 17 -18 8 -33 -6 -10 -22 -19 -35 -20 -30
-3 -73 31 -65 52 7 19 66 20 92 1z m1247 -26 c22 0 27 -4 27 -25 0 -25 -31
-65 -50 -65 -6 0 -25 7 -42 16 -23 12 -27 19 -19 27 9 9 14 9 20 -1 7 -11 10
-10 15 3 3 9 -1 23 -9 31 -21 21 -19 27 8 20 12 -3 34 -6 50 -6z m-3063 -87
c0 -14 2 -15 9 -4 9 14 31 7 31 -11 0 -5 -8 -21 -19 -34 -16 -21 -20 -22 -31
-9 -7 9 -22 14 -34 13 -27 -4 -35 31 -10 49 25 19 54 16 54 -4z m4218 -1402
l-15 -21 -11 24 c-9 21 -8 25 6 29 26 6 36 -9 20 -32z m1002 -14 c0 -8 -3 -17
-7 -20 -9 -9 -34 13 -27 24 8 14 34 11 34 -4z m40 3 c0 -5 -7 -7 -15 -4 -8 4
-15 8 -15 10 0 2 7 4 15 4 8 0 15 -4 15 -10z m-960 -20 c0 -5 -4 -10 -10 -10
-5 0 -10 5 -10 10 0 6 5 10 10 10 6 0 10 -4 10 -10z m937 -42 c-2 -7 9 -18 25
-25 33 -14 34 -18 7 -62 -16 -27 -23 -31 -32 -21 -9 10 -9 14 1 17 21 8 14 43
-8 43 -11 0 -20 3 -20 8 0 4 -3 17 -6 30 -5 18 -2 22 16 22 13 0 20 -5 17 -12z
m-137 -156 c0 -14 -11 -21 -26 -15 -8 3 -11 9 -8 14 7 11 34 12 34 1z"/>
<path d="M3746 16645 c-21 -21 -6 -51 29 -57 26 -6 49 7 57 32 12 33 -57 53
-86 25z"/>
<path d="M19356 16195 c-3 -9 1 -18 10 -22 19 -7 28 2 21 22 -8 19 -23 19 -31
0z"/>
<path d="M10179 15918 c10 -27 51 -38 51 -13 0 8 -12 20 -26 25 -34 13 -35 13
-25 -12z"/>
<path d="M11200 15766 c0 -2 7 -7 16 -10 8 -3 12 -2 9 4 -6 10 -25 14 -25 6z"/>
<path d="M10950 15609 c0 -5 5 -7 10 -4 6 3 10 8 10 11 0 2 -4 4 -10 4 -5 0
-10 -5 -10 -11z"/>
<path d="M10725 15589 c-10 -15 3 -25 16 -12 7 7 7 13 1 17 -6 3 -14 1 -17 -5z"/>
<path d="M12210 15265 c0 -8 5 -15 10 -15 6 0 10 7 10 15 0 8 -4 15 -10 15 -5
0 -10 -7 -10 -15z"/>
<path d="M10885 14970 c-8 -12 22 -39 43 -40 8 0 12 9 10 23 -3 24 -41 36 -53
17z"/>
<path d="M2130 14774 c0 -8 5 -12 10 -9 6 3 10 10 10 16 0 5 -4 9 -10 9 -5 0
-10 -7 -10 -16z"/>
<path d="M12637 14624 c-14 -15 -6 -34 14 -34 14 0 19 5 17 17 -3 18 -20 27
-31 17z"/>
<path d="M16580 14329 c0 -5 5 -7 10 -4 6 3 10 8 10 11 0 2 -4 4 -10 4 -5 0
-10 -5 -10 -11z"/>
<path d="M15157 14283 c-23 -22 34 -88 70 -81 26 5 28 43 4 67 -20 20 -61 28
-74 14z"/>
<path d="M19230 13815 c0 -8 10 -19 22 -26 18 -10 20 -9 15 5 -4 9 -1 16 6 16
8 0 6 4 -3 10 -22 14 -40 12 -40 -5z"/>
<path d="M12840 13696 c0 -2 7 -7 16 -10 8 -3 12 -2 9 4 -6 10 -25 14 -25 6z"/>
<path d="M14532 13393 c5 -26 38 -29 38 -4 0 15 -6 21 -21 21 -14 0 -19 -5
-17 -17z"/>
<path d="M260 13049 c0 -5 5 -7 10 -4 6 3 10 8 10 11 0 2 -4 4 -10 4 -5 0 -10
-5 -10 -11z"/>
<path d="M19410 13004 c-6 -14 -10 -26 -10 -27 0 -1 20 -2 45 -2 50 0 58 14
23 39 -32 22 -47 20 -58 -10z"/>
<path d="M16135 12996 c-16 -12 -17 -15 -4 -28 8 -7 20 -13 27 -12 6 1 16 2
21 3 16 2 22 34 9 43 -19 11 -32 10 -53 -6z"/>
<path d="M1507 12993 c-13 -12 -7 -23 11 -23 10 0 19 7 19 15 0 15 -18 20 -30
8z"/>
<path d="M378 11702 c-16 -9 -28 -21 -29 -27 0 -5 -2 -18 -4 -27 -2 -11 2 -15
11 -11 8 3 14 9 14 14 0 5 11 14 24 18 24 10 43 51 23 51 -7 0 -24 -8 -39 -18z"/>
<path d="M1295 11640 c3 -5 8 -10 11 -10 2 0 4 5 4 10 0 6 -5 10 -11 10 -5 0
-7 -4 -4 -10z"/>
<path d="M2833 11564 c-3 -8 -12 -13 -20 -10 -8 3 -11 1 -8 -4 9 -15 64 -12
80 4 8 7 11 16 8 20 -12 12 -54 6 -60 -10z"/>
<path d="M1452 11258 c5 -15 35 -34 43 -27 3 4 3 14 -1 23 -7 18 -48 23 -42 4z"/>
<path d="M3179 11247 c-33 -18 -45 -30 -47 -51 -7 -56 50 -77 86 -32 10 14 31
28 45 32 37 9 35 39 -3 59 -36 19 -29 19 -81 -8z"/>
<path d="M4237 11213 c-14 -13 -6 -43 13 -53 17 -9 20 -8 20 10 0 11 4 20 9
20 5 0 11 7 15 15 4 11 -2 15 -23 15 -15 0 -31 -3 -34 -7z"/>
<path d="M4225 10940 c-4 -7 -1 -16 6 -21 17 -10 26 8 11 23 -6 6 -12 6 -17
-2z"/>
<path d="M19018 10908 c-6 -16 16 -38 36 -38 25 0 0 49 -26 50 -3 0 -8 -6 -10
-12z"/>
<path d="M18045 10840 c-3 -5 -1 -10 4 -10 6 0 11 5 11 10 0 6 -2 10 -4 10 -3
0 -8 -4 -11 -10z"/>
<path d="M16867 10813 c-12 -11 -8 -23 8 -23 8 0 15 7 15 15 0 16 -12 20 -23
8z"/>
<path d="M19860 10791 c0 -19 23 -35 34 -24 11 11 6 22 -14 33 -17 9 -20 8
-20 -9z"/>
<path d="M2945 10780 c-3 -5 1 -10 10 -10 9 0 13 5 10 10 -3 6 -8 10 -10 10
-2 0 -7 -4 -10 -10z"/>
<path d="M19305 10530 c-6 -10 22 -60 35 -60 12 0 21 31 15 51 -7 20 -40 26
-50 9z"/>
<path d="M19762 10533 c-10 -4 -10 -8 -1 -19 13 -16 29 -10 29 12 0 15 -6 16
-28 7z"/>
<path d="M17046 10434 c-11 -29 -6 -44 15 -44 29 0 49 22 37 43 -11 21 -44 22
-52 1z"/>
<path d="M5204 10419 c-8 -14 14 -29 33 -22 7 3 13 11 13 19 0 17 -36 19 -46
3z"/>
<path d="M19475 10286 c-17 -12 -17 -16 -6 -30 8 -9 16 -14 19 -11 3 3 11 0
17 -5 14 -11 65 3 65 18 0 9 -53 42 -67 42 -5 0 -18 -6 -28 -14z"/>
<path d="M6120 10270 c0 -5 7 -10 15 -10 8 0 15 5 15 10 0 6 -7 10 -15 10 -8
0 -15 -4 -15 -10z"/>
<path d="M16088 10233 c-24 -6 -23 -19 2 -19 11 0 22 6 24 13 6 13 3 14 -26 6z"/>
<path d="M5820 10100 c0 -5 5 -10 10 -10 6 0 10 5 10 10 0 6 -4 10 -10 10 -5
0 -10 -4 -10 -10z"/>
<path d="M19785 10090 c-3 -6 1 -13 10 -16 19 -8 30 0 20 15 -8 14 -22 14 -30
1z"/>
<path d="M18640 9905 c-14 -17 -7 -31 21 -38 11 -3 18 -3 15 0 -3 4 4 13 15
21 17 12 18 16 8 23 -21 13 -45 11 -59 -6z"/>
<path d="M1258 9899 c-19 -11 -24 -44 -8 -54 5 -3 25 3 44 13 34 18 35 20 18
36 -21 18 -30 19 -54 5z"/>
<path d="M7060 9760 c0 -5 4 -10 9 -10 6 0 13 5 16 10 3 6 -1 10 -9 10 -9 0
-16 -4 -16 -10z"/>
<path d="M6219 9645 c-1 -3 -2 -9 -3 -13 0 -5 -27 -34 -58 -65 -32 -31 -58
-61 -58 -66 0 -5 9 -13 20 -16 29 -9 24 -31 -10 -45 -18 -7 -30 -20 -30 -31 0
-10 -4 -21 -10 -24 -20 -12 -9 -25 16 -19 24 6 43 -6 44 -28 0 -14 -33 -38
-53 -38 -27 0 -47 -39 -47 -94 0 -22 -9 -65 -19 -95 -22 -64 -36 -227 -21
-236 5 -3 7 -18 4 -33 -3 -15 1 -46 10 -68 12 -36 12 -45 0 -69 -8 -15 -14
-40 -14 -56 0 -16 -4 -29 -9 -29 -5 0 -17 -7 -25 -16 -18 -17 -13 -51 12 -96
14 -24 14 -32 -3 -85 -40 -127 2 -285 65 -245 11 6 27 12 35 12 19 0 20 -26 0
-34 -28 -10 -16 -45 30 -83 25 -20 48 -46 51 -58 4 -11 15 -30 24 -42 10 -13
18 -43 20 -70 3 -75 5 -96 14 -128 12 -42 152 -250 204 -302 24 -24 50 -61 58
-81 32 -79 159 -167 231 -160 38 3 38 3 40 -35 2 -32 -2 -40 -28 -56 -18 -11
-26 -22 -20 -25 6 -4 11 -20 11 -36 0 -15 6 -30 14 -33 14 -6 23 -51 28 -142
2 -27 7 -55 11 -61 4 -7 0 -28 -8 -47 -17 -42 -14 -86 8 -121 13 -20 16 -44
13 -116 -2 -50 -6 -94 -9 -96 -3 -3 -3 -38 0 -77 5 -67 6 -88 5 -142 0 -11 -1
-51 -2 -90 -2 -99 -12 -139 -35 -143 -11 -2 -25 -11 -32 -19 -10 -13 -24 -14
-80 -8 -70 8 -81 8 -168 0 -90 -9 -243 -4 -264 9 -8 5 -30 9 -49 8 -19 -1 -47
5 -63 13 -31 16 -119 20 -119 6 0 -19 -41 -23 -66 -7 -25 17 -156 38 -179 29
-7 -2 -30 0 -52 6 -34 10 -40 9 -55 -11 -15 -21 -18 -21 -35 -6 -13 12 -23 14
-36 6 -33 -18 -112 -10 -203 20 -115 39 -161 45 -168 25 -6 -16 -9 -15 -136
12 -213 47 -220 48 -235 35 -8 -7 -15 -20 -15 -29 0 -27 -20 -41 -40 -29 -12
8 -33 8 -70 1 -47 -10 -56 -8 -96 14 -38 21 -49 23 -76 14 -46 -16 -134 -14
-152 4 -18 19 -30 19 -45 1 -12 -15 -64 -19 -55 -5 3 5 -4 9 -15 9 -23 0 -28
-15 -8 -23 9 -4 9 -6 -1 -6 -7 -1 -11 -5 -7 -10 9 -16 -9 -20 -23 -5 -10 11
-10 14 0 14 10 0 10 2 -1 9 -7 5 -39 7 -71 4 -39 -4 -67 -1 -91 10 -54 24 -67
27 -71 15 -2 -6 -24 -12 -48 -13 -25 -1 -53 -6 -62 -10 -10 -4 -36 0 -61 10
-33 12 -49 14 -71 6 -35 -14 -89 -14 -102 -1 -8 8 -19 7 -38 -1 -20 -10 -49
-10 -129 -1 -56 7 -115 15 -132 19 -16 4 -163 7 -325 6 -228 -2 -313 -6 -375
-19 -44 -9 -98 -16 -120 -16 -22 1 -66 -8 -98 -19 -49 -16 -65 -18 -99 -9 -28
8 -49 8 -70 1 -23 -8 -35 -7 -53 5 -37 24 -74 9 -95 -40 -22 -52 -37 -201 -21
-210 15 -10 14 -49 -1 -64 -10 -10 -10 -17 0 -33 16 -26 9 -67 -25 -136 -21
-42 -24 -55 -14 -67 17 -21 17 -241 0 -252 -17 -10 -9 -57 12 -80 l22 -23 -27
-12 c-25 -12 -33 -29 -35 -74 -1 -11 -4 -47 -7 -80 -3 -33 -5 -98 -3 -145 1
-47 2 -105 1 -130 -5 -211 -6 -203 30 -232 18 -16 40 -28 50 -28 19 0 38 28
31 47 -3 9 29 12 122 12 109 0 131 -3 163 -20 43 -25 144 -50 224 -56 55 -5
57 -4 73 26 12 23 22 31 43 31 16 0 33 -5 39 -11 6 -6 49 -12 95 -14 46 -2
120 -8 163 -15 253 -36 274 -37 565 -34 162 1 428 4 590 6 162 2 301 7 308 11
8 5 19 3 29 -4 9 -8 48 -14 102 -15 71 -2 87 -5 89 -18 3 -16 39 -36 63 -36 5
0 14 12 19 26 10 25 13 26 61 20 36 -5 60 -2 85 10 22 10 44 14 61 9 95 -24
328 -50 418 -47 52 1 121 16 127 27 6 10 35 11 137 6 10 -1 12 -10 6 -37 -5
-28 -4 -34 7 -28 7 5 22 9 33 10 11 0 42 4 68 8 32 5 53 4 62 -4 16 -13 207
-29 355 -30 105 0 106 0 133 31 31 35 72 38 72 4 0 -16 8 -21 38 -23 33 -3 37
-1 37 21 0 39 62 51 116 22 35 -18 141 -20 146 -3 6 18 235 12 262 -8 27 -19
76 -18 104 2 35 24 170 6 203 -27 18 -18 94 -19 320 -4 57 4 89 3 94 -4 8 -15
51 -14 100 2 79 25 215 129 215 165 0 18 39 89 65 120 22 26 46 98 39 117 -3
7 0 16 5 20 6 3 9 11 6 16 -4 5 -2 9 3 9 5 0 12 9 15 20 3 14 14 20 31 20 14
0 26 6 26 13 0 18 34 45 62 49 21 3 23 8 23 66 0 34 5 66 11 70 6 4 18 22 27
41 17 33 16 35 -7 75 -14 23 -35 50 -47 60 l-23 19 32 15 c24 12 32 22 32 42
0 15 9 35 20 45 29 26 25 51 -10 64 -35 12 -36 17 -13 44 11 12 18 36 18 65 1
26 9 64 18 84 9 21 17 41 17 45 0 4 16 23 34 41 37 37 49 74 38 118 -12 55 -6
109 17 156 14 28 22 56 19 72 -3 14 0 27 6 29 7 2 5 12 -5 28 -11 17 -16 51
-17 114 -1 98 -6 141 -23 223 -9 38 -9 59 -1 76 8 19 7 31 -7 57 -26 50 -33
85 -18 97 6 5 37 12 67 16 30 4 59 11 65 15 17 14 238 99 273 106 18 4 53 22
77 41 25 18 57 36 72 40 101 23 121 36 218 132 53 54 98 107 101 120 4 12 12
22 20 22 8 0 14 4 14 9 0 5 26 24 58 42 31 18 65 42 74 53 10 12 22 26 28 33
5 7 10 16 10 20 1 13 43 58 76 81 32 22 51 76 46 129 -3 30 14 37 49 22 28
-11 33 -10 53 12 36 40 55 89 52 141 -1 26 2 48 6 48 16 0 47 79 46 117 -1 55
-12 63 -82 63 -44 1 -75 7 -111 25 -27 14 -57 25 -65 25 -36 1 -106 34 -137
65 -19 19 -38 35 -42 35 -5 0 -21 11 -37 25 -15 13 -42 29 -59 35 -16 6 -46
20 -65 30 -26 13 -41 15 -53 8 -13 -7 -17 -6 -15 3 3 12 -1 14 -33 18 -6 0 -9
7 -6 15 3 8 -5 18 -19 25 -13 6 -24 15 -24 20 0 14 -72 33 -83 22 -4 -4 -19
-6 -33 -3 -18 3 -23 9 -19 22 8 25 -31 53 -56 40 -25 -14 -27 -13 -45 21 -11
22 -19 28 -26 21 -13 -13 -38 -4 -38 14 0 8 -7 14 -15 14 -8 0 -15 3 -15 8 0
4 -27 25 -60 47 -33 22 -60 43 -60 48 0 4 -17 0 -37 -8 -43 -18 -63 -14 -63
14 0 10 -9 21 -20 24 -13 3 -18 10 -14 21 4 11 1 16 -10 16 -23 0 -83 32 -128
68 -21 16 -56 32 -79 36 -22 4 -48 13 -56 21 -8 8 -27 15 -42 15 -16 0 -46 7
-67 15 -22 9 -48 19 -59 24 -21 8 -119 57 -334 168 -119 60 -145 81 -219 168
-20 24 -27 27 -66 21 -38 -6 -48 -3 -76 20 -17 15 -53 33 -78 40 -71 19 -160
59 -185 81 -12 12 -32 24 -44 28 -13 3 -23 10 -23 15 0 5 -30 18 -67 30 -87
27 -120 45 -163 90 -37 38 -86 64 -101 54 -13 -7 -49 5 -49 17 0 19 -28 38
-70 48 -23 5 -49 16 -59 25 -22 20 -85 46 -113 46 -13 0 -45 12 -73 25 -44 22
-113 34 -116 20z m433 -1277 c-7 -7 -12 -8 -12 -2 0 14 12 26 19 19 2 -3 -1
-11 -7 -17z m2388 -123 c0 -12 -19 -12 -23 0 -4 9 -1 12 9 8 7 -3 14 -7 14 -8z
m-465 -344 c-3 -6 -11 -8 -17 -5 -6 4 -5 9 3 15 16 10 23 4 14 -10z m873 -103
c2 -4 14 -8 27 -8 12 0 28 -6 35 -14 6 -8 18 -12 25 -10 8 3 22 1 32 -4 16 -9
15 -11 -8 -17 -22 -5 -87 10 -144 35 -11 4 -28 11 -37 14 -10 3 -18 10 -18 16
0 12 83 2 88 -12z m-1900 -817 c10 -6 9 -13 -6 -32 -17 -20 -22 -21 -36 -10
-35 30 2 68 42 42z m-3288 -941 c0 -5 -5 -10 -11 -10 -5 0 -7 5 -4 10 3 6 8
10 11 10 2 0 4 -4 4 -10z m2734 -137 c4 -9 3 -20 -2 -25 -14 -14 -42 2 -42 23
0 24 35 26 44 2z m-1859 -13 c3 -5 2 -10 -4 -10 -5 0 -13 5 -16 10 -3 6 -2 10
4 10 5 0 13 -4 16 -10z m495 -70 c0 -5 -9 -10 -20 -10 -11 0 -20 5 -20 10 0 6
9 10 20 10 11 0 20 -4 20 -10z m-155 -30 c7 -12 -2 -12 -30 0 -19 8 -19 9 2 9
12 1 25 -3 28 -9z m2425 -110 c0 -5 -4 -10 -10 -10 -5 0 -10 5 -10 10 0 6 5
10 10 10 6 0 10 -4 10 -10z m-5388 -55 c-6 -35 -26 -47 -66 -40 -20 4 -36 13
-36 21 0 21 42 45 75 42 24 -2 29 -7 27 -23z m5313 -154 c3 -6 -4 -9 -15 -8
-11 1 -20 5 -20 9 0 11 28 10 35 -1z m30 -51 c3 -5 1 -10 -4 -10 -6 0 -11 5
-11 10 0 6 2 10 4 10 3 0 8 -4 11 -10z m-2445 -60 c0 -5 -2 -10 -4 -10 -3 0
-8 5 -11 10 -3 6 -1 10 4 10 6 0 11 -4 11 -10z m2485 0 c3 -5 1 -10 -4 -10 -6
0 -11 5 -11 10 0 6 2 10 4 10 3 0 8 -4 11 -10z m88 -79 c3 -11 3 -22 0 -25 -7
-6 -41 28 -36 37 8 14 31 7 36 -12z m-2878 -21 c3 -5 2 -10 -4 -10 -5 0 -13 5
-16 10 -3 6 -2 10 4 10 5 0 13 -4 16 -10z m507 -92 c-7 -7 -12 -8 -12 -2 0 14
12 26 19 19 2 -3 -1 -11 -7 -17z m175 6 c-3 -3 -12 -4 -19 -1 -8 3 -5 6 6 6
11 1 17 -2 13 -5z m73 -28 c0 -3 -4 -8 -10 -11 -5 -3 -10 -1 -10 4 0 6 5 11
10 11 6 0 10 -2 10 -4z m1469 -15 c9 -6 11 -16 5 -32 -4 -13 -7 -29 -6 -35 4
-19 -24 -24 -47 -8 -25 18 -27 46 -5 68 17 18 32 20 53 7z m-729 -41 c0 -5 -6
-10 -14 -10 -8 0 -18 5 -21 10 -3 6 3 10 14 10 12 0 21 -4 21 -10z m-490 -20
c0 -5 -2 -10 -4 -10 -3 0 -8 5 -11 10 -3 6 -1 10 4 10 6 0 11 -4 11 -10z
m-445 -30 c4 -6 -5 -10 -20 -10 -15 0 -24 4 -20 10 3 6 12 10 20 10 8 0 17 -4
20 -10z m1539 -28 c2 -4 -4 -8 -15 -8 -10 0 -19 4 -19 8 0 4 6 8 14 8 8 0 17
-4 20 -8z m-924 -81 c-6 -12 -16 -21 -23 -21 -7 0 -6 4 3 10 13 9 13 10 0 10
-12 1 -11 4 4 15 25 19 31 13 16 -14z m-965 -12 c-10 -15 -25 -10 -19 6 4 8
10 12 15 9 5 -3 7 -10 4 -15z m1199 6 c-4 -8 -10 -15 -15 -15 -4 0 -6 7 -3 15
4 8 10 15 15 15 4 0 6 -7 3 -15z m106 -15 c0 -5 -5 -10 -11 -10 -5 0 -7 5 -4
10 3 6 8 10 11 10 2 0 4 -4 4 -10z m90 0 c0 -5 -4 -10 -10 -10 -5 0 -10 5 -10
10 0 6 5 10 10 10 6 0 10 -4 10 -10z m1007 -36 c-3 -3 -12 -4 -19 -1 -8 3 -5
6 6 6 11 1 17 -2 13 -5z m-592 -24 c3 -6 -1 -7 -9 -4 -18 7 -21 14 -7 14 6 0
13 -4 16 -10z m147 -49 c4 -4 -5 -6 -20 -5 -40 1 -44 3 -37 14 6 11 43 5 57
-9z m-1637 -21 c3 -5 -1 -10 -10 -10 -9 0 -13 5 -10 10 3 6 8 10 10 10 2 0 7
-4 10 -10z m385 -9 c0 -20 -26 -36 -35 -21 -8 13 6 40 21 40 8 0 14 -9 14 -19z
m594 3 c20 -8 21 -60 1 -68 -8 -3 -21 1 -29 9 -7 8 -16 12 -19 9 -3 -3 -3 5 0
18 4 12 11 26 17 30 13 9 11 9 30 2z m-875 -35 c-19 -12 -24 -2 -8 17 9 11 14
13 17 4 3 -7 -2 -16 -9 -21z m161 -9 c0 -6 -11 -10 -25 -10 -14 0 -25 4 -25 8
0 4 11 9 25 10 14 1 25 -3 25 -8z m80 0 c0 -5 -10 -10 -22 -10 -19 0 -20 2 -8
10 19 13 30 13 30 0z m312 -51 c-26 -20 -28 -29 -7 -29 8 0 20 9 27 20 12 19
38 28 38 14 0 -10 -54 -54 -66 -54 -10 0 -39 50 -32 55 36 28 74 22 40 -6z
m-3862 7 c0 -2 -7 -6 -15 -10 -8 -3 -15 -1 -15 4 0 6 7 10 15 10 8 0 15 -2 15
-4z m3925 -156 c16 -7 11 -9 -20 -9 -22 0 -47 4 -55 9 -19 13 46 13 75 0z
m245 -3 c-14 -8 -31 -11 -39 -9 -11 4 -10 7 5 13 10 4 28 8 39 8 17 1 17 -1
-5 -12z m163 -12 c4 -8 1 -17 -5 -21 -7 -5 -8 -2 -3 6 6 10 4 12 -8 7 -11 -4
-14 -2 -10 9 7 18 19 18 26 -1z m441 -16 c4 6 13 11 19 11 7 -1 1 -10 -12 -20
-13 -11 -35 -20 -50 -20 l-26 1 24 20 c17 14 26 16 31 8 6 -8 9 -8 14 0z m86
1 c12 -8 9 -10 -13 -10 -16 0 -26 4 -22 10 8 12 16 12 35 0z m-695 -31 c-5 -8
-55 -9 -55 -1 0 1 10 6 23 11 24 10 40 5 32 -10z m165 1 c13 -8 13 -10 -2 -10
-9 0 -20 5 -23 10 -8 13 5 13 25 0z m-620 -64 c0 -2 3 -11 6 -20 5 -12 0 -16
-19 -16 -28 0 -42 14 -32 30 6 10 45 15 45 6z"/>
<path d="M3670 9626 c-14 -14 -13 -46 3 -46 19 0 58 31 54 43 -4 14 -44 16
-57 3z"/>
<path d="M5625 9501 c-9 -16 3 -31 26 -31 14 0 19 6 17 17 -4 20 -33 29 -43
14z"/>
<path d="M100 9425 c0 -9 9 -15 25 -15 28 0 34 15 9 24 -25 10 -34 7 -34 -9z"/>
<path d="M1706 9154 c-9 -22 11 -44 40 -44 33 0 34 45 2 54 -33 8 -35 8 -42
-10z"/>
<path d="M7860 9123 c0 -4 10 -17 22 -30 12 -13 16 -23 10 -23 -7 0 -12 5 -12
12 0 6 -2 9 -5 6 -15 -14 10 -38 39 -38 54 0 60 13 20 48 -32 29 -74 43 -74
25z"/>
<path d="M8502 8874 c-13 -6 -20 -14 -15 -17 8 -5 50 20 42 26 -2 2 -15 -2
-27 -9z"/>
<path d="M18157 8723 c-11 -10 -8 -20 9 -37 20 -20 34 -12 34 20 0 17 -6 24
-18 24 -10 0 -22 -3 -25 -7z"/>
<path d="M3376 8701 c-4 -5 -2 -12 3 -15 5 -4 12 -2 15 3 4 5 2 12 -3 15 -5 4
-12 2 -15 -3z"/>
<path d="M4700 8663 c0 -15 5 -35 10 -43 9 -13 11 -13 20 0 15 23 8 64 -12 68
-14 3 -18 -3 -18 -25z"/>
<path d="M8515 8571 c-3 -6 4 -15 15 -21 22 -12 23 -10 14 14 -7 18 -20 21
-29 7z"/>
<path d="M840 8526 c0 -8 5 -18 10 -21 6 -3 10 3 10 14 0 12 -4 21 -10 21 -5
0 -10 -6 -10 -14z"/>
<path d="M4105 8500 c-4 -6 -3 -14 0 -20 9 -15 35 -12 35 4 0 17 -27 29 -35
16z"/>
<path d="M840 8479 c0 -5 5 -7 10 -4 6 3 10 8 10 11 0 2 -4 4 -10 4 -5 0 -10
-5 -10 -11z"/>
<path d="M9693 8374 c-4 -11 1 -22 12 -31 16 -11 20 -11 28 3 5 8 6 22 3 30
-7 19 -35 18 -43 -2z"/>
<path d="M2120 7945 c0 -8 7 -15 15 -15 8 0 15 7 15 15 0 8 -7 15 -15 15 -8 0
-15 -7 -15 -15z"/>
<path d="M10723 7713 c-18 -7 -16 -23 2 -23 8 0 15 7 15 15 0 8 -1 15 -2 14
-2 0 -9 -3 -15 -6z"/>
<path d="M10436 7651 c-13 -20 5 -37 34 -33 35 5 38 17 11 32 -24 12 -38 13
-45 1z"/>
<path d="M11425 7530 c-3 -5 1 -10 10 -10 9 0 13 5 10 10 -3 6 -8 10 -10 10
-2 0 -7 -4 -10 -10z"/>
<path d="M2345 7140 c-3 -5 1 -10 10 -10 9 0 13 5 10 10 -3 6 -8 10 -10 10 -2
0 -7 -4 -10 -10z"/>
<path d="M11983 7103 c-14 -5 -18 -35 -7 -46 4 -3 16 -1 28 5 28 14 27 13 20
32 -6 16 -18 19 -41 9z"/>
<path d="M5727 7013 c-15 -14 -7 -43 12 -43 26 0 36 17 21 35 -14 16 -23 19
-33 8z"/>
<path d="M5536 6981 c-4 -5 -2 -12 3 -15 5 -4 12 -2 15 3 4 5 2 12 -3 15 -5 4
-12 2 -15 -3z"/>
<path d="M760 6650 c-8 -5 -11 -12 -8 -16 10 -9 38 3 38 16 0 12 -10 13 -30 0z"/>
<path d="M5920 6611 c0 -17 18 -21 24 -6 3 9 0 15 -9 15 -8 0 -15 -4 -15 -9z"/>
<path d="M10510 6605 c0 -8 5 -15 10 -15 6 0 10 7 10 15 0 8 -4 15 -10 15 -5
0 -10 -7 -10 -15z"/>
<path d="M3010 6496 c-8 -10 -6 -15 6 -20 17 -7 34 0 34 14 0 15 -28 19 -40 6z"/>
<path d="M19750 6471 c0 -6 5 -13 10 -16 6 -3 10 1 10 9 0 9 -4 16 -10 16 -5
0 -10 -4 -10 -9z"/>
<path d="M9590 6451 c0 -27 21 -61 39 -61 26 0 35 47 10 60 -23 13 -49 13 -49
1z"/>
<path d="M10712 6408 c7 -19 35 -21 41 -3 5 11 0 15 -19 15 -16 0 -24 -5 -22
-12z"/>
<path d="M3525 6390 c-8 -13 5 -13 25 0 13 8 13 10 -2 10 -9 0 -20 -4 -23 -10z"/>
<path d="M8905 6331 c-3 -5 -1 -12 5 -16 5 -3 10 1 10 9 0 18 -6 21 -15 7z"/>
<path d="M8915 6290 c3 -5 14 -10 23 -10 15 0 15 2 2 10 -20 13 -33 13 -25 0z"/>
<path d="M8936 6242 c-3 -5 1 -9 9 -9 8 0 12 4 9 9 -3 4 -7 8 -9 8 -2 0 -6 -4
-9 -8z"/>
<path d="M18950 6220 c0 -5 5 -10 11 -10 5 0 7 5 4 10 -3 6 -8 10 -11 10 -2 0
-4 -4 -4 -10z"/>
<path d="M5995 6140 c3 -5 8 -10 11 -10 2 0 4 5 4 10 0 6 -5 10 -11 10 -5 0
-7 -4 -4 -10z"/>
<path d="M19486 5933 c-11 -11 -6 -23 9 -23 8 0 15 4 15 9 0 13 -16 22 -24 14z"/>
<path d="M14628 5913 c-23 -6 -23 -9 5 -39 15 -16 29 -23 40 -18 20 7 21 18 7
45 -11 19 -19 21 -52 12z"/>
<path d="M1503 5860 c-27 -11 -30 -32 -8 -50 13 -11 23 -10 55 0 41 14 49 27
28 48 -14 14 -43 15 -75 2z"/>
<path d="M9356 5775 c-3 -8 -12 -15 -20 -15 -20 0 -56 -79 -52 -115 3 -29 31
-47 45 -28 3 4 23 17 43 28 20 10 34 23 32 27 -3 5 1 20 10 33 27 41 18 64
-30 79 -15 4 -24 2 -28 -9z"/>
<path d="M14291 5688 c-13 -5 -21 -16 -21 -31 0 -20 5 -24 33 -25 17 -1 42 -2
55 -3 32 -2 37 7 24 35 -11 26 -55 38 -91 24z"/>
<path d="M12260 5617 c0 -19 20 -36 36 -30 11 4 12 9 3 19 -10 12 -8 13 7 8
16 -5 16 -4 4 5 -21 15 -50 14 -50 -2z"/>
<path d="M16452 5581 c4 -13 18 -16 19 -4 0 4 -5 9 -11 12 -7 2 -11 -2 -8 -8z"/>
<path d="M14730 5565 c0 -16 16 -20 24 -6 3 5 -1 11 -9 15 -9 3 -15 0 -15 -9z"/>
<path d="M19192 5421 c-12 -7 -12 -12 0 -30 17 -27 32 -22 36 12 3 28 -10 35
-36 18z"/>
<path d="M10480 5348 c0 -16 19 -38 33 -38 4 0 7 10 5 22 -3 25 -38 39 -38 16z"/>
<path d="M17410 5141 c0 -6 5 -13 10 -16 6 -3 10 1 10 9 0 9 -4 16 -10 16 -5
0 -10 -4 -10 -9z"/>
<path d="M17226 5031 c-4 -7 -5 -15 -2 -18 9 -9 19 4 14 18 -4 11 -6 11 -12 0z"/>
<path d="M16998 4894 c-28 -15 -42 -62 -24 -86 6 -7 30 -20 53 -27 24 -8 45
-22 48 -33 4 -10 15 -18 25 -18 32 0 30 52 -4 110 -35 60 -60 74 -98 54z"/>
<path d="M15451 4799 c7 -14 14 -18 21 -11 13 13 2 32 -18 32 -12 0 -13 -4 -3
-21z"/>
<path d="M10516 4725 c4 -8 7 -15 9 -15 2 0 5 7 9 15 3 9 0 15 -9 15 -9 0 -12
-6 -9 -15z"/>
<path d="M12910 4511 c0 -6 5 -13 10 -16 6 -3 10 1 10 9 0 9 -4 16 -10 16 -5
0 -10 -4 -10 -9z"/>
<path d="M19736 4406 c7 -19 38 -22 32 -3 -3 6 -12 13 -21 15 -12 2 -15 -1
-11 -12z"/>
<path d="M5416 4345 c4 -8 13 -15 21 -15 13 0 13 3 3 15 -7 8 -16 15 -21 15
-5 0 -6 -7 -3 -15z"/>
<path d="M7995 4341 c-3 -5 -1 -12 4 -15 5 -3 11 1 15 9 6 16 -9 21 -19 6z"/>
<path d="M14787 4313 c-12 -11 -8 -23 8 -23 8 0 15 7 15 15 0 16 -12 20 -23 8z"/>
<path d="M1410 4295 c-9 -11 -9 -21 -1 -40 6 -14 13 -25 16 -25 3 0 14 0 25 0
26 0 26 30 0 58 -25 26 -24 26 -40 7z"/>
<path d="M1303 4207 c-3 -5 0 -14 6 -20 9 -9 14 -9 19 -1 9 14 60 15 68 2 4
-6 1 -14 -7 -18 -9 -6 -5 -11 14 -15 15 -4 33 -3 40 3 18 14 81 27 73 14 -13
-21 7 -41 55 -57 27 -9 53 -14 59 -10 15 9 71 -5 64 -16 -10 -17 15 -36 47
-37 38 -1 41 -4 33 -26 -5 -13 -15 -17 -36 -14 -16 3 -31 1 -34 -4 -3 -4 -25
-8 -50 -8 -25 0 -43 -4 -40 -9 4 -5 0 -11 -6 -14 -7 -2 14 -5 47 -5 33 1 59
-4 58 -9 -1 -5 10 -10 24 -11 14 -1 32 -7 39 -12 8 -8 13 -7 17 2 2 7 8 10 13
5 11 -10 -21 -41 -35 -32 -6 3 -9 11 -6 16 10 15 -12 10 -26 -7 -8 -10 -23
-14 -38 -11 -14 3 -35 1 -46 -3 -11 -5 -14 -9 -6 -9 11 -1 10 -6 -5 -22 -18
-20 -18 -21 1 -35 10 -8 26 -14 35 -14 9 0 21 -5 28 -12 14 -14 41 -19 65 -12
24 8 21 19 -9 32 -31 15 -23 32 17 32 26 0 34 9 30 33 0 4 6 7 15 7 9 0 28 7
42 16 22 12 33 13 56 5 25 -10 27 -15 21 -39 -4 -15 -8 -39 -9 -54 -2 -15 -14
-36 -27 -48 -22 -18 -23 -21 -7 -33 11 -9 33 -11 65 -8 46 6 48 7 45 34 -2 15
2 35 9 43 10 12 9 21 -6 46 -10 17 -13 28 -7 24 6 -4 8 2 5 15 -4 12 -14 24
-25 26 -20 6 -24 18 -8 28 21 13 8 21 -31 21 -30 -1 -45 4 -53 17 -8 13 -8 20
2 26 7 4 10 15 6 24 -5 14 0 17 25 17 18 0 48 -7 68 -15 19 -8 44 -15 54 -15
9 0 24 -6 31 -14 8 -7 24 -17 37 -21 30 -9 21 -31 -12 -28 -15 1 -27 -2 -27
-8 0 -6 5 -7 10 -4 6 3 10 1 10 -4 0 -6 9 -11 20 -11 11 0 20 -4 20 -9 0 -5
12 -11 28 -13 19 -2 26 -8 24 -20 -3 -21 19 -24 47 -6 15 9 23 9 35 -1 18 -15
21 -47 6 -56 -13 -8 -1 -35 16 -35 8 0 14 4 14 9 0 8 49 23 117 36 26 5 34 2
43 -15 17 -33 0 -44 -46 -31 -50 14 -114 4 -115 -18 -2 -23 2 -55 7 -60 2 -3
10 1 16 7 13 13 48 16 48 5 1 -25 17 -33 48 -22 18 6 32 16 32 22 0 6 3 7 6 4
4 -3 15 -2 25 3 14 8 23 5 41 -13 13 -13 22 -30 20 -37 -3 -9 1 -11 14 -5 11
4 33 11 50 15 18 4 37 10 43 14 7 5 10 -1 9 -16 -2 -29 6 -27 -223 -38 -5 0
-4 -4 4 -9 8 -5 11 -16 8 -24 -5 -13 6 -17 56 -21 54 -6 223 -2 297 6 28 3 43
27 28 46 -12 14 6 42 27 42 7 0 16 7 19 16 8 21 8 24 -4 24 -5 0 -9 -5 -7 -11
1 -6 -16 -17 -38 -23 -29 -8 -40 -17 -40 -31 0 -16 -7 -20 -35 -20 -19 0 -39
-5 -43 -12 -9 -15 -37 -18 -37 -4 0 5 7 11 15 15 8 3 15 14 15 26 0 11 9 25
20 32 11 7 20 18 20 25 0 7 7 13 15 13 8 0 12 -6 9 -14 -4 -10 17 -7 80 11 80
23 87 24 117 9 44 -22 68 -20 89 6 15 19 20 20 34 9 10 -9 16 -10 16 -2 0 7
20 11 51 11 28 0 60 5 71 11 17 9 20 9 15 -4 -4 -11 0 -13 13 -10 10 3 21 11
23 17 7 19 69 17 90 -2 12 -11 17 -12 15 -3 -2 7 6 18 17 24 29 18 45 34 45
47 0 7 19 9 52 7 55 -3 68 -16 48 -47 -8 -13 -13 -13 -31 -2 -17 11 -24 11
-44 -2 -14 -9 -37 -16 -52 -16 l-28 0 21 -18 c12 -9 25 -26 28 -38 3 -11 24
-30 46 -43 21 -12 42 -32 46 -44 7 -21 7 -21 15 -2 13 34 10 45 -22 75 -48 44
-27 68 52 61 8 -1 23 7 32 17 15 16 15 21 4 31 -10 8 -12 21 -8 44 8 39 34 43
35 5 1 -15 6 -32 11 -37 14 -14 115 -23 115 -11 0 6 -4 10 -10 10 -5 0 -10 7
-10 16 0 10 -6 14 -14 11 -7 -3 -31 6 -51 20 -31 21 -35 27 -22 34 8 5 26 8
39 8 12 -1 42 2 66 6 29 5 42 4 42 -4 0 -6 14 -11 31 -11 23 0 32 5 36 20 4
16 9 18 19 9 13 -11 38 -3 30 10 -8 13 10 31 35 36 22 4 22 3 7 -9 -19 -14
-14 -26 9 -26 8 0 23 -9 34 -19 28 -26 81 -33 96 -14 7 9 10 19 8 24 -3 4 3 6
12 4 10 -2 26 -4 36 -4 25 -1 21 -15 -8 -31 -17 -9 -22 -17 -15 -24 15 -15 12
-22 -14 -34 -16 -7 -27 -7 -34 0 -12 12 -32 2 -32 -17 0 -17 25 -26 38 -13 12
12 62 3 62 -11 0 -5 -9 -11 -20 -14 -25 -6 -27 -27 -2 -27 15 -1 15 -2 -2 -15
-19 -14 -11 -21 17 -16 4 1 17 -3 27 -9 14 -7 20 -7 20 0 0 5 7 10 15 10 17 0
19 18 5 40 -7 12 -12 12 -22 2 -10 -10 -10 -14 0 -21 11 -6 10 -10 -4 -15 -9
-3 -19 -4 -22 -1 -3 3 0 5 8 5 9 0 10 3 2 13 -13 15 -5 57 12 58 6 0 1 4 -11
9 -30 12 -29 26 1 32 16 3 27 0 31 -10 4 -11 9 -12 17 -4 8 8 8 15 -2 27 -11
13 -11 18 -1 24 9 6 6 10 -11 15 -22 7 -22 7 -3 16 34 15 47 12 40 -10 -5 -14
-2 -20 9 -20 9 0 16 5 16 12 0 9 3 9 12 0 7 -7 21 -12 32 -12 19 1 19 1 4 11
-28 16 -21 25 22 27 42 3 48 -5 28 -38 -16 -25 -7 -33 26 -24 25 6 27 9 21 45
-5 31 -4 39 9 39 8 0 20 9 26 20 14 27 27 25 34 -4 7 -28 -2 -58 -15 -50 -5 3
-9 1 -9 -5 0 -5 -8 -12 -17 -14 -10 -3 5 -5 32 -6 28 -1 56 -5 64 -10 17 -11
6 -32 -13 -25 -7 3 -16 -2 -19 -10 -4 -11 -1 -16 11 -16 14 -1 12 -5 -9 -23
-30 -27 -29 -53 2 -36 11 5 17 14 14 18 -2 5 3 19 13 32 36 50 44 70 32 84 -8
10 -8 15 1 20 8 6 8 9 -1 15 -9 6 -2 19 26 46 21 22 35 33 30 26 -5 -9 3 -12
28 -12 25 0 36 -4 36 -15 0 -8 -4 -16 -10 -16 -5 -1 -14 -2 -19 -3 -6 0 -16
-7 -23 -14 -10 -10 -10 -15 2 -22 10 -7 19 -5 27 6 6 8 14 14 18 13 3 -1 27 7
52 16 34 13 48 15 51 7 5 -16 27 -15 44 1 20 19 118 65 155 72 30 6 31 8 18
22 -29 28 -99 42 -165 33 -72 -10 -75 -12 -61 -37 7 -12 10 -13 11 -4 0 11 3
11 15 1 18 -15 13 -23 -15 -27 -11 -1 -23 -3 -27 -4 -27 -4 -35 1 -23 16 11
13 -8 14 -159 11 -94 -3 -176 -8 -182 -12 -7 -4 -22 -8 -33 -10 -12 -2 -32 -6
-45 -10 -20 -6 -23 -4 -18 8 4 13 -4 18 -36 23 -78 12 -260 7 -321 -9 -54 -14
-62 -14 -94 1 -41 19 -67 9 -67 -28 0 -18 -7 -25 -24 -27 -13 -2 -28 1 -34 7
-8 8 -6 11 5 11 9 0 20 5 23 10 4 7 -7 9 -30 6 -24 -3 -38 0 -41 9 -3 7 -14
11 -25 8 -16 -5 -18 -8 -7 -14 10 -7 10 -9 -3 -9 -9 0 -19 3 -22 6 -11 12 -79
14 -98 3 -11 -5 -19 -6 -19 -2 0 13 -137 15 -145 3 -4 -6 -15 -8 -26 -5 -47
15 -113 12 -133 -7 -11 -10 -16 -19 -10 -19 18 -3 39 -6 55 -8 35 -3 24 -71
-11 -71 -11 0 -36 -58 -32 -72 1 -5 -4 -8 -12 -8 -17 0 -31 34 -21 51 10 16
-25 49 -52 49 -25 0 -29 10 -11 28 8 8 3 19 -22 42 -27 26 -38 29 -66 24 -40
-7 -40 -9 -14 -49 25 -38 25 -47 0 -62 -24 -15 -46 -8 -53 17 -3 11 -20 28
-38 39 -29 18 -36 19 -48 6 -12 -11 -12 -17 -1 -29 7 -9 22 -16 33 -16 18 0
18 -2 -7 -25 -30 -28 -41 -32 -33 -11 5 11 1 11 -24 -1 -16 -8 -31 -19 -34
-24 -4 -5 -11 -7 -16 -4 -13 9 -11 55 2 55 6 0 8 7 5 16 -5 14 -4 15 9 4 22
-18 32 -4 12 17 -8 10 -19 30 -22 46 -4 15 -11 27 -16 27 -5 0 -6 6 -3 14 3 8
1 17 -5 20 -12 8 -31 -25 -31 -54 0 -11 -12 -32 -26 -45 -28 -26 -59 -34 -51
-12 3 8 -6 13 -25 14 -37 3 -58 19 -58 44 0 15 -7 19 -35 19 -19 0 -45 5 -58
11 -18 8 -30 8 -47 -1 -14 -7 -25 -8 -29 -3 -3 6 -35 13 -71 17 -77 9 -65 9
-164 6 -50 -2 -81 1 -85 8 -5 8 -60 13 -154 16 -122 3 -147 2 -147 -10 0 -19
-44 -18 -61 2 -9 11 -22 14 -45 10 -23 -5 -33 -2 -38 9 -3 8 -15 15 -26 15
-12 0 -18 5 -15 10 3 6 0 10 -8 10 -8 0 -20 6 -26 14 -9 11 -29 13 -87 9 -41
-3 -74 -2 -74 3 0 11 -110 12 -117 1z m2945 -136 c24 -15 -10 -28 -68 -27 -30
1 -66 -4 -80 -11 -14 -7 -40 -13 -58 -13 -54 0 -32 24 29 32 30 4 70 11 89 17
45 12 72 13 88 2z m466 -6 c-4 -8 -8 -15 -10 -15 -2 0 -4 7 -4 15 0 8 4 15 10
15 5 0 7 -7 4 -15z m-419 -5 c-3 -5 -11 -10 -16 -10 -6 0 -7 5 -4 10 3 6 11
10 16 10 6 0 7 -4 4 -10z m-915 -29 c0 -5 9 -11 20 -14 25 -6 26 -27 2 -27
-18 0 -62 31 -62 44 0 3 9 6 20 6 11 0 20 -4 20 -9z m156 -17 c-5 -14 -9 -15
-19 -5 -9 9 -9 14 3 21 18 11 24 6 16 -16z m818 -21 c-12 -9 -22 -9 -36 -2
-10 5 -24 7 -30 3 -7 -4 -8 -3 -4 4 4 6 25 10 46 9 34 -2 38 -4 24 -14z
m-2539 -3 c-3 -5 -10 -10 -16 -10 -5 0 -9 5 -9 10 0 6 7 10 16 10 8 0 12 -4 9
-10z m403 -39 c-14 -5 -31 15 -23 29 5 8 11 6 20 -7 9 -11 10 -19 3 -22z
m-323 20 c3 -5 1 -12 -4 -15 -12 -8 -41 3 -41 15 0 12 37 12 45 0z m843 -11
c12 -20 12 -21 -13 -4 -28 18 -31 24 -12 24 7 0 18 -9 25 -20z m692 10 c13 -7
21 -7 25 0 3 5 23 10 43 9 l37 -1 -32 -14 c-17 -7 -34 -18 -38 -24 -4 -6 -21
-8 -41 -4 -22 4 -34 2 -34 -5 0 -6 -9 -11 -20 -11 -11 0 -20 5 -20 11 0 5 5 7
10 4 6 -3 10 -1 10 5 0 13 22 39 33 40 5 0 17 -5 27 -10z m215 -10 c3 -5 -1
-10 -9 -10 -9 0 -16 5 -16 10 0 6 4 10 9 10 6 0 13 -4 16 -10z m-1350 -20 c4
-6 -6 -10 -22 -10 -22 0 -25 2 -13 10 19 12 27 12 35 0z m673 -7 c-5 -26 -38
-29 -38 -4 0 15 6 21 21 21 14 0 19 -5 17 -17z m622 7 c0 -5 -4 -10 -10 -10
-5 0 -10 5 -10 10 0 6 5 10 10 10 6 0 10 -4 10 -10z m-1029 -23 c-10 -9 -11
-8 -5 6 3 10 9 15 12 12 3 -3 0 -11 -7 -18z m729 3 c0 -5 -5 -10 -11 -10 -5 0
-7 5 -4 10 3 6 8 10 11 10 2 0 4 -4 4 -10z m-226 -16 c36 23 49 21 36 -5 -16
-28 -52 -41 -66 -23 -7 8 -16 14 -20 13 -21 -4 -26 2 -13 17 12 14 14 14 26
-1 11 -17 14 -17 37 -1z m-218 -5 c3 -6 1 -15 -6 -19 -9 -6 -6 -10 9 -15 37
-11 18 -30 -30 -29 -24 1 -50 2 -56 3 -21 2 -15 29 7 36 11 3 20 10 20 15 0 7
16 14 42 19 4 0 10 -4 14 -10z m-276 -56 c17 -22 18 -28 6 -35 -8 -4 -28 -5
-45 -2 -27 6 -30 10 -25 28 6 20 22 36 36 36 4 0 16 -12 28 -27z m130 -23 c0
-25 -4 -30 -24 -30 -33 0 -42 17 -20 41 26 28 44 24 44 -11z m-43 -55 c-4 -10
-85 -16 -101 -7 -4 2 -2 8 5 13 18 11 100 6 96 -6z"/>
<path d="M1220 4183 c0 -17 8 -16 26 1 12 13 12 15 -6 13 -11 -1 -20 -7 -20
-14z"/>
<path d="M1340 4166 c0 -9 7 -16 16 -16 9 0 14 5 12 12 -6 18 -28 21 -28 4z"/>
<path d="M9036 4162 c-3 -6 -1 -14 5 -17 15 -10 25 3 12 16 -7 7 -13 7 -17 1z"/>
<path d="M2116 4131 c-3 -4 8 -8 23 -7 16 1 27 4 24 9 -6 10 -41 9 -47 -2z"/>
<path d="M4687 4134 c-13 -13 3 -21 35 -16 28 4 30 6 13 13 -26 10 -40 11 -48
3z"/>
<path d="M2664 4096 c-3 -9 -1 -23 6 -31 9 -10 9 -15 1 -15 -6 0 -11 -5 -11
-10 0 -6 8 -5 20 2 14 9 20 21 18 37 -4 29 -25 39 -34 17z"/>
<path d="M2881 4096 l-24 -14 21 -6 c12 -4 22 -12 22 -17 0 -5 7 -9 15 -9 10
0 15 10 15 30 0 33 -12 37 -49 16z"/>
<path d="M5858 4094 c-34 -18 -35 -24 -5 -24 12 0 28 9 35 20 14 24 7 25 -30
4z"/>
<path d="M3147 4093 c-4 -3 -7 -11 -7 -17 0 -6 5 -5 12 2 6 6 9 14 7 17 -3 3
-9 2 -12 -2z"/>
<path d="M5686 4089 c-16 -4 -33 -6 -37 -3 -4 2 -10 0 -13 -4 -3 -5 -63 -8
-133 -6 -70 1 -120 0 -110 -3 9 -2 17 -8 17 -13 0 -12 -59 -30 -65 -20 -7 11
-83 1 -115 -15 -60 -30 -102 -45 -125 -45 -14 0 -25 -4 -25 -10 0 -14 39 -12
96 5 58 18 67 18 59 5 -3 -5 -15 -10 -26 -10 -10 0 -19 -5 -19 -11 0 -6 -7 -9
-15 -5 -8 3 -15 0 -15 -7 0 -8 13 -13 34 -13 19 0 32 4 29 9 -3 5 4 3 16 -5
23 -14 26 -24 11 -33 -8 -5 -7 -11 1 -21 13 -16 95 -19 104 -4 3 6 -2 10 -12
10 -21 0 -63 27 -63 39 0 5 21 11 46 14 28 3 53 13 65 26 11 11 28 21 39 21
10 0 20 6 23 13 2 8 21 11 55 10 29 -1 52 2 52 7 0 6 16 10 35 10 39 0 47 -14
14 -23 -14 -4 -20 -11 -16 -21 6 -16 -23 -32 -32 -18 -8 11 -81 14 -81 3 0 -9
53 -24 83 -24 9 0 17 -5 17 -11 0 -16 39 -48 50 -41 4 3 14 0 22 -7 17 -17 47
-16 76 0 18 10 27 11 37 2 8 -7 19 -9 25 -5 14 8 13 32 -2 37 -17 6 1 30 19
26 14 -3 22 -19 25 -55 1 -12 43 -28 64 -24 7 1 14 -6 18 -14 5 -14 9 -14 38
2 l33 17 -37 9 c-39 9 -83 46 -57 48 8 0 38 1 68 2 34 1 56 7 59 15 3 10 -10
11 -62 6 -47 -5 -66 -3 -66 5 0 7 20 11 54 11 30 0 57 4 60 9 6 9 -93 6 -126
-4 -16 -6 -19 -3 -14 12 8 26 -9 50 -26 36 -7 -6 -29 -13 -49 -17 -30 -5 -39
-2 -57 19 -24 28 -28 51 -10 57 25 9 -8 15 -36 7z m-46 -119 c0 -5 -7 -10 -15
-10 -8 0 -15 5 -15 10 0 6 7 10 15 10 8 0 15 -4 15 -10z"/>
<path d="M6524 4090 c-6 -6 -21 -13 -35 -15 -13 -3 -36 -7 -50 -10 -19 -4 -28
-1 -32 9 -8 21 -85 21 -111 1 -22 -17 -71 -21 -61 -5 6 9 -43 16 -85 12 -8 -1
-36 -3 -62 -5 -25 -2 -52 -8 -60 -14 -7 -6 -20 -13 -28 -16 -12 -4 -12 -6 1
-6 19 -1 31 -24 23 -45 -3 -9 6 -16 28 -21 54 -13 102 -10 93 5 -3 6 -1 10 4
10 6 0 11 9 11 19 0 30 17 34 42 9 l22 -22 -35 -15 -34 -14 42 -11 c59 -16 61
-23 11 -36 -98 -27 -107 -34 -92 -74 7 -17 34 -22 34 -6 0 6 6 10 14 10 7 0
20 10 29 23 12 17 18 19 28 10 10 -10 9 -14 -4 -19 -32 -12 -17 -20 35 -18 29
2 54 8 56 13 2 6 12 11 23 11 16 0 18 5 14 33 -4 25 -1 38 14 51 22 20 49 13
31 -9 -7 -9 -6 -16 5 -25 12 -10 16 -9 21 4 4 11 19 16 51 16 32 0 42 -3 37
-12 -6 -10 -4 -10 7 0 16 15 33 16 24 2 -4 -7 2 -9 19 -4 15 3 34 7 44 8 9 0
20 5 24 10 10 15 68 -13 61 -30 -7 -19 15 -14 41 9 21 18 90 23 114 9 10 -7 8
-13 -7 -26 -12 -11 -21 -13 -25 -7 -4 6 -13 8 -22 4 -10 -4 -12 -9 -4 -18 12
-15 3 -25 -22 -25 -25 0 -34 -28 -14 -43 11 -9 13 -16 6 -27 -8 -12 -12 -12
-18 -2 -6 9 -18 11 -38 6 -34 -8 -78 -50 -63 -60 6 -3 17 3 25 15 27 38 77 24
86 -24 2 -11 8 -18 13 -15 6 3 9 9 7 14 -1 4 2 14 9 22 6 7 8 17 5 23 -7 11
17 21 50 21 14 0 22 4 19 10 -3 6 -1 10 5 10 6 0 15 11 20 25 8 21 14 24 38
19 39 -8 51 12 18 28 -14 6 -26 15 -26 20 0 11 47 10 55 -1 3 -6 17 -4 33 5
46 24 72 13 37 -16 -20 -16 -19 -27 3 -32 24 -7 42 1 42 18 0 8 9 14 20 14 11
0 20 5 20 12 0 6 3 8 7 4 4 -4 6 -22 5 -41 -2 -19 2 -35 7 -35 20 0 23 23 6
60 l-18 39 -33 -14 c-27 -11 -34 -11 -34 -1 0 7 11 18 24 26 24 12 42 16 94
19 13 0 20 5 17 11 -5 8 -109 5 -135 -3 -3 -1 -7 3 -10 8 -3 6 14 11 40 13 62
4 81 12 55 22 -20 9 -20 9 0 15 12 3 26 15 32 25 10 15 8 19 -13 24 -35 9 -64
-1 -57 -20 9 -24 -60 -10 -77 17 -3 4 -30 -1 -60 -12 -54 -19 -54 -19 -76 2
-16 15 -27 18 -41 11 -10 -5 -38 -7 -63 -6 -25 2 -67 4 -94 4 -35 0 -52 5 -62
17 -13 17 -13 17 -14 1 0 -11 -8 -18 -20 -18 -22 0 -27 15 -7 23 6 3 -2 6 -18
6 -17 1 -36 -4 -41 -9z m366 -52 c0 -6 -6 -5 -15 2 -8 7 -15 14 -15 16 0 2 7
1 15 -2 8 -4 15 -11 15 -16z"/>
<path d="M5786 4064 c-5 -12 -2 -15 10 -10 8 3 18 6 20 6 3 0 2 5 -1 10 -9 15
-22 12 -29 -6z"/>
<path d="M7204 4069 c-3 -5 6 -9 20 -9 31 0 34 6 6 13 -11 3 -23 1 -26 -4z"/>
<path d="M2968 4063 c7 -3 16 -2 19 1 4 3 -2 6 -13 5 -11 0 -14 -3 -6 -6z"/>
<path d="M7340 4060 c8 -5 26 -10 40 -10 20 0 22 2 10 10 -8 5 -26 10 -40 10
-20 0 -22 -2 -10 -10z"/>
<path d="M7480 4060 c0 -5 5 -10 10 -10 6 0 10 5 10 10 0 6 -4 10 -10 10 -5 0
-10 -4 -10 -10z"/>
<path d="M7598 4063 c-10 -2 -18 -9 -18 -14 0 -10 22 -10 65 1 17 4 22 8 13 9
-9 0 -22 3 -30 5 -7 2 -21 2 -30 -1z"/>
<path d="M7810 4060 c0 -5 7 -10 15 -10 8 0 15 5 15 10 0 6 -7 10 -15 10 -8 0
-15 -4 -15 -10z"/>
<path d="M7741 4045 c-23 -12 -23 -12 9 -19 39 -7 48 -2 28 17 -12 12 -19 12
-37 2z"/>
<path d="M1490 4040 c-13 -8 -13 -10 2 -10 9 0 20 5 23 10 8 13 -5 13 -25 0z"/>
<path d="M4989 4042 c-13 -87 -3 -100 43 -57 15 14 34 25 42 25 8 0 14 8 13
18 -1 15 -10 19 -49 20 -26 0 -48 -2 -49 -6z"/>
<path d="M7267 4043 c-4 -3 -7 -11 -7 -17 0 -6 5 -5 12 2 6 6 9 14 7 17 -3 3
-9 2 -12 -2z"/>
<path d="M8055 4040 c-7 -11 -7 -11 20 -16 11 -2 32 -6 46 -10 17 -4 28 -1 31
8 4 8 -2 13 -16 13 -11 1 -33 4 -48 8 -15 4 -29 3 -33 -3z"/>
<path d="M8187 4036 c-14 -11 -15 -15 -3 -19 8 -3 16 2 19 14 3 10 4 19 4 19
-1 0 -10 -7 -20 -14z"/>
<path d="M8250 4040 c0 -5 7 -7 15 -4 8 4 15 8 15 10 0 2 -7 4 -15 4 -8 0 -15
-4 -15 -10z"/>
<path d="M630 4030 c0 -6 8 -13 18 -16 9 -3 25 -10 34 -15 10 -5 30 -9 45 -8
l28 0 -25 10 c-13 6 -27 14 -30 18 -9 14 -70 24 -70 11z"/>
<path d="M1350 4036 c0 -2 7 -9 15 -16 13 -11 14 -10 9 4 -5 14 -24 23 -24 12z"/>
<path d="M16104 4028 c-15 -24 -13 -38 6 -38 26 0 35 19 17 37 -12 12 -16 13
-23 1z"/>
<path d="M7176 4022 c-3 -5 1 -9 9 -9 8 0 12 4 9 9 -3 4 -7 8 -9 8 -2 0 -6 -4
-9 -8z"/>
<path d="M1500 3997 c0 -12 10 -28 23 -36 64 -40 71 -42 37 -12 -28 24 -32 33
-21 40 11 7 10 11 -7 20 -29 15 -32 14 -32 -12z"/>
<path d="M3156 4007 c3 -10 9 -15 12 -12 3 3 0 11 -7 18 -10 9 -11 8 -5 -6z"/>
<path d="M7387 4014 c-4 -4 -7 -20 -7 -36 0 -20 5 -28 18 -28 13 0 17 7 17 25
-2 28 -17 49 -28 39z"/>
<path d="M1290 3972 c0 -5 14 -18 30 -31 17 -12 28 -27 24 -33 -5 -8 -1 -9 10
-5 9 4 19 1 21 -6 5 -12 28 -17 90 -20 17 -1 36 -8 43 -14 18 -17 52 -16 52 1
0 13 -41 28 -85 30 -51 4 -97 20 -111 41 -18 28 -74 56 -74 37z"/>
<path d="M4805 3970 c-3 -5 1 -10 10 -10 9 0 13 5 10 10 -3 6 -8 10 -10 10 -2
0 -7 -4 -10 -10z"/>
<path d="M7272 3956 c-12 -6 -25 -18 -28 -28 -2 -9 -19 -20 -37 -24 l-32 -7
35 -8 c19 -4 42 -3 51 2 27 14 111 -1 116 -21 5 -20 40 -43 53 -35 6 4 10 17
10 29 0 13 10 31 23 39 20 14 15 15 -75 11 -62 -2 -98 0 -98 6 0 5 12 10 28
10 18 0 23 3 14 9 -8 4 -13 12 -12 17 2 13 -22 13 -48 0z"/>
<path d="M4361 3951 c-8 -6 -9 -11 -3 -15 6 -3 14 -1 17 5 9 14 2 20 -14 10z"/>
<path d="M4896 3945 c4 -8 8 -15 10 -15 2 0 4 7 4 15 0 8 -4 15 -10 15 -5 0
-7 -7 -4 -15z"/>
<path d="M4645 3929 c-11 -17 1 -21 15 -4 8 9 8 15 2 15 -6 0 -14 -5 -17 -11z"/>
<path d="M7766 3932 c-3 -5 1 -9 9 -9 8 0 12 4 9 9 -3 4 -7 8 -9 8 -2 0 -6 -4
-9 -8z"/>
<path d="M3975 3913 c-27 -9 -52 -20 -54 -25 -2 -6 -18 -25 -35 -43 -22 -24
-44 -35 -76 -40 -75 -11 -80 -14 -80 -45 0 -18 -8 -35 -22 -46 l-23 -16 25 6
c14 3 35 6 46 6 12 0 41 19 64 43 24 23 44 37 47 31 2 -7 13 -10 23 -7 16 4
18 9 9 24 -6 13 -6 19 0 19 6 0 13 10 16 23 6 24 46 47 81 47 33 0 54 10 54
26 0 17 -10 16 -75 -3z"/>
<path d="M4947 3916 c-4 -9 -14 -12 -26 -9 -11 3 -29 2 -38 -2 -17 -6 -17 -7
2 -21 12 -9 30 -12 48 -8 16 3 34 1 43 -7 11 -9 18 -9 26 -1 8 8 5 14 -12 20
-15 6 -19 11 -12 16 18 11 14 26 -7 26 -10 0 -21 -6 -24 -14z"/>
<path d="M5125 3919 c-4 -6 -13 -8 -20 -5 -7 2 -12 -2 -11 -12 1 -11 -7 -16
-24 -17 -22 0 -25 -4 -21 -30 5 -43 10 -47 33 -25 12 11 35 20 51 20 24 0 27
2 18 14 -9 11 -9 20 -2 34 14 27 -9 47 -24 21z"/>
<path d="M7687 3923 c-12 -11 -8 -23 8 -23 8 0 15 7 15 15 0 16 -12 20 -23 8z"/>
<path d="M8213 3915 c3 -7 1 -17 -5 -23 -8 -8 -4 -17 13 -31 13 -10 27 -17 31
-15 6 4 5 31 -1 65 0 4 -10 9 -22 12 -14 4 -19 2 -16 -8z"/>
<path d="M4739 3898 c-7 -14 -6 -18 5 -18 8 0 19 -7 24 -16 7 -12 14 -14 27
-7 12 7 14 13 6 17 -16 10 -14 39 2 30 7 -4 9 -3 4 2 -15 16 -58 11 -68 -8z"/>
<path d="M5058 3913 c7 -3 16 -2 19 1 4 3 -2 6 -13 5 -11 0 -14 -3 -6 -6z"/>
<path d="M6598 3875 c-3 -3 -42 -7 -86 -8 -86 -4 -127 -17 -50 -17 51 0 58 -4
51 -30 -5 -18 -7 -18 -34 -5 -20 11 -42 13 -70 9 -32 -5 -40 -4 -35 5 6 9 -2
11 -31 6 -21 -4 -44 -8 -51 -11 -20 -6 -4 -23 17 -17 12 3 20 -2 24 -16 3 -15
13 -21 31 -21 14 0 26 -4 26 -9 0 -12 -27 -22 -73 -26 -45 -5 -57 -11 -57 -31
0 -19 7 -18 42 7 17 12 33 18 37 13 3 -5 20 -19 37 -31 32 -22 32 -22 37 -2 4
16 12 20 38 17 27 -2 33 0 34 19 1 17 -5 24 -26 28 -42 10 -26 35 22 35 21 0
39 5 39 10 0 6 9 10 19 10 11 0 23 5 26 10 4 6 15 8 26 5 31 -10 99 5 99 21 0
17 -5 17 -30 4 -26 -14 -54 -2 -39 16 9 11 8 14 -3 14 -8 0 -17 -2 -20 -5z"/>
<path d="M6994 3852 c3 -6 2 -14 -4 -17 -6 -4 -10 -23 -9 -43 1 -20 -5 -54
-14 -76 -16 -36 -16 -37 -1 -25 9 8 29 15 43 16 14 1 46 5 70 9 l44 7 -24 18
c-21 16 -26 16 -41 2 -18 -16 -49 -15 -55 2 -5 17 38 57 56 52 11 -3 16 3 17
20 2 23 1 23 -16 8 -22 -20 -65 -11 -56 11 3 7 0 16 -6 20 -6 4 -8 3 -4 -4z"/>
<path d="M2146 3821 c4 -20 1 -30 -10 -34 -9 -4 -15 -1 -13 6 1 7 -9 12 -23
12 -22 0 -25 -4 -22 -34 1 -18 -3 -40 -9 -47 -15 -18 11 -29 47 -20 19 5 24
11 19 26 -6 18 -2 20 33 20 28 0 39 4 39 15 0 8 -6 15 -13 15 -10 0 -10 6 2
28 7 15 14 32 14 37 -1 6 -8 -2 -16 -17 -8 -16 -17 -28 -20 -28 -2 0 0 9 6 19
14 28 13 31 -15 31 -22 0 -24 -3 -19 -29z"/>
<path d="M4286 3817 c-20 -18 -24 -25 -14 -35 14 -14 44 -16 52 -3 3 5 -1 11
-9 15 -8 3 -12 12 -9 21 3 8 11 12 17 8 6 -3 7 -1 3 5 -9 15 -9 16 -40 -11z"/>
<path d="M4346 3831 c-8 -12 18 -21 33 -11 10 5 8 9 -4 14 -21 8 -23 8 -29 -3z"/>
<path d="M5335 3820 c18 -20 56 -24 49 -5 -3 7 3 15 13 18 10 2 -3 4 -29 3
-41 -1 -45 -3 -33 -16z"/>
<path d="M3978 3822 c12 -8 11 -59 -2 -80 -3 -6 -2 -13 4 -17 5 -3 10 -1 10 5
0 8 6 7 21 -1 16 -8 24 -8 33 1 8 9 8 14 -2 17 -9 4 -10 8 -2 18 8 10 6 15 -9
20 -12 3 -21 12 -21 20 0 7 -7 16 -16 19 -22 8 -31 7 -16 -2z"/>
<path d="M4626 3814 c-11 -8 -16 -14 -10 -14 13 0 39 18 34 24 -3 2 -14 -2
-24 -10z"/>
<path d="M5155 3820 c-3 -5 1 -10 10 -10 9 0 13 5 10 10 -3 6 -8 10 -10 10 -2
0 -7 -4 -10 -10z"/>
<path d="M5875 3817 c-17 -13 -17 -15 6 -30 13 -10 21 -17 19 -18 -62 -10 -73
-25 -37 -51 15 -11 27 -27 27 -37 0 -27 24 -71 39 -71 10 0 11 3 3 13 -7 8 -9
35 -5 71 5 46 10 60 25 64 18 4 18 5 1 17 -10 7 -21 11 -25 9 -4 -3 -10 7 -14
21 -7 29 -13 30 -39 12z"/>
<path d="M7244 3815 c-18 -14 -17 -15 19 -11 20 2 37 -1 37 -6 0 -5 5 -6 11
-2 8 4 3 12 -12 20 -31 17 -31 17 -55 -1z"/>
<path d="M4535 3811 c-3 -5 -1 -12 5 -16 16 -10 12 -25 -8 -25 -10 0 -27 -7
-38 -15 -16 -13 -16 -14 -1 -9 9 3 17 1 17 -5 0 -6 17 5 37 25 29 29 34 37 22
45 -18 11 -26 11 -34 0z"/>
<path d="M5500 3805 c-8 -9 -2 -14 21 -19 32 -6 49 -1 49 13 0 14 -60 19 -70
6z"/>
<path d="M5286 3801 c-5 -8 -2 -20 8 -29 17 -17 19 -9 7 22 -6 15 -10 16 -15
7z"/>
<path d="M5445 3801 c6 -10 -11 -24 -33 -27 -23 -4 -26 -13 -14 -39 8 -16 20
-25 35 -25 13 0 38 -7 55 -16 18 -8 36 -12 42 -9 17 11 0 25 -30 25 -38 0 -53
26 -34 61 12 24 12 28 -2 33 -22 8 -26 8 -19 -3z"/>
<path d="M7105 3800 c-3 -5 3 -10 15 -10 12 0 18 5 15 10 -3 6 -10 10 -15 10
-5 0 -12 -4 -15 -10z"/>
<path d="M4916 3792 c-3 -6 -1 -14 5 -17 15 -10 25 3 12 16 -7 7 -13 7 -17 1z"/>
<path d="M7163 3793 c9 -2 25 -2 35 0 9 3 1 5 -18 5 -19 0 -27 -2 -17 -5z"/>
<path d="M3338 3782 c-30 -4 -37 -19 -13 -28 8 -3 22 1 31 11 20 19 17 21 -18
17z"/>
<path d="M3630 3782 c0 -14 11 -21 26 -15 21 8 17 23 -6 23 -11 0 -20 -4 -20
-8z"/>
<path d="M6120 3773 c-25 -8 -52 -17 -60 -19 -29 -10 13 -24 71 -24 40 0 60 5
70 16 11 14 10 18 -6 30 -22 16 -18 17 -75 -3z"/>
<path d="M6856 3775 c-3 -8 -12 -15 -21 -15 -8 0 -15 -4 -15 -10 0 -5 9 -10
19 -10 11 0 23 -4 26 -10 11 -18 41 -11 42 10 1 11 -2 20 -7 20 -5 0 -15 7
-23 15 -13 13 -16 13 -21 0z"/>
<path d="M1690 3765 c14 -16 40 -20 40 -6 0 9 -24 21 -42 21 -6 0 -6 -6 2 -15z"/>
<path d="M5640 3772 c0 -4 9 -8 20 -9 11 -1 20 2 20 8 0 5 -9 9 -20 9 -11 0
-20 -4 -20 -8z"/>
<path d="M1800 3760 c0 -5 7 -10 15 -10 8 0 15 5 15 10 0 6 -7 10 -15 10 -8 0
-15 -4 -15 -10z"/>
<path d="M5795 3760 c3 -5 8 -10 11 -10 2 0 4 5 4 10 0 6 -5 10 -11 10 -5 0
-7 -4 -4 -10z"/>
<path d="M5190 3733 c0 -9 7 -12 25 -7 14 3 32 1 39 -5 11 -9 19 -9 35 1 12 7
21 15 21 18 0 3 -27 5 -60 6 -45 1 -60 -2 -60 -13z"/>
<path d="M6000 3730 c0 -11 4 -20 9 -20 5 0 11 9 14 20 3 13 0 20 -9 20 -8 0
-14 -9 -14 -20z"/>
<path d="M7446 3729 c-15 -12 -25 -24 -22 -26 9 -9 66 21 66 34 0 19 -14 16
-44 -8z"/>
<path d="M3605 3729 c-11 -17 1 -21 15 -4 8 9 8 15 2 15 -6 0 -14 -5 -17 -11z"/>
<path d="M7238 3729 c-25 -10 -26 -11 -10 -30 22 -25 29 -24 36 6 5 21 11 24
44 20 21 -2 45 1 53 6 19 12 -88 10 -123 -2z"/>
<path d="M2244 3702 c-8 -12 -23 -16 -55 -15 -38 2 -41 0 -24 -10 11 -6 32
-10 46 -8 25 2 47 -13 48 -34 0 -20 31 -17 31 4 0 11 7 24 16 29 18 10 10 36
-9 29 -7 -2 -19 2 -27 9 -13 11 -17 10 -26 -4z"/>
<path d="M3393 3713 c-23 -9 -14 -33 12 -33 23 0 24 2 15 20 -6 11 -12 20 -13
19 -1 0 -8 -3 -14 -6z"/>
<path d="M4248 3702 c-4 -15 0 -18 19 -16 32 3 41 13 23 24 -23 15 -37 12 -42
-8z"/>
<path d="M7106 3700 c-22 -11 -45 -20 -52 -20 -12 0 -34 -29 -34 -44 0 -12 38
-5 50 9 7 8 9 15 6 15 -4 0 -1 7 8 15 8 8 24 15 34 15 27 0 52 10 52 21 0 14
-21 10 -64 -11z"/>
<path d="M1658 3703 c6 -2 18 -2 25 0 6 3 1 5 -13 5 -14 0 -19 -2 -12 -5z"/>
<path d="M3840 3690 c0 -11 2 -20 4 -20 2 0 6 9 9 20 3 11 1 20 -4 20 -5 0 -9
-9 -9 -20z"/>
<path d="M4801 3692 c-10 -18 -9 -23 4 -28 22 -9 27 -1 17 27 l-9 23 -12 -22z"/>
<path d="M7630 3700 c20 -13 33 -13 25 0 -3 6 -14 10 -23 10 -15 0 -15 -2 -2
-10z"/>
<path d="M6041 3669 c-15 -45 -14 -51 12 -47 14 2 27 15 36 35 8 18 21 34 30
36 9 3 -3 5 -26 6 -38 1 -42 -2 -52 -30z"/>
<path d="M4980 3680 c0 -5 4 -10 9 -10 6 0 13 5 16 10 3 6 -1 10 -9 10 -9 0
-16 -4 -16 -10z"/>
<path d="M5793 3683 c-14 -3 -20 -9 -16 -19 7 -18 27 -18 43 1 7 8 16 12 21 9
5 -3 9 0 9 5 0 11 -16 12 -57 4z"/>
<path d="M6465 3680 c4 -6 11 -8 16 -5 14 9 11 15 -7 15 -8 0 -12 -5 -9 -10z"/>
<path d="M7358 3683 c-21 -5 -24 -23 -4 -23 22 0 46 11 46 21 0 9 -13 10 -42
2z"/>
<path d="M2946 3672 c-3 -5 1 -9 9 -9 8 0 12 4 9 9 -3 4 -7 8 -9 8 -2 0 -6 -4
-9 -8z"/>
<path d="M3078 3668 c16 -8 28 -8 45 0 19 9 17 11 -23 11 -40 0 -42 -2 -22
-11z"/>
<path d="M6663 3673 c-20 -8 -15 -23 7 -23 11 0 20 7 20 15 0 15 -6 17 -27 8z"/>
<path d="M2344 3656 c-16 -12 -16 -15 -4 -19 35 -12 66 -15 84 -8 17 7 17 8 2
24 -21 21 -56 22 -82 3z"/>
<path d="M6165 3650 c-10 -11 -15 -20 -11 -20 4 0 16 9 28 20 12 11 17 20 11
20 -5 0 -18 -9 -28 -20z"/>
<path d="M6940 3621 c0 -34 3 -38 20 -34 24 6 24 6 5 43 -20 40 -25 38 -25 -9z"/>
<path d="M7488 3648 c9 -9 15 -9 24 0 9 9 7 12 -12 12 -19 0 -21 -3 -12 -12z"/>
<path d="M3104 3625 c-11 -8 -14 -15 -6 -15 6 0 12 -11 12 -24 0 -14 5 -28 11
-31 16 -10 24 4 11 17 -16 16 -15 55 1 61 6 3 7 6 1 6 -5 1 -19 -6 -30 -14z"/>
<path d="M6802 3625 c2 -11 -3 -26 -12 -33 -8 -7 1 -4 22 5 25 12 31 19 20 22
-10 2 -21 8 -25 15 -5 7 -7 3 -5 -9z"/>
<path d="M3000 3622 c1 -10 26 -42 34 -42 16 0 4 38 -14 43 -11 3 -20 2 -20
-1z"/>
<path d="M7390 3620 c0 -5 5 -10 11 -10 5 0 7 5 4 10 -3 6 -8 10 -11 10 -2 0
-4 -4 -4 -10z"/>
<path d="M7290 3607 c0 -23 20 -30 51 -18 l24 10 -25 0 c-15 1 -31 6 -38 13
-9 9 -12 8 -12 -5z"/>
<path d="M6324 3596 c-3 -9 -4 -28 -1 -41 3 -19 -3 -31 -23 -48 -31 -26 -46
-67 -24 -67 7 0 11 -6 8 -13 -4 -10 7 -14 41 -15 40 0 45 2 45 21 0 15 -3 18
-8 9 -7 -10 -15 -6 -36 14 -33 34 -29 49 13 49 20 0 30 4 27 12 -3 6 0 14 7
17 9 5 9 7 0 12 -7 3 -13 11 -13 17 0 7 -7 21 -15 31 -13 17 -15 18 -21 2z"/>
<path d="M6683 3570 c12 -31 33 -36 31 -7 -1 9 2 14 7 11 11 -7 49 5 49 15 0
4 -22 9 -49 10 l-49 1 11 -30z"/>
<path d="M2722 3583 c-21 -8 5 -32 28 -26 24 6 26 19 4 27 -9 3 -16 6 -17 5
-1 0 -8 -3 -15 -6z"/>
<path d="M17517 3583 c-13 -13 -7 -31 13 -36 11 -3 20 -2 21 1 0 4 2 15 4 25
3 17 -24 25 -38 10z"/>
<path d="M5780 3569 c0 -14 25 -39 39 -39 17 0 13 37 -5 44 -23 9 -34 7 -34
-5z"/>
<path d="M7648 3574 c-5 -4 -8 -19 -8 -33 1 -23 2 -24 11 -8 11 19 9 53 -3 41z"/>
<path d="M3797 3550 c4 -16 8 -18 19 -9 16 13 10 29 -11 29 -8 0 -11 -7 -8
-20z"/>
<path d="M5892 3555 c-7 -8 -23 -15 -35 -15 -21 -1 -22 -1 -3 -15 11 -8 33
-15 49 -15 25 0 28 3 25 27 -4 31 -18 38 -36 18z"/>
<path d="M6630 3560 c0 -5 5 -10 10 -10 6 0 10 5 10 10 0 6 -4 10 -10 10 -5 0
-10 -4 -10 -10z"/>
<path d="M7180 3562 c0 -12 19 -26 26 -19 2 2 -2 10 -11 17 -9 8 -15 8 -15 2z"/>
<path d="M6463 3550 c-13 -5 -23 -12 -23 -15 0 -11 47 -4 66 10 19 14 19 14
-1 14 -11 0 -30 -4 -42 -9z"/>
<path d="M2905 3540 c3 -5 8 -10 11 -10 2 0 4 5 4 10 0 6 -5 10 -11 10 -5 0
-7 -4 -4 -10z"/>
<path d="M3410 3540 c0 -5 5 -10 11 -10 5 0 7 5 4 10 -3 6 -8 10 -11 10 -2 0
-4 -4 -4 -10z"/>
<path d="M3126 3532 c-3 -5 -3 -24 0 -44 6 -31 9 -34 35 -30 32 5 35 12 17 30
-7 7 -9 12 -5 12 4 0 3 9 -3 20 -11 20 -35 27 -44 12z"/>
<path d="M5605 3510 c-4 -6 3 -10 14 -10 25 0 27 6 6 13 -8 4 -17 2 -20 -3z"/>
<path d="M6891 3465 c-1 -24 14 -50 22 -38 3 4 -1 19 -9 33 -12 22 -13 23 -13
5z"/>
<path d="M16240 3459 c0 -5 5 -7 10 -4 6 3 10 8 10 11 0 2 -4 4 -10 4 -5 0
-10 -5 -10 -11z"/>
<path d="M2580 3456 c0 -23 23 -56 39 -56 19 0 19 1 3 30 -14 25 -42 42 -42
26z"/>
<path d="M5140 3435 c0 -16 9 -19 50 -15 32 3 38 9 20 20 -24 16 -70 12 -70
-5z"/>
<path d="M2504 3429 c-8 -14 18 -31 30 -19 9 9 0 30 -14 30 -5 0 -12 -5 -16
-11z"/>
<path d="M5538 3433 c7 -3 16 -2 19 1 4 3 -2 6 -13 5 -11 0 -14 -3 -6 -6z"/>
<path d="M7130 3432 c0 -4 10 -9 22 -9 18 -2 20 0 8 7 -18 12 -30 13 -30 2z"/>
<path d="M3420 3420 c0 -5 5 -10 10 -10 6 0 10 5 10 10 0 6 -4 10 -10 10 -5 0
-10 -4 -10 -10z"/>
<path d="M2467 3413 c-12 -12 -7 -22 8 -17 8 4 15 10 15 15 0 11 -14 12 -23 2z"/>
<path d="M3635 3410 c4 -6 11 -8 16 -5 14 9 11 15 -7 15 -8 0 -12 -5 -9 -10z"/>
<path d="M6440 3402 c0 -9 44 -32 61 -32 6 0 6 7 -1 20 -10 19 -60 29 -60 12z"/>
<path d="M3196 3382 c-3 -6 -1 -14 5 -17 15 -10 25 3 12 16 -7 7 -13 7 -17 1z"/>
<path d="M2950 3373 c1 -22 17 -30 46 -24 4 0 1 8 -6 16 -13 16 -40 21 -40 8z"/>
<path d="M7140 3369 c0 -5 5 -7 10 -4 6 3 10 8 10 11 0 2 -4 4 -10 4 -5 0 -10
-5 -10 -11z"/>
<path d="M3520 3330 c0 -6 11 -8 28 -4 39 10 40 14 4 14 -18 0 -32 -5 -32 -10z"/>
<path d="M3290 3319 c0 -5 5 -7 10 -4 6 3 10 8 10 11 0 2 -4 4 -10 4 -5 0 -10
-5 -10 -11z"/>
<path d="M2200 3310 c0 -5 5 -10 10 -10 6 0 10 5 10 10 0 6 -4 10 -10 10 -5 0
-10 -4 -10 -10z"/>
<path d="M2327 3302 c-23 -26 -21 -32 11 -32 32 1 67 24 57 39 -10 17 -50 13
-68 -7z"/>
<path d="M6602 3300 c0 -14 2 -19 5 -12 2 6 2 18 0 25 -3 6 -5 1 -5 -13z"/>
<path d="M2742 3293 c2 -12 14 -19 33 -21 l30 -4 -27 21 c-32 26 -40 26 -36 4z"/>
<path d="M2860 3300 c0 -5 7 -10 15 -10 8 0 15 5 15 10 0 6 -7 10 -15 10 -8 0
-15 -4 -15 -10z"/>
<path d="M3722 3298 c6 -18 25 -20 31 -3 5 10 0 15 -14 15 -12 0 -19 -5 -17
-12z"/>
<path d="M2475 3290 c-3 -6 1 -13 10 -16 19 -8 30 0 20 15 -8 14 -22 14 -30 1z"/>
<path d="M1775 3280 c11 -5 27 -9 35 -9 13 -1 13 0 0 9 -8 5 -24 9 -35 9 l-20
0 20 -9z"/>
<path d="M2065 3280 c3 -5 8 -10 11 -10 2 0 4 5 4 10 0 6 -5 10 -11 10 -5 0
-7 -4 -4 -10z"/>
<path d="M2108 3273 c7 -3 16 -2 19 1 4 3 -2 6 -13 5 -11 0 -14 -3 -6 -6z"/>
<path d="M2526 3256 c7 -18 29 -21 39 -6 3 6 2 10 -4 10 -5 0 -17 3 -25 6 -12
5 -15 2 -10 -10z"/>
<path d="M8175 3250 c3 -5 11 -10 16 -10 6 0 7 5 4 10 -3 6 -11 10 -16 10 -6
0 -7 -4 -4 -10z"/>
<path d="M6166 3235 c-3 -9 0 -15 9 -15 16 0 20 16 6 24 -5 3 -11 -1 -15 -9z"/>
<path d="M3148 3233 c7 -3 16 -2 19 1 4 3 -2 6 -13 5 -11 0 -14 -3 -6 -6z"/>
<path d="M2958 3212 c-15 -3 -16 -7 -6 -25 l11 -21 9 23 c10 28 9 29 -14 23z"/>
<path d="M5640 3210 c-20 -12 -5 -24 16 -12 9 5 12 12 7 15 -5 3 -15 2 -23 -3z"/>
<path d="M5985 3200 c-3 -5 -1 -10 4 -10 6 0 11 5 11 10 0 6 -2 10 -4 10 -3 0
-8 -4 -11 -10z"/>
<path d="M14400 3020 c0 -5 5 -10 10 -10 6 0 10 5 10 10 0 6 -4 10 -10 10 -5
0 -10 -4 -10 -10z"/>
<path d="M4656 2991 c-4 -7 -5 -15 -2 -18 9 -9 19 4 14 18 -4 11 -6 11 -12 0z"/>
<path d="M13995 2950 c3 -5 8 -10 11 -10 2 0 4 5 4 10 0 6 -5 10 -11 10 -5 0
-7 -4 -4 -10z"/>
<path d="M2705 2920 c-11 -17 5 -32 21 -19 7 6 11 15 8 20 -7 12 -21 11 -29
-1z"/>
<path d="M4860 2770 c0 -5 5 -10 11 -10 5 0 7 5 4 10 -3 6 -8 10 -11 10 -2 0
-4 -4 -4 -10z"/>
<path d="M1003 2622 c-3 -9 -8 -20 -10 -24 -2 -5 10 -8 26 -8 24 0 31 4 31 19
0 25 -39 35 -47 13z"/>
<path d="M14480 2554 c0 -9 7 -14 17 -12 25 5 28 28 4 28 -12 0 -21 -6 -21
-16z"/>
<path d="M2687 2343 c-4 -3 -7 -12 -7 -20 0 -16 46 -18 56 -2 11 19 -33 39
-49 22z"/>
<path d="M16580 2309 c0 -5 5 -7 10 -4 6 3 10 8 10 11 0 2 -4 4 -10 4 -5 0
-10 -5 -10 -11z"/>
<path d="M14060 2260 c0 -5 5 -10 10 -10 6 0 10 5 10 10 0 6 -4 10 -10 10 -5
0 -10 -4 -10 -10z"/>
<path d="M17436 2145 c4 -8 10 -12 15 -9 14 8 10 24 -6 24 -9 0 -12 -6 -9 -15z"/>
<path d="M18525 2140 c3 -5 1 -10 -5 -10 -6 0 -8 -5 -5 -10 3 -6 -1 -13 -9
-16 -9 -3 -16 -11 -16 -16 0 -6 -7 -16 -15 -22 -9 -7 -15 -35 -17 -86 l-3 -75
55 0 c51 -1 57 2 95 41 35 37 39 47 35 78 -3 20 -13 45 -22 56 -17 19 -15 24
5 21 20 -4 -9 22 -39 35 -39 16 -68 18 -59 4z"/>
<path d="M8987 2126 c-6 -15 1 -26 15 -26 4 0 8 9 8 20 0 23 -15 27 -23 6z"/>
<path d="M12247 1924 c-13 -13 -7 -44 8 -44 8 0 15 7 15 15 0 8 0 18 1 22 1
10 -16 15 -24 7z"/>
<path d="M18595 1890 c-3 -5 -1 -10 4 -10 6 0 11 5 11 10 0 6 -2 10 -4 10 -3
0 -8 -4 -11 -10z"/>
<path d="M13094 1838 c-9 -15 27 -41 40 -28 6 6 5 15 -4 25 -15 18 -26 19 -36
3z"/>
<path d="M951 1803 c0 -4 4 -16 8 -26 6 -17 8 -17 20 -4 10 13 9 17 -8 27 -12
6 -21 7 -20 3z"/>
<path d="M3590 1770 c-12 -7 -8 -15 22 -45 30 -31 36 -33 42 -19 4 10 3 20 -2
23 -5 3 -14 16 -21 29 -13 24 -19 26 -41 12z"/>
<path d="M10352 1720 c0 -14 2 -19 5 -12 2 6 2 18 0 25 -3 6 -5 1 -5 -13z"/>
<path d="M10457 1724 c-3 -3 -3 -12 0 -20 4 -11 9 -12 19 -3 8 6 11 15 8 20
-6 10 -18 12 -27 3z"/>
<path d="M303 1696 c-13 -6 -23 -18 -23 -28 0 -14 9 -17 50 -15 53 2 70 18 46
43 -17 16 -41 16 -73 0z"/>
<path d="M3787 1664 c-11 -11 3 -24 18 -17 22 8 19 -32 -4 -54 -43 -42 -45
-95 -5 -141 26 -31 30 -28 31 21 2 30 8 47 25 60 18 15 20 22 10 37 -7 12 -8
21 -2 25 18 11 10 43 -15 59 -25 17 -47 20 -58 10z"/>
<path d="M11180 1550 c-15 -28 -9 -64 12 -68 24 -5 34 41 15 68 l-15 22 -12
-22z"/>
<path d="M14226 1511 c-3 -5 1 -11 9 -15 9 -3 15 0 15 9 0 16 -16 20 -24 6z"/>
<path d="M7510 1451 c0 -5 -9 -13 -21 -16 -17 -6 -19 -12 -14 -33 4 -15 11
-33 17 -39 13 -16 48 -17 48 -2 0 8 5 8 15 -1 14 -11 19 -7 16 13 -1 7 15 11
32 8 5 -1 6 3 3 8 -4 5 -2 12 4 16 21 13 8 25 -42 40 -61 18 -58 17 -58 6z"/>
<path d="M325 1430 c-7 -22 10 -50 30 -50 6 0 17 12 24 27 10 21 9 28 -1 34
-23 15 -46 10 -53 -11z"/>
<path d="M18110 1395 c-11 -13 -10 -14 4 -9 9 3 16 10 16 15 0 13 -6 11 -20
-6z"/>
<path d="M8512 1388 c3 -7 13 -15 22 -16 12 -3 17 1 14 10 -3 7 -13 15 -22 16
-12 3 -17 -1 -14 -10z"/>
<path d="M5550 1280 c0 -6 7 -13 15 -16 8 -4 12 -10 9 -15 -3 -5 -9 -7 -14 -4
-5 3 -12 -11 -16 -31 -4 -22 -2 -39 4 -43 5 -3 14 -22 19 -41 7 -28 14 -35 34
-35 13 0 30 -6 37 -13 11 -10 19 -8 44 9 27 19 29 25 23 58 -4 20 -10 38 -14
41 -4 3 -10 13 -14 23 -4 9 -15 20 -24 24 -10 3 -27 14 -38 23 -26 23 -65 35
-65 20z"/>
<path d="M40 1256 c0 -2 7 -7 16 -10 8 -3 12 -2 9 4 -6 10 -25 14 -25 6z"/>
<path d="M10935 1200 c-3 -5 -1 -10 4 -10 6 0 11 5 11 10 0 6 -2 10 -4 10 -3
0 -8 -4 -11 -10z"/>
<path d="M6683 1173 c-18 -7 -16 -43 1 -43 13 0 26 20 26 41 0 10 -8 10 -27 2z"/>
<path d="M10440 1025 c0 -8 5 -15 10 -15 6 0 10 7 10 15 0 8 -4 15 -10 15 -5
0 -10 -7 -10 -15z"/>
<path d="M7620 949 c-34 -12 -61 -60 -47 -84 7 -12 6 -16 -1 -11 -6 4 -16 -3
-22 -15 -8 -15 -9 -19 -1 -15 6 4 11 3 11 -2 0 -6 6 -9 13 -8 6 0 12 -3 12 -9
0 -5 -6 -9 -12 -7 -7 2 -13 -6 -13 -16 0 -10 6 -19 13 -20 6 0 24 -3 38 -6 21
-5 28 -1 39 22 8 15 15 44 16 64 0 20 8 44 18 53 15 15 15 18 -2 40 -19 27
-25 28 -62 14z"/>
<path d="M275 920 c4 -6 11 -8 16 -5 14 9 11 15 -7 15 -8 0 -12 -5 -9 -10z"/>
<path d="M14490 890 c0 -5 5 -10 10 -10 6 0 10 5 10 10 0 6 -4 10 -10 10 -5 0
-10 -4 -10 -10z"/>
<path d="M105 880 c3 -5 12 -10 20 -10 8 0 17 5 20 10 4 6 -5 10 -20 10 -15 0
-24 -4 -20 -10z"/>
<path d="M43 848 c3 -17 18 -28 37 -27 10 0 8 3 -5 9 -11 5 -14 9 -7 9 20 1
13 21 -8 21 -11 0 -19 -6 -17 -12z"/>
<path d="M184 844 c-18 -14 -18 -15 4 -4 12 6 22 13 22 15 0 8 -5 6 -26 -11z"/>
<path d="M235 852 c-11 -12 -4 -17 25 -18 18 -1 30 4 30 11 0 12 -44 18 -55 7z"/>
<path d="M15235 839 c-4 -6 -4 -13 -1 -16 3 -3 1 -13 -4 -23 -15 -28 10 -53
40 -42 24 9 27 22 21 85 -1 11 -49 8 -56 -4z"/>
<path d="M107 833 c-10 -9 -9 -23 1 -23 5 0 9 7 9 15 0 17 -1 18 -10 8z"/>
<path d="M18780 830 c0 -5 7 -10 15 -10 8 0 15 5 15 10 0 6 -7 10 -15 10 -8 0
-15 -4 -15 -10z"/>
<path d="M10010 811 c0 -6 7 -11 16 -11 8 0 12 -4 9 -10 -3 -5 0 -10 8 -10 7
0 14 7 14 15 0 8 -4 15 -8 15 -4 0 -14 3 -23 6 -9 3 -16 1 -16 -5z"/>
<path d="M9975 790 c3 -5 8 -10 11 -10 2 0 4 5 4 10 0 6 -5 10 -11 10 -5 0 -7
-4 -4 -10z"/>
<path d="M420 782 c0 -6 -7 -9 -15 -6 -11 5 -13 2 -9 -10 3 -9 10 -16 15 -16
12 0 24 29 15 37 -3 4 -6 1 -6 -5z"/>
<path d="M8695 770 c-10 -11 -19 -28 -21 -38 -4 -33 -16 -62 -26 -62 -5 0 -8
-5 -6 -12 3 -7 -6 -23 -19 -36 -13 -13 -22 -26 -19 -29 2 -3 14 5 26 17 16 16
28 20 51 15 24 -5 28 -4 23 9 -3 9 -1 16 5 16 6 0 11 -4 11 -8 0 -5 11 -14 25
-20 35 -16 43 -15 19 3 -15 11 -16 14 -3 15 23 0 22 67 -1 80 -10 6 -20 22
-22 37 -4 34 -20 39 -43 13z"/>
<path d="M7990 741 c0 -6 5 -13 10 -16 6 -3 10 1 10 9 0 9 -4 16 -10 16 -5 0
-10 -4 -10 -9z"/>
<path d="M2266 718 c3 -4 14 -8 25 -8 11 0 18 4 14 9 -3 6 -14 9 -25 8 -10 -1
-16 -5 -14 -9z"/>
<path d="M7620 720 c0 -5 5 -10 11 -10 5 0 7 5 4 10 -3 6 -8 10 -11 10 -2 0
-4 -4 -4 -10z"/>
<path d="M2109 699 c-10 -6 -10 -9 -1 -9 9 0 8 -7 -4 -26 -13 -19 -14 -28 -5
-37 10 -9 11 -8 6 4 -4 12 3 20 28 30 l35 14 -22 17 c-15 11 -27 13 -37 7z"/>
<path d="M203 683 c-16 -6 -36 -14 -47 -17 -15 -5 -16 -9 -6 -21 7 -8 20 -15
29 -14 12 0 12 2 -3 8 -19 7 -19 8 -1 14 10 4 26 5 37 1 12 -3 18 -1 16 7 -2
7 6 15 17 17 11 2 23 7 27 10 12 12 -40 8 -69 -5z"/>
<path d="M1451 644 l-31 -26 30 -31 c16 -17 30 -41 30 -53 0 -23 25 -40 35
-24 4 6 1 10 -6 10 -8 0 -8 4 1 15 9 11 10 18 1 29 -14 16 -17 54 -7 84 10 31
-14 29 -53 -4z"/>
<path d="M238 633 c7 -3 16 -2 19 1 4 3 -2 6 -13 5 -11 0 -14 -3 -6 -6z"/>
<path d="M2804 608 c-9 -18 -25 -44 -35 -57 -25 -31 -25 -61 0 -61 46 0 102
91 80 131 -14 27 -26 24 -45 -13z"/>
<path d="M19569 629 c-7 -35 -6 -39 12 -39 10 0 19 4 19 9 0 8 -29 37 -31 30z"/>
<path d="M19745 620 c-3 -5 -1 -10 4 -10 6 0 11 5 11 10 0 6 -2 10 -4 10 -3 0
-8 -4 -11 -10z"/>
<path d="M1288 613 c7 -3 16 -2 19 1 4 3 -2 6 -13 5 -11 0 -14 -3 -6 -6z"/>
<path d="M16775 611 c-3 -5 2 -17 11 -25 19 -19 21 -20 27 -3 6 16 -29 41 -38
28z"/>
<path d="M19325 600 c-3 -5 0 -10 7 -10 9 0 9 -3 -2 -10 -13 -9 -13 -10 0 -10
23 0 43 17 36 29 -9 14 -33 14 -41 1z"/>
<path d="M6744 573 c-10 -10 -21 -18 -25 -18 -4 0 -11 -3 -15 -7 -4 -5 2 -8
14 -8 11 0 27 9 35 20 8 11 17 17 22 12 5 -4 5 -1 1 6 -9 16 -11 15 -32 -5z"/>
<path d="M9032 574 c-11 -20 -4 -54 12 -54 6 0 21 3 32 6 19 5 20 9 11 35 -13
32 -41 39 -55 13z"/>
<path d="M378 573 c7 -3 16 -2 19 1 4 3 -2 6 -13 5 -11 0 -14 -3 -6 -6z"/>
<path d="M19467 565 c-4 -8 -3 -16 1 -19 4 -3 9 4 9 15 2 23 -3 25 -10 4z"/>
<path d="M2379 556 c6 -7 8 -16 4 -19 -3 -4 1 -7 10 -7 26 0 27 15 0 27 -20
10 -22 9 -14 -1z"/>
<path d="M2158 533 c-24 -6 -23 -20 2 -28 24 -8 40 1 40 21 0 14 -10 16 -42 7z"/>
<path d="M8810 531 c0 -6 5 -13 10 -16 6 -3 10 1 10 9 0 9 -4 16 -10 16 -5 0
-10 -4 -10 -9z"/>
<path d="M2450 523 c0 -5 -10 -15 -22 -21 -13 -6 -18 -11 -12 -11 16 -1 50 27
41 35 -4 4 -7 3 -7 -3z"/>
<path d="M15431 501 c-14 -26 -14 -27 8 -28 24 -2 34 22 16 37 -11 9 -16 7
-24 -9z"/>
<path d="M16675 500 c-3 -5 1 -10 9 -10 9 0 16 5 16 10 0 6 -4 10 -9 10 -6 0
-13 -4 -16 -10z"/>
<path d="M19690 490 c0 -8 -8 -10 -21 -7 -13 3 -19 1 -16 -6 3 -7 10 -11 16
-9 7 1 10 -2 7 -7 -4 -5 -2 -12 4 -16 6 -4 7 -11 4 -17 -4 -6 -2 -8 4 -4 5 3
12 0 15 -6 3 -10 10 -10 31 2 15 8 23 16 17 18 -5 2 -7 11 -4 20 6 15 4 15
-15 -1 -20 -18 -48 -15 -36 4 3 5 10 7 15 4 14 -9 11 5 -6 21 -10 10 -15 11
-15 4z"/>
<path d="M1798 473 c7 -3 16 -2 19 1 4 3 -2 6 -13 5 -11 0 -14 -3 -6 -6z"/>
<path d="M7065 469 c-11 -17 0 -20 21 -4 17 13 17 14 2 15 -9 0 -20 -5 -23
-11z"/>
<path d="M18660 470 c0 -5 7 -10 15 -10 8 0 15 5 15 10 0 6 -7 10 -15 10 -8 0
-15 -4 -15 -10z"/>
<path d="M18935 470 c-8 -13 -1 -24 14 -19 6 3 7 10 2 18 -6 10 -10 10 -16 1z"/>
<path d="M1130 455 c-7 -9 -11 -18 -8 -20 3 -3 11 1 18 10 7 9 11 18 8 20 -3
3 -11 -1 -18 -10z"/>
<path d="M16820 454 c0 -8 5 -12 10 -9 6 4 8 11 5 16 -9 14 -15 11 -15 -7z"/>
<path d="M2851 441 c-24 -21 -20 -46 6 -37 11 4 13 2 9 -9 -3 -9 3 -19 16 -26
43 -23 61 47 20 79 -21 16 -25 15 -51 -7z"/>
<path d="M12390 451 c0 -6 5 -13 10 -16 6 -3 10 1 10 9 0 9 -4 16 -10 16 -5 0
-10 -4 -10 -9z"/>
<path d="M8575 440 c-3 -5 -1 -10 4 -10 6 0 11 5 11 10 0 6 -2 10 -4 10 -3 0
-8 -4 -11 -10z"/>
<path d="M6590 426 c0 -9 5 -16 10 -16 6 0 10 4 10 9 0 6 -4 13 -10 16 -5 3
-10 -1 -10 -9z"/>
<path d="M16743 420 c-1 -11 2 -22 6 -25 5 -2 9 7 9 20 0 30 -13 34 -15 5z"/>
<path d="M19190 425 c7 -9 15 -13 17 -11 7 7 -7 26 -19 26 -6 0 -6 -6 2 -15z"/>
<path d="M12035 421 c-3 -5 -1 -12 5 -16 5 -3 10 1 10 9 0 18 -6 21 -15 7z"/>
<path d="M18901 414 c0 -11 3 -14 6 -6 3 7 2 16 -1 19 -3 4 -6 -2 -5 -13z"/>
<path d="M19297 410 c-3 -11 -1 -20 4 -20 5 0 9 9 9 20 0 11 -2 20 -4 20 -2 0
-6 -9 -9 -20z"/>
<path d="M11980 405 c-14 -16 -10 -18 14 -9 9 3 16 10 16 15 0 14 -16 11 -30
-6z"/>
<path d="M18745 403 c-16 -13 -17 -15 -2 -10 10 4 17 1 17 -5 0 -9 3 -9 12 0
20 20 -4 33 -27 15z"/>
<path d="M19630 411 c0 -5 -3 -16 -6 -25 -4 -11 -1 -16 10 -16 14 0 15 -4 6
-21 -11 -19 -10 -20 9 -9 22 11 28 30 10 30 -6 0 -9 6 -6 13 2 6 -2 18 -9 25
-8 7 -14 8 -14 3z"/>
<path d="M9308 393 c-24 -6 -23 -23 2 -23 11 0 20 7 20 15 0 8 -1 14 -2 14 -2
-1 -11 -3 -20 -6z"/>
<path d="M18675 390 c3 -5 14 -10 23 -10 13 0 13 -2 -4 -15 -16 -12 -17 -14
-3 -15 18 0 33 26 23 41 -3 5 -14 9 -25 9 -11 0 -17 -4 -14 -10z"/>
<path d="M19042 384 c-7 -8 -8 -14 -3 -14 10 0 25 19 20 25 -2 1 -10 -3 -17
-11z"/>
<path d="M18210 382 c0 -6 -9 -14 -21 -17 -34 -11 -19 -40 22 -40 34 0 35 1
29 29 -5 28 -30 50 -30 28z"/>
<path d="M19257 370 c-3 -11 -1 -20 4 -20 5 0 9 9 9 20 0 11 -2 20 -4 20 -2 0
-6 -9 -9 -20z"/>
<path d="M18937 364 c3 -8 14 -19 24 -24 14 -8 21 -6 29 10 9 16 8 20 -7 21
-10 0 -26 2 -35 4 -11 2 -15 -2 -11 -11z"/>
<path d="M19386 345 c4 -8 11 -15 16 -15 6 0 5 6 -2 15 -7 8 -14 15 -16 15 -2
0 -1 -7 2 -15z"/>
<path d="M18539 338 c-1 -7 -1 -16 0 -20 0 -5 -6 -8 -14 -8 -9 0 -15 -9 -15
-25 0 -15 6 -25 14 -25 21 0 34 23 26 45 -4 11 -5 26 -3 33 3 6 2 12 -1 12 -3
0 -7 -6 -7 -12z"/>
<path d="M19060 335 c0 -8 2 -15 4 -15 2 0 6 7 10 15 3 8 1 15 -4 15 -6 0 -10
-7 -10 -15z"/>
<path d="M19710 340 c0 -5 5 -10 11 -10 5 0 7 -4 4 -10 -3 -5 -2 -10 3 -10 14
0 33 26 25 33 -10 11 -43 8 -43 -3z"/>
<path d="M8070 331 c0 -6 5 -13 10 -16 6 -3 10 1 10 9 0 9 -4 16 -10 16 -5 0
-10 -4 -10 -9z"/>
<path d="M18970 310 c0 -6 -11 -21 -24 -33 -23 -22 -23 -23 -4 -24 11 -1 31
-13 45 -27 32 -33 43 -33 43 0 0 14 -4 23 -10 19 -12 -7 -31 35 -22 49 3 5 -3
6 -13 2 -15 -5 -16 -4 -5 9 8 10 9 15 1 15 -6 0 -11 -5 -11 -10z m0 -40 c0 -5
-5 -10 -11 -10 -5 0 -7 5 -4 10 3 6 8 10 11 10 2 0 4 -4 4 -10z"/>
<path d="M15247 302 c-16 -3 -18 -12 -15 -50 4 -56 24 -70 51 -36 29 38 5 96
-36 86z"/>
<path d="M19080 302 c0 -4 8 -12 18 -18 15 -10 18 -8 18 7 0 12 -7 19 -18 19
-10 0 -18 -3 -18 -8z"/>
<path d="M18595 290 c3 -5 8 -10 11 -10 2 0 4 5 4 10 0 6 -5 10 -11 10 -5 0
-7 -4 -4 -10z"/>
<path d="M8752 269 c-7 -11 -11 -23 -9 -25 7 -7 29 24 25 36 -2 6 -9 1 -16
-11z"/>
<path d="M18417 266 c-3 -8 1 -20 9 -26 11 -10 14 -9 14 8 0 25 -16 37 -23 18z"/>
<path d="M18584 265 c3 -8 1 -15 -4 -15 -15 0 -12 -37 3 -43 9 -4 8 -8 -3 -16
-13 -10 -13 -12 0 -20 16 -11 44 5 35 20 -3 4 4 13 15 19 13 7 20 7 20 0 0 -5
5 -10 11 -10 8 0 8 5 -1 15 -7 8 -16 13 -20 10 -16 -10 -42 8 -37 26 3 10 -2
20 -10 23 -11 4 -13 2 -9 -9z"/>
<path d="M2086 261 c-4 -7 -5 -15 -2 -18 9 -9 19 4 14 18 -4 11 -6 11 -12 0z"/>
<path d="M13945 260 c-3 -5 0 -10 9 -10 8 0 17 -6 19 -12 3 -7 6 -3 6 10 1 22
-22 31 -34 12z"/>
<path d="M18475 260 c-3 -5 -1 -10 4 -10 6 0 11 5 11 10 0 6 -2 10 -4 10 -3 0
-8 -4 -11 -10z"/>
<path d="M18546 261 c-4 -5 -2 -12 3 -15 5 -4 12 -2 15 3 4 5 2 12 -3 15 -5 4
-12 2 -15 -3z"/>
<path d="M19732 248 c-23 -14 -30 -24 -23 -31 7 -7 16 -6 28 6 10 8 31 14 46
13 15 -2 27 1 27 5 0 5 -7 9 -15 9 -8 0 -15 5 -15 10 0 15 -11 12 -48 -12z"/>
<path d="M1600 250 c0 -5 7 -10 15 -10 8 0 15 5 15 10 0 6 -7 10 -15 10 -8 0
-15 -4 -15 -10z"/>
<path d="M19251 246 c-9 -11 -8 -15 5 -20 22 -8 26 -8 19 4 -3 6 1 7 9 4 9 -3
16 -2 16 4 0 5 -7 13 -16 16 -21 8 -20 8 -33 -8z"/>
<path d="M6860 246 c0 -2 7 -7 16 -10 8 -3 12 -2 9 4 -6 10 -25 14 -25 6z"/>
<path d="M9816 231 c-4 -7 -5 -15 -2 -18 9 -9 19 4 14 18 -4 11 -6 11 -12 0z"/>
<path d="M10860 229 c0 -5 5 -7 10 -4 6 3 10 8 10 11 0 2 -4 4 -10 4 -5 0 -10
-5 -10 -11z"/>
<path d="M18755 220 c-3 -5 1 -10 10 -10 9 0 13 5 10 10 -3 6 -8 10 -10 10 -2
0 -7 -4 -10 -10z"/>
<path d="M20054 208 c3 -15 26 -23 26 -8 0 6 -4 9 -9 6 -5 -4 -12 -1 -14 4 -3
6 -4 5 -3 -2z"/>
<path d="M18390 199 c0 -5 5 -7 10 -4 6 3 10 8 10 11 0 2 -4 4 -10 4 -5 0 -10
-5 -10 -11z"/>
<path d="M2422 180 c-14 -23 -15 -30 -4 -30 5 0 14 11 20 25 14 30 2 34 -16 5z"/>
<path d="M18690 190 c0 -6 5 -10 10 -10 15 0 12 -19 -5 -37 -8 -8 -13 -19 -10
-24 7 -11 25 -12 24 -1 -5 29 1 34 25 19 22 -15 23 -14 22 5 -1 21 -66 68 -66
48z m58 -38 c2 -7 -2 -10 -12 -6 -9 3 -16 11 -16 16 0 13 23 5 28 -10z"/>
<path d="M8040 186 c0 -2 7 -7 16 -10 8 -3 12 -2 9 4 -6 10 -25 14 -25 6z"/>
<path d="M19300 181 c0 -5 11 -11 24 -13 17 -4 23 -1 19 9 -6 14 -43 18 -43 4z"/>
<path d="M8685 170 c-3 -5 -1 -10 4 -10 6 0 11 5 11 10 0 6 -2 10 -4 10 -3 0
-8 -4 -11 -10z"/>
<path d="M13779 164 c-12 -14 -11 -16 5 -13 11 2 21 10 24 17 5 17 -13 15 -29
-4z"/>
<path d="M19840 170 c0 -6 7 -10 15 -10 8 0 15 2 15 4 0 2 -7 6 -15 10 -8 3
-15 1 -15 -4z"/>
<path d="M2496 162 c-3 -5 1 -9 9 -9 8 0 12 4 9 9 -3 4 -7 8 -9 8 -2 0 -6 -4
-9 -8z"/>
<path d="M4130 150 c0 -5 5 -10 10 -10 6 0 10 5 10 10 0 6 -4 10 -10 10 -5 0
-10 -4 -10 -10z"/>
<path d="M6960 150 c0 -12 8 -12 35 0 18 8 17 9 -7 9 -16 1 -28 -3 -28 -9z"/>
<path d="M19441 151 c-8 -5 -9 -11 -3 -15 5 -3 12 1 16 9 6 17 6 18 -13 6z"/>
<path d="M8630 140 c-8 -5 -11 -12 -7 -16 4 -4 13 -2 19 4 15 15 7 24 -12 12z"/>
<path d="M19715 141 c-6 -11 32 -41 52 -41 25 0 12 19 -17 25 -17 4 -28 11
-24 16 3 5 3 9 0 9 -3 0 -7 -4 -11 -9z"/>
<path d="M18067 133 c-4 -3 -7 -11 -7 -17 0 -6 5 -5 12 2 6 6 9 14 7 17 -3 3
-9 2 -12 -2z"/>
<path d="M18875 130 c3 -5 1 -10 -6 -10 -7 0 -10 -2 -7 -5 3 -3 20 -2 38 2 29
5 31 7 15 14 -29 11 -47 11 -40 -1z"/>
<path d="M8821 114 c0 -11 3 -14 6 -6 3 7 2 16 -1 19 -3 4 -6 -2 -5 -13z"/>
<path d="M12015 120 c-3 -5 -1 -10 4 -10 6 0 11 5 11 10 0 6 -2 10 -4 10 -3 0
-8 -4 -11 -10z"/>
<path d="M8870 110 c0 -5 5 -10 10 -10 6 0 10 5 10 10 0 6 -4 10 -10 10 -5 0
-10 -4 -10 -10z"/>
<path d="M8960 106 c0 -8 7 -16 15 -20 17 -6 18 -4 9 18 -8 20 -24 21 -24 2z"/>
<path d="M18780 108 c0 -9 7 -19 16 -22 15 -6 15 -4 3 11 -7 10 -15 20 -16 22
-2 2 -3 -3 -3 -11z"/>
<path d="M19114 104 c-18 -14 -18 -15 4 -4 12 6 22 13 22 15 0 8 -5 6 -26 -11z"/>
<path d="M9633 89 c-49 -24 -59 -42 -36 -69 22 -25 24 -25 59 5 16 14 33 25
37 25 16 0 39 31 33 45 -8 21 -44 19 -93 -6z"/>
<path d="M10888 103 c7 -3 16 -2 19 1 4 3 -2 6 -13 5 -11 0 -14 -3 -6 -6z"/>
<path d="M18603 98 c-2 -5 0 -8 5 -8 4 0 16 -15 26 -32 9 -18 14 -25 12 -16
-4 13 2 20 19 24 27 7 32 18 13 31 -16 10 -68 10 -75 1z"/>
<path d="M8050 85 c0 -8 4 -15 10 -15 5 0 7 7 4 15 -4 8 -8 15 -10 15 -2 0 -4
-7 -4 -15z"/>
<path d="M17930 87 c-26 -12 -42 -28 -35 -35 2 -3 11 3 20 12 19 18 40 22 29
4 -4 -7 -3 -8 5 -4 6 4 9 12 5 17 -4 7 8 8 33 5 29 -4 32 -4 13 3 -33 12 -41
12 -70 -2z"/>
<path d="M18047 86 c-17 -13 -16 -14 2 -19 13 -3 21 1 24 14 6 22 -1 24 -26 5z"/>
<path d="M19224 88 c-4 -7 -3 -8 4 -4 7 4 12 2 12 -3 0 -6 3 -10 8 -10 22 4
42 -2 40 -12 -2 -6 3 -14 10 -16 8 -3 10 1 6 11 -3 9 -1 16 5 16 6 0 11 4 11
10 0 5 -10 8 -22 6 -13 -2 -33 0 -45 5 -14 5 -25 4 -29 -3z"/>
<path d="M1219 63 c-13 -16 -12 -17 4 -4 16 13 21 21 13 21 -2 0 -10 -8 -17
-17z"/>
<path d="M2177 69 c-9 -6 -15 -14 -12 -20 4 -5 13 -2 22 6 19 20 14 27 -10 14z"/>
<path d="M2220 65 c-14 -16 -3 -20 19 -6 8 5 9 11 3 15 -5 3 -15 -1 -22 -9z"/>
<path d="M17820 69 c0 -5 5 -7 10 -4 6 3 10 8 10 11 0 2 -4 4 -10 4 -5 0 -10
-5 -10 -11z"/>
<path d="M19505 70 c11 -5 27 -9 35 -9 9 0 8 4 -5 9 -11 5 -27 9 -35 9 -9 0
-8 -4 5 -9z"/>
<path d="M19731 71 c-10 -7 -8 -10 8 -16 27 -8 36 -2 18 13 -7 6 -18 7 -26 3z"/>
<path d="M7007 59 c-9 -6 -29 -11 -44 -12 -32 -3 -44 -27 -14 -27 12 0 21 5
21 10 0 6 5 10 10 10 6 0 10 -9 10 -21 0 -12 4 -17 11 -14 6 4 8 10 5 13 -4 3
1 16 9 29 17 26 17 26 -8 12z"/>
<path d="M19158 63 c7 -3 16 -2 19 1 4 3 -2 6 -13 5 -11 0 -14 -3 -6 -6z"/>
<path d="M4770 51 c0 -5 -8 -12 -17 -14 -11 -3 -8 -5 9 -6 20 -1 26 3 22 14
-7 17 -14 20 -14 6z"/>
<path d="M17860 40 c0 -6 7 -10 15 -10 8 0 15 2 15 4 0 2 -7 6 -15 10 -8 3
-15 1 -15 -4z"/>
<path d="M19695 40 c-3 -5 -1 -10 4 -10 6 0 11 5 11 10 0 6 -2 10 -4 10 -3 0
-8 -4 -11 -10z"/>
<path d="M9752 20 c8 -12 23 -20 38 -20 l25 0 -25 20 c-34 27 -54 27 -38 0z"/>
<path d="M17832 26 c7 -8 15 -12 17 -11 5 6 -10 25 -20 25 -5 0 -4 -6 3 -14z"/>
<path d="M6890 15 c0 -8 4 -15 10 -15 5 0 7 7 4 15 -8 19 -14 19 -14 0z"/>
<path d="M7020 26 c0 -2 7 -7 16 -10 8 -3 12 -2 9 4 -6 10 -25 14 -25 6z"/>
<path d="M18772 24 c4 -3 12 -6 20 -8 7 -1 19 -5 25 -9 9 -6 11 -3 7 7 -3 9
-18 16 -32 16 -14 0 -23 -3 -20 -6z"/>
<path d="M19466 13 c-6 -14 -5 -15 5 -6 7 7 10 15 7 18 -3 3 -9 -2 -12 -12z"/>
<path d="M7110 10 c0 -5 5 -10 11 -10 5 0 7 5 4 10 -3 6 -8 10 -11 10 -2 0 -4
-4 -4 -10z"/>
<path d="M10105 10 c-19 -8 -19 -9 3 -9 12 -1 22 4 22 9 0 6 -1 10 -2 9 -2 0
-12 -4 -23 -9z"/>
<path d="M14025 10 c3 -5 10 -10 16 -10 5 0 9 5 9 10 0 6 -7 10 -16 10 -8 0
-12 -4 -9 -10z"/>
<path d="M19806 11 c-4 -5 3 -7 14 -4 23 6 26 13 6 13 -8 0 -17 -4 -20 -9z"/>
<path d="M2338 3 c7 -3 16 -2 19 1 4 3 -2 6 -13 5 -11 0 -14 -3 -6 -6z"/>
</g>
</svg>
