<?xml version="1.0" standalone="no"?>
<!DOCTYPE svg PUBLIC "-//W3C//DTD SVG 20010904//EN"
 "http://www.w3.org/TR/2001/REC-SVG-20010904/DTD/svg10.dtd">
<svg version="1.0" xmlns="http://www.w3.org/2000/svg"
 width="640.000000pt" height="640.000000pt" viewBox="0 0 640.000000 640.000000"
 preserveAspectRatio="xMidYMid meet">
<metadata>
Created by potrace 1.14, written by Peter Selinger 2001-2017
</metadata>
<g transform="translate(0.000000,640.000000) scale(0.100000,-0.100000)"
fill="#000000" stroke="none">
<path d="M73 6392 l-73 -3 0 -379 c0 -279 3 -379 12 -382 18 -6 18 -40 0 -54
-14 -10 -14 -14 -3 -28 19 -23 34 -20 26 5 -5 15 -1 25 14 35 12 9 21 24 21
35 0 13 7 19 21 19 17 0 20 5 16 26 -4 21 -1 25 17 22 15 -2 24 -14 30 -40 7
-28 15 -38 29 -38 15 0 18 5 13 23 -18 56 -24 54 99 45 25 -2 40 1 40 9 0 19
14 27 27 16 13 -10 526 -16 561 -7 9 3 17 12 17 20 0 17 10 17 32 0 13 -10 30
-11 65 -4 27 5 78 12 116 15 63 5 67 4 67 -16 0 -28 21 -27 50 4 24 25 60 34
60 15 0 -6 -11 -16 -25 -22 -14 -6 -25 -14 -25 -18 0 -15 26 -30 52 -30 30 0
34 10 17 42 -15 28 -6 32 35 17 25 -9 39 -10 46 -3 17 17 70 4 87 -22 17 -27
43 -32 43 -9 0 8 -4 15 -10 15 -5 0 -10 5 -10 10 0 15 62 11 84 -5 25 -19 60
-19 76 0 14 17 46 20 56 4 3 -6 16 -8 29 -5 14 4 28 0 35 -9 15 -18 42 -19 57
-4 8 8 21 8 47 -1 20 -6 54 -10 76 -9 42 3 56 -3 45 -21 -5 -8 -11 -8 -21 1
-17 14 -44 5 -44 -15 0 -9 8 -20 19 -25 39 -22 32 -71 -10 -71 -11 0 -19 -4
-19 -10 0 -5 7 -10 15 -10 8 0 15 -4 15 -10 0 -15 21 -12 42 7 15 13 21 14 27
5 6 -10 16 -9 44 5 40 20 41 21 27 43 -8 12 -13 13 -29 3 -15 -10 -22 -9 -31
2 -14 16 -5 35 16 35 21 0 17 18 -6 30 -27 14 -25 32 3 28 14 -2 21 -9 19 -19
-3 -19 28 -32 78 -33 31 -1 35 -4 34 -26 -1 -14 -4 -32 -8 -41 -5 -12 0 -18
19 -23 14 -4 23 -11 20 -16 -7 -11 22 -26 32 -16 3 3 0 12 -7 21 -10 12 -9 16
4 21 23 9 41 0 41 -22 0 -32 31 -28 45 6 15 36 1 60 -34 60 -12 0 -27 10 -35
22 -12 19 -11 24 9 40 26 21 62 26 42 6 -17 -17 -15 -38 3 -38 8 0 15 -4 15
-10 0 -5 14 -10 30 -10 36 0 41 -24 8 -35 -19 -6 -20 -8 -6 -12 9 -2 26 1 38
7 11 6 29 8 39 5 11 -3 21 0 24 9 4 9 14 12 28 9 14 -4 25 0 31 11 5 9 21 16
38 16 42 0 40 28 -2 32 -17 2 -33 8 -35 14 -6 17 46 24 62 8 8 -9 16 -10 20
-5 3 6 100 10 240 10 198 1 236 -2 249 -15 30 -29 14 -52 -20 -29 -29 19 -124
29 -144 16 -13 -9 -13 -14 0 -38 9 -15 27 -33 40 -40 21 -10 27 -9 43 7 25 28
81 27 101 -1 10 -14 21 -19 32 -15 9 3 23 1 31 -5 10 -9 19 -9 38 1 14 7 37
10 54 7 22 -5 31 -3 31 7 0 7 10 25 21 40 16 20 19 30 11 38 -8 8 -15 8 -24 1
-16 -13 -97 -8 -111 6 -19 19 3 26 78 25 65 -1 76 -4 93 -24 17 -21 50 -21 37
0 -10 16 29 28 70 21 22 -4 60 -4 85 0 71 11 226 10 256 -1 19 -8 30 -7 41 2
10 8 62 12 156 13 131 1 142 3 142 20 0 24 25 32 25 8 1 -36 26 -56 61 -48 22
5 34 3 40 -6 6 -10 12 -9 30 6 16 14 23 16 26 8 7 -18 33 -16 33 2 0 21 27 30
45 15 8 -7 24 -10 35 -7 21 5 80 -18 80 -33 0 -16 45 -19 69 -4 15 10 36 14
56 11 48 -8 62 6 28 29 -18 12 -45 19 -77 18 -49 -1 -49 -1 -26 18 12 10 32
18 44 18 32 0 39 11 19 32 -15 16 -15 18 0 18 19 0 37 -29 37 -61 0 -20 3 -21
45 -16 34 5 45 3 45 -7 0 -16 31 -31 39 -19 3 4 16 14 29 21 26 14 52 2 52
-24 0 -10 15 -14 54 -14 62 0 82 -16 72 -56 -6 -24 7 -54 24 -54 4 0 13 14 20
31 10 22 18 29 34 27 12 -2 26 3 32 11 14 17 34 6 34 -19 0 -20 52 -39 58 -21
2 6 12 11 22 11 16 0 18 -6 15 -38 -4 -49 3 -60 45 -69 32 -6 34 -5 21 11 -18
22 2 77 21 58 20 -20 38 -14 38 12 0 26 24 51 40 41 16 -10 12 -27 -12 -52
-12 -13 -16 -23 -9 -23 6 0 23 -12 37 -27 28 -31 42 -24 26 12 -7 14 -12 49
-12 77 0 42 3 49 16 44 9 -3 22 -6 29 -6 8 0 23 -9 34 -21 l19 -21 31 23 c17
12 31 26 31 29 0 13 139 3 155 -10 12 -10 19 -10 27 -2 18 18 46 14 69 -9 l21
-21 22 21 c22 21 30 21 236 9 50 -3 70 -13 70 -33 0 -7 7 -16 16 -19 11 -4 15
-14 12 -31 -7 -36 2 -41 92 -48 l25 -2 3 443 2 443 -612 0 c-4270 3 -5655 4
-5715 1z m2581 -141 c13 -27 22 -52 19 -55 -3 -3 -23 9 -44 26 -22 18 -44 28
-53 25 -27 -11 -17 7 17 30 17 12 33 22 34 22 1 1 13 -21 27 -48z m-354 -6 c7
-9 10 -18 7 -21 -10 -11 -37 5 -37 21 0 19 14 19 30 0z m1962 -27 c-9 -9 -12
-7 -12 12 0 19 3 21 12 12 9 -9 9 -15 0 -24z m-828 -37 c4 -5 2 -19 -2 -31 -7
-19 -9 -20 -21 -6 -7 9 -11 23 -7 31 6 17 22 20 30 6z m363 -27 c-9 -9 -28 6
-21 18 4 6 10 6 17 -1 6 -6 8 -13 4 -17z m-3338 -15 c6 -18 11 -33 11 -35 0
-1 -9 0 -20 3 -23 6 -44 38 -35 53 12 20 33 9 44 -21z m3175 -47 c6 -42 2 -50
-19 -32 -9 8 -13 21 -9 36 5 18 2 24 -11 24 -9 0 -14 4 -11 9 13 21 44 -2 50
-37z m-1674 -4 c0 -17 -15 -7 -27 18 -12 26 -12 26 7 9 11 -10 20 -22 20 -27z
m1340 12 c0 -5 -4 -10 -10 -10 -5 0 -10 5 -10 10 0 6 5 10 10 10 6 0 10 -4 10
-10z m-2617 -12 c-2 -5 -15 -8 -29 -8 -14 0 -23 3 -21 8 3 4 16 7 30 7 14 0
23 -3 20 -7z m2223 1 c7 -12 -22 -46 -32 -37 -8 9 5 48 16 48 5 0 12 -5 16
-11z m-1116 -30 c24 -29 28 -30 47 -18 25 15 38 8 29 -17 -5 -13 -14 -15 -45
-10 -22 3 -46 8 -54 12 -22 8 -28 -21 -10 -46 16 -22 17 -22 30 -4 9 13 16 15
24 7 7 -7 4 -20 -10 -44 -20 -32 -22 -33 -27 -11 -6 22 -38 30 -49 12 -14 -23
-20 -7 -19 49 1 42 -3 61 -12 65 -19 7 -17 24 4 29 45 12 66 6 92 -24z m-1255
-19 c13 -41 -30 -57 -53 -20 -11 18 -10 22 10 30 33 13 36 12 43 -10z m2399
-33 c21 -16 12 -47 -15 -47 -22 0 -34 22 -25 45 7 18 17 19 40 2z m-2224 -28
c0 -5 -4 -9 -10 -9 -5 0 -10 7 -10 16 0 8 5 12 10 9 6 -3 10 -10 10 -16z
m4745 -20 c0 -7 -8 -15 -17 -17 -18 -3 -25 18 -11 32 10 10 28 1 28 -15z
m-1305 -29 c0 -31 -16 -41 -26 -15 -5 13 11 45 22 45 2 0 4 -13 4 -30z m-507
-20 c31 0 38 -4 43 -25 3 -14 19 -34 35 -46 l29 -20 -22 -30 c-16 -21 -29 -29
-42 -25 -11 3 -27 1 -37 -4 -11 -6 -28 -6 -48 1 -26 9 -31 16 -31 45 0 37 -5
41 -29 20 -20 -17 -81 -10 -81 10 0 7 14 21 32 30 18 9 46 30 62 46 26 27 31
28 41 14 8 -10 27 -16 48 -16z m-258 10 c3 -5 -1 -10 -9 -10 -9 0 -16 5 -16
10 0 6 4 10 9 10 6 0 13 -4 16 -10z m535 2 c0 -13 -12 -22 -22 -16 -10 6 -1
24 13 24 5 0 9 -4 9 -8z m2189 -5 c6 -8 8 -16 5 -19 -9 -10 -42 3 -48 18 -7
18 28 19 43 1z m-3399 -7 c0 -5 -7 -10 -15 -10 -8 0 -15 5 -15 10 0 6 7 10 15
10 8 0 15 -4 15 -10z m173 -42 c2 -29 1 -54 -4 -56 -5 -2 -9 -10 -9 -18 0 -10
-14 -15 -47 -16 -78 -3 -97 -2 -120 6 -18 6 -23 4 -23 -9 0 -13 -8 -15 -52 -9
-57 7 -71 14 -49 22 8 3 26 16 39 29 l24 24 34 -21 c44 -25 56 -25 72 0 16 26
35 26 27 1 -3 -11 -1 -22 5 -26 13 -8 66 44 62 61 -3 17 16 64 26 64 5 0 12
-24 15 -52z m1347 33 c0 -24 23 -43 42 -36 9 4 18 -1 21 -9 4 -9 15 -16 25
-16 26 0 31 -8 23 -38 -6 -20 -14 -27 -32 -27 -15 0 -24 6 -24 15 -1 40 -35
55 -35 16 0 -15 -7 -27 -19 -31 -20 -6 -259 3 -272 10 -4 3 -12 -2 -19 -10
-18 -22 -63 -18 -94 6 -20 15 -24 25 -17 32 6 6 11 21 11 34 0 18 6 23 27 23
14 0 35 -7 44 -16 17 -16 19 -15 28 9 12 31 39 47 82 47 44 0 110 -21 116 -37
3 -7 14 -13 25 -13 16 0 19 5 14 24 -7 28 0 36 31 36 16 0 23 -6 23 -19z
m-2631 -5 c6 -7 9 -20 6 -28 -9 -23 56 -34 72 -12 11 15 14 15 37 -3 30 -24
18 -43 -25 -43 -15 0 -31 -4 -34 -10 -3 -5 -15 -10 -26 -10 -10 0 -19 5 -19
10 0 16 -22 12 -35 -7 -12 -17 -14 -17 -34 1 -25 23 -82 28 -78 7 3 -18 -14
-23 -32 -12 -12 8 -13 14 -3 35 6 14 18 26 25 26 8 0 26 9 39 20 14 10 29 16
32 12 4 -4 12 1 17 11 12 20 42 22 58 3z m1471 -1 c43 -22 38 -39 -8 -31 -38
6 -38 5 -34 -24 3 -23 0 -30 -12 -30 -9 0 -16 6 -16 14 0 8 -21 29 -47 46
l-48 32 57 -5 c32 -3 60 -1 63 4 8 12 11 12 45 -6z m-536 -46 c10 -17 16 -32
14 -33 -1 -1 -18 -8 -35 -15 -28 -11 -36 -11 -57 2 -30 20 -119 16 -144 -6
-20 -18 -71 -12 -79 10 -6 15 15 63 28 63 4 0 5 -8 2 -19 -6 -23 12 -36 35
-25 9 4 25 6 35 5 10 -1 30 5 43 14 14 9 32 14 40 11 7 -3 28 1 46 9 46 20 51
19 72 -16z m1932 9 c-4 -13 -9 -35 -12 -50 -11 -49 -33 -34 -30 20 4 57 2 52
27 52 17 0 20 -4 15 -22z m-1846 -2 c0 -15 -18 -31 -26 -23 -7 7 7 37 17 37 5
0 9 -6 9 -14z m110 0 c0 -8 -4 -17 -9 -21 -12 -7 -24 12 -16 25 9 15 25 12 25
-4z m1080 4 c0 -5 -7 -10 -16 -10 -8 0 -12 5 -9 10 3 6 10 10 16 10 5 0 9 -4
9 -10z m-1991 -19 c23 -15 5 -41 -28 -41 -25 0 -29 3 -24 18 11 29 29 37 52
23z m1548 -20 l21 -27 -34 -2 c-35 -3 -41 7 -28 42 8 22 15 20 41 -13z m1750
13 c-3 -3 -12 -4 -19 -1 -8 3 -5 6 6 6 11 1 17 -2 13 -5z m-207 -35 c0 -11 -4
-17 -10 -14 -5 3 -10 13 -10 21 0 8 5 14 10 14 6 0 10 -9 10 -21z m880 1 c0
-21 -33 -35 -67 -28 -29 5 -21 32 12 39 50 11 55 10 55 -11z m-2830 -5 c13
-16 8 -18 -27 -9 -13 4 -23 10 -23 15 0 15 37 10 50 -6z m250 11 c0 -3 -4 -8
-10 -11 -5 -3 -10 -1 -10 4 0 6 5 11 10 11 6 0 10 -2 10 -4z m84 -5 c7 -10
-17 -21 -45 -21 -19 0 -25 11 -12 23 9 10 51 8 57 -2z m516 2 c-1 -22 -44 -53
-74 -53 -11 0 -10 5 7 23 28 30 67 47 67 30z m1800 -3 c0 -5 -2 -10 -4 -10 -3
0 -8 5 -11 10 -3 6 -1 10 4 10 6 0 11 -4 11 -10z m327 -7 c3 -7 -7 -15 -20
-18 -39 -10 -81 -2 -85 16 -2 13 6 16 49 15 31 -1 54 -6 56 -13z m-2879 -4
c-2 -6 -8 -10 -13 -10 -5 0 -11 4 -13 10 -2 6 4 11 13 11 9 0 15 -5 13 -11z
m3026 5 c9 -3 13 -10 10 -15 -6 -11 -65 -12 -90 -2 -16 6 -16 7 2 14 24 10 58
11 78 3z m96 -2 c0 -13 -12 -22 -22 -16 -10 6 -1 24 13 24 5 0 9 -4 9 -8z
m-625 -92 c17 -19 17 -20 -1 -20 -27 0 -48 16 -40 29 10 16 20 14 41 -9z
m-3281 -41 c-3 -5 -10 -7 -15 -3 -5 3 -7 10 -3 15 3 5 10 7 15 3 5 -3 7 -10 3
-15z m2841 11 c3 -5 1 -10 -4 -10 -6 0 -11 5 -11 10 0 6 2 10 4 10 3 0 8 -4
11 -10z m-2635 -10 c0 -5 -4 -10 -9 -10 -6 0 -13 5 -16 10 -3 6 1 10 9 10 9 0
16 -4 16 -10z m3901 -25 c-1 -15 -24 -12 -29 3 -3 9 2 13 12 10 10 -1 17 -7
17 -13z m-3101 -29 c0 -21 -26 -38 -52 -34 -31 4 -29 30 2 39 39 11 50 10 50
-5z m-815 -6 c3 -5 -1 -10 -10 -10 -9 0 -13 5 -10 10 3 6 8 10 10 10 2 0 7 -4
10 -10z m3903 -20 c10 -17 10 -24 -1 -40 -13 -19 -14 -19 -37 5 -23 25 -23 25
-4 40 25 19 27 19 42 -5z"/>
<path d="M3950 5820 c0 -5 5 -10 11 -10 5 0 7 5 4 10 -3 6 -8 10 -11 10 -2 0
-4 -4 -4 -10z"/>
<path d="M234 5648 c-4 -5 0 -14 7 -19 20 -13 29 -11 29 5 0 18 -27 29 -36 14z"/>
<path d="M1940 5651 c0 -5 5 -13 10 -16 6 -3 10 -2 10 4 0 5 -4 13 -10 16 -5
3 -10 2 -10 -4z"/>
<path d="M2795 5640 c-8 -13 14 -52 26 -45 15 10 11 55 -5 55 -8 0 -18 -4 -21
-10z"/>
<path d="M106 5601 c-19 -21 -14 -41 10 -41 9 0 14 11 14 30 0 35 -1 36 -24
11z"/>
<path d="M5715 5610 c-3 -5 -1 -10 4 -10 6 0 11 5 11 10 0 6 -2 10 -4 10 -3 0
-8 -4 -11 -10z"/>
<path d="M320 5600 c0 -5 5 -10 10 -10 6 0 10 5 10 10 0 6 -4 10 -10 10 -5 0
-10 -4 -10 -10z"/>
<path d="M1217 5604 c-4 -4 -7 -17 -7 -28 1 -19 1 -20 11 -3 11 19 8 43 -4 31z"/>
<path d="M3632 5589 c2 -7 10 -15 17 -17 8 -3 12 1 9 9 -2 7 -10 15 -17 17 -8
3 -12 -1 -9 -9z"/>
<path d="M1345 5570 c-8 -13 3 -30 21 -30 18 0 18 14 0 29 -10 8 -16 9 -21 1z"/>
<path d="M1410 5570 c0 -5 5 -10 11 -10 5 0 7 5 4 10 -3 6 -8 10 -11 10 -2 0
-4 -4 -4 -10z"/>
<path d="M5885 5570 c-9 -15 4 -30 26 -30 12 0 19 7 19 20 0 21 -33 29 -45 10z"/>
<path d="M6206 5541 c-20 -38 -20 -41 4 -41 27 0 42 30 25 54 -13 17 -15 16
-29 -13z"/>
<path d="M5830 5550 c0 -5 5 -10 10 -10 6 0 10 5 10 10 0 6 -4 10 -10 10 -5 0
-10 -4 -10 -10z"/>
<path d="M5610 5535 c0 -8 7 -15 15 -15 8 0 15 7 15 15 0 8 -7 15 -15 15 -8 0
-15 -7 -15 -15z"/>
<path d="M1345 5510 c3 -5 8 -10 11 -10 2 0 4 5 4 10 0 6 -5 10 -11 10 -5 0
-7 -4 -4 -10z"/>
<path d="M5385 5446 c3 -50 1 -57 -23 -76 -23 -16 -25 -21 -12 -30 11 -7 -6
-10 -60 -11 -41 0 -136 -3 -210 -5 -162 -5 -125 -5 -349 -4 -116 0 -188 -3
-196 -10 -9 -8 -14 -8 -17 0 -3 9 -592 13 -2261 16 l-2257 5 0 -2661 0 -2660
158 0 c182 0 232 6 232 27 0 17 5 16 82 -14 45 -17 49 -17 77 0 36 21 51 22
51 2 0 -13 26 -15 173 -16 94 0 255 -1 357 -2 102 -1 196 0 210 1 23 3 415 6
470 3 14 0 421 -1 905 -1 484 0 1265 -1 1735 -2 470 0 909 -1 975 0 66 1 312
2 548 2 l427 2 0 518 0 518 -22 5 c-13 3 -39 2 -58 -2 -28 -6 -34 -11 -32 -28
2 -12 -2 -24 -8 -28 -7 -4 -7 -12 0 -26 9 -15 7 -19 -6 -19 -10 0 -14 5 -10
15 4 11 -1 15 -19 15 -16 0 -25 -6 -25 -15 0 -8 -7 -15 -15 -15 -17 0 -20 16
-5 25 17 10 11 25 -9 25 -11 0 -27 -10 -35 -22 -14 -20 -18 -20 -56 -9 -48 14
-48 35 -2 39 24 2 32 8 32 22 0 27 -12 31 -85 32 -36 0 -67 4 -70 8 -3 5 91 8
210 7 l215 -2 0 429 c0 394 -1 431 -17 450 -17 20 -17 20 0 7 16 -13 17 3 17
308 l0 321 -24 -6 c-18 -4 -25 -1 -29 15 -7 27 2 33 21 14 15 -15 17 -14 23 8
4 13 7 627 8 1364 l1 1340 -473 2 c-307 1 -483 6 -501 13 -28 10 -28 11 -11
30 16 18 20 18 46 4 19 -10 35 -12 47 -6 9 5 22 7 29 5 6 -2 14 1 18 6 4 7 -4
11 -19 11 -15 0 -30 8 -36 19 -6 12 -17 17 -28 14 -20 -5 -48 22 -54 52 -2 11
-11 21 -19 23 -14 3 -16 -6 -14 -52z m-2779 -243 c-12 -12 -34 18 -28 39 5 20
6 19 19 -7 8 -15 12 -29 9 -32z m237 20 c18 -40 13 -59 -7 -30 -7 9 -18 17
-24 17 -15 0 -22 26 -9 39 17 17 21 14 40 -26z m-60 -8 c-7 -21 -13 -19 -13 6
0 11 4 18 10 14 5 -3 7 -12 3 -20z m577 5 c0 -5 -5 -10 -11 -10 -5 0 -7 5 -4
10 3 6 8 10 11 10 2 0 4 -4 4 -10z m550 -17 c0 -22 -2 -25 -10 -13 -13 20 -13
40 0 40 6 0 10 -12 10 -27z m-1190 -28 c-7 -9 -15 -13 -19 -10 -3 3 1 10 9 15
21 14 24 12 10 -5z m632 -10 c6 -28 -6 -34 -16 -9 -5 14 0 34 8 34 2 0 6 -11
8 -25z m113 15 c3 -5 -1 -10 -10 -10 -9 0 -13 5 -10 10 3 6 8 10 10 10 2 0 7
-4 10 -10z m-2085 -26 c14 -35 13 -36 -10 -24 -11 6 -20 20 -20 30 0 28 19 25
30 -6z m2220 16 c0 -5 -4 -10 -10 -10 -5 0 -10 5 -10 10 0 6 5 10 10 10 6 0
10 -4 10 -10z m50 -10 c0 -5 -4 -10 -9 -10 -6 0 -13 5 -16 10 -3 6 1 10 9 10
9 0 16 -4 16 -10z m-1280 -29 c12 -23 13 -31 3 -31 -5 0 -13 11 -20 25 -13 29
1 34 17 6z m1120 -3 c0 -9 7 -21 17 -26 13 -8 11 -9 -10 -9 -22 0 -27 4 -27
24 0 14 -4 21 -10 18 -5 -3 -10 -2 -10 4 0 5 9 9 20 8 12 -1 20 -8 20 -19z
m414 7 c-4 -8 -8 -15 -10 -15 -2 0 -4 7 -4 15 0 8 4 15 10 15 5 0 7 -7 4 -15z
m-634 -16 c0 -6 -4 -7 -10 -4 -5 3 -10 11 -10 16 0 6 5 7 10 4 6 -3 10 -11 10
-16z m2120 -12 c0 -5 -4 -5 -10 -2 -5 3 -10 14 -10 23 0 15 2 15 10 2 5 -8 10
-19 10 -23z m-3850 12 c0 -5 -11 -9 -25 -9 -14 0 -25 4 -25 9 0 5 11 9 25 9
14 0 25 -4 25 -9z m747 -39 c7 0 13 5 13 12 0 9 3 9 12 0 15 -15 5 -24 -27
-24 -18 0 -23 -4 -16 -12 12 -14 3 -56 -11 -56 -6 0 -7 11 -4 24 3 13 2 34 -2
47 -8 20 -9 20 -15 4 -4 -9 -3 -23 1 -29 5 -7 2 -18 -10 -28 -19 -19 -21 -17
-19 22 2 20 0 22 -8 10 -6 -8 -11 -10 -11 -4 0 6 7 17 16 25 14 11 14 13 0 21
-19 11 -21 32 -3 25 8 -3 20 -1 28 4 10 6 18 1 29 -16 8 -14 20 -25 27 -25z
m704 13 c-10 -17 -10 -16 -11 3 0 23 13 41 18 25 2 -6 -1 -18 -7 -28z m-1641
12 c7 -9 8 -15 2 -15 -5 0 -12 7 -16 15 -3 8 -4 15 -2 15 2 0 9 -7 16 -15z
m80 -24 c0 -27 -12 -33 -31 -15 -11 10 -19 12 -24 5 -3 -6 -11 -11 -18 -11 -6
0 -1 7 11 16 12 8 27 12 32 9 6 -3 10 1 10 10 0 9 5 13 10 10 6 -3 10 -14 10
-24z m2010 -1 c0 -4 -6 -10 -14 -13 -10 -4 -12 0 -9 14 5 18 23 18 23 -1z
m464 5 c-4 -8 -8 -15 -10 -15 -2 0 -4 7 -4 15 0 8 4 15 10 15 5 0 7 -7 4 -15z
m-876 -34 c9 -26 8 -28 -9 -24 -26 7 -33 21 -19 38 16 20 16 20 28 -14z m217
19 c3 -5 1 -10 -4 -10 -6 0 -11 5 -11 10 0 6 2 10 4 10 3 0 8 -4 11 -10z
m2131 -36 c-9 -28 -12 -31 -14 -15 -2 12 -8 19 -13 16 -5 -4 -9 1 -9 9 0 9 6
13 14 10 8 -3 17 -1 21 5 12 20 12 11 1 -25z m-3826 16 c0 -5 -4 -10 -10 -10
-5 0 -10 5 -10 10 0 6 5 10 10 10 6 0 10 -4 10 -10z m1817 -6 c-3 -3 -12 -4
-19 -1 -8 3 -5 6 6 6 11 1 17 -2 13 -5z m1168 -4 c3 -5 1 -10 -4 -10 -6 0 -11
5 -11 10 0 6 2 10 4 10 3 0 8 -4 11 -10z m165 -11 c0 -5 -4 -9 -10 -9 -5 0
-10 7 -10 16 0 8 5 12 10 9 6 -3 10 -10 10 -16z m-870 -23 c-14 -39 -13 -45
10 -39 15 4 18 9 10 18 -8 9 -6 14 6 19 20 8 34 -1 34 -20 0 -8 9 -14 20 -14
11 0 20 -5 20 -11 0 -6 7 -8 16 -5 12 5 15 0 12 -21 -4 -36 -26 -41 -38 -9
-11 31 -34 36 -25 6 5 -16 2 -20 -17 -21 -13 -1 -26 -1 -30 0 -4 0 -37 1 -73
2 -59 1 -65 4 -65 23 -1 16 -4 14 -15 -11 -13 -30 -16 -32 -44 -22 -24 8 -29
16 -29 39 1 34 24 44 51 21 16 -13 17 -13 12 1 -4 10 3 19 22 27 31 13 93 12
93 -2 0 -4 5 -5 10 -2 6 4 8 11 4 16 -6 10 15 43 23 36 2 -2 -1 -16 -7 -31z
m-1300 10 c0 -3 -4 -8 -10 -11 -5 -3 -10 -1 -10 4 0 6 5 11 10 11 6 0 10 -2
10 -4z m466 -47 c1 -31 -2 -45 -7 -37 -7 10 -9 9 -9 -4 0 -15 -9 -18 -53 -18
-29 0 -59 6 -66 13 -11 10 -13 9 -8 -4 4 -14 -2 -17 -34 -17 -21 -1 -39 3 -39
9 0 5 5 9 11 9 5 0 7 4 4 10 -3 5 0 20 7 32 7 13 11 26 10 31 -1 4 3 7 9 7 6
0 8 -7 5 -16 -7 -19 13 -41 46 -49 19 -5 27 -1 36 17 11 23 11 23 11 -4 1 -16
3 -28 6 -28 13 0 40 39 43 60 1 13 8 28 15 32 6 4 12 8 12 8 0 0 0 -23 1 -51z
m334 30 c0 -6 -4 -8 -9 -5 -11 7 -23 -37 -15 -58 4 -11 1 -16 -10 -16 -18 0
-22 35 -6 45 6 4 8 11 4 16 -7 13 15 41 27 33 5 -3 9 -10 9 -15z m164 3 c21 4
27 1 32 -18 4 -14 13 -28 22 -33 14 -8 14 -12 3 -25 -8 -9 -11 -20 -7 -24 4
-4 14 2 22 12 8 11 14 16 14 10 0 -5 4 -2 10 6 11 18 23 8 14 -13 -8 -21 -57
-31 -83 -18 -12 7 -22 7 -26 1 -11 -18 -50 6 -47 29 3 20 -22 31 -30 13 -1 -5
-14 -6 -27 -2 -21 5 -23 8 -10 18 8 6 27 23 43 37 21 18 32 22 37 14 4 -7 19
-9 33 -7z m1638 3 c14 -19 8 -26 -12 -15 -11 6 -20 15 -20 20 0 12 22 9 32 -5z
m178 -1 c0 -8 -5 -12 -10 -9 -6 4 -8 11 -5 16 9 14 15 11 15 -7z m-3170 -29
c0 -20 39 -25 49 -7 9 15 11 15 25 -3 16 -23 12 -35 -13 -35 -9 0 -22 -5 -27
-10 -8 -8 -15 -6 -24 5 -11 14 -14 13 -26 -2 -13 -16 -15 -16 -26 -3 -7 9 -24
17 -38 17 -17 2 -20 -1 -11 -6 10 -6 10 -10 1 -16 -6 -4 -16 -3 -21 2 -13 13
-1 43 17 43 7 0 18 8 23 18 9 14 12 14 19 4 7 -10 11 -8 15 9 5 19 8 20 21 9
9 -7 16 -18 16 -25z m740 25 c0 -5 -10 -10 -22 -10 -19 0 -20 2 -8 10 19 13
30 13 30 0z m372 -22 c-8 -8 -9 -4 -5 13 4 13 8 18 11 10 2 -7 -1 -18 -6 -23z
m428 22 c0 -5 -4 -10 -9 -10 -6 0 -13 5 -16 10 -3 6 1 10 9 10 9 0 16 -4 16
-10z m-548 -18 c6 -6 3 -12 -6 -15 -8 -3 -18 -2 -21 3 -10 16 -28 11 -21 -6
10 -25 -3 -35 -22 -16 -10 9 -29 24 -42 33 -24 16 -23 17 39 13 35 -2 68 -7
73 -12z m488 8 c0 -5 -2 -10 -4 -10 -3 0 -8 5 -11 10 -3 6 -1 10 4 10 6 0 11
-4 11 -10z m-1035 -35 c-2 -33 -25 -59 -25 -28 0 26 10 53 19 53 4 0 6 -11 6
-25z m171 8 c7 -10 14 -21 14 -24 0 -12 -52 -20 -63 -10 -17 13 -83 7 -103
-10 -16 -12 -17 -12 -11 4 4 10 7 23 7 28 0 4 7 6 16 2 8 -3 27 1 41 8 21 11
27 11 30 2 4 -10 8 -9 20 2 19 20 33 19 49 -2z m134 2 c0 -8 -7 -15 -15 -15
-9 0 -12 6 -9 15 4 8 10 15 15 15 5 0 9 -7 9 -15z m710 -1 c0 -8 -5 -12 -10
-9 -6 4 -8 11 -5 16 9 14 15 11 15 -7z m437 -19 c-6 -19 -14 -35 -18 -35 -4 0
-7 16 -6 35 1 26 5 35 18 35 15 0 16 -4 6 -35z m103 4 c0 -10 -4 -19 -9 -19
-5 0 -8 11 -8 25 0 13 3 22 8 19 5 -3 9 -14 9 -25z m-1854 0 c12 -20 -11 -26
-28 -7 -17 17 -17 18 1 18 11 0 23 -5 27 -11z m2194 1 c0 -5 -4 -10 -9 -10 -6
0 -13 5 -16 10 -3 6 1 10 9 10 9 0 16 -4 16 -10z m-1933 -6 c-3 -3 -12 -4 -19
-1 -8 3 -5 6 6 6 11 1 17 -2 13 -5z m-287 -8 c0 -3 -4 -8 -10 -11 -5 -3 -10
-1 -10 4 0 6 5 11 10 11 6 0 10 -2 10 -4z m775 -6 c4 -6 10 -8 15 -5 5 3 11 1
15 -5 3 -5 0 -10 -9 -10 -22 0 -46 11 -46 21 0 12 17 11 25 -1z m175 0 c0 -5
-2 -10 -4 -10 -2 0 -12 -3 -22 -7 -16 -6 -17 -5 -4 10 17 19 30 22 30 7z m54
-11 c-7 -11 -44 -12 -44 -1 0 15 11 20 30 15 11 -3 17 -9 14 -14z m1076 5 c0
-8 -4 -12 -10 -9 -5 3 -10 10 -10 16 0 5 5 9 10 9 6 0 10 -7 10 -16z m170 6
c0 -5 -4 -10 -10 -10 -5 0 -10 5 -10 10 0 6 5 10 10 10 6 0 10 -4 10 -10z
m287 -12 c-3 -8 -6 -5 -6 6 -1 11 2 17 5 13 3 -3 4 -12 1 -19z m123 7 c0 -14
-28 -24 -47 -18 -26 9 -13 32 17 31 17 -1 30 -7 30 -13z m100 -6 c0 -5 -18 -9
-40 -9 -36 0 -49 8 -35 21 8 8 75 -3 75 -12z m160 0 c0 -5 -4 -9 -10 -9 -5 0
-10 7 -10 16 0 8 5 12 10 9 6 -3 10 -10 10 -16z m-2070 2 c0 -6 -4 -13 -10
-16 -5 -3 -10 1 -10 9 0 9 5 16 10 16 6 0 10 -4 10 -9z m2009 0 c20 -13 -22
-25 -51 -15 l-23 8 25 7 c34 10 33 10 49 0z m-911 -31 c10 -27 13 -29 36 -20
20 7 26 6 26 -4 0 -8 7 -17 16 -20 8 -3 12 -2 9 4 -3 6 0 10 9 10 8 0 16 6 19
13 5 15 18 5 21 -19 2 -15 11 -18 43 -16 23 2 44 -1 48 -7 7 -13 -19 -54 -28
-44 -4 3 -7 1 -7 -6 0 -7 6 -11 13 -8 6 2 19 -2 28 -10 15 -12 17 -10 23 17 5
26 9 30 26 25 11 -4 19 -3 18 2 -2 4 2 9 7 10 6 2 11 -3 11 -10 1 -6 2 -16 3
-22 1 -5 6 -3 11 5 6 10 10 11 10 3 0 -7 5 -13 11 -13 6 0 8 7 5 16 -5 14 -4
15 8 5 11 -9 15 -9 19 1 3 7 2 -6 0 -29 -4 -27 -2 -43 5 -43 6 0 19 -3 29 -6
14 -4 12 -1 -6 15 -13 12 -21 25 -17 28 4 4 12 1 17 -7 8 -11 12 -12 15 -3 4
9 14 8 38 -2 19 -8 37 -11 41 -7 5 4 5 -1 2 -10 -4 -12 -1 -18 9 -18 11 0 14
5 9 18 -4 9 -9 31 -11 47 -2 17 -6 35 -8 41 -5 13 55 -14 65 -29 4 -6 18 1 31
14 21 21 32 24 69 21 24 -3 47 -10 52 -16 5 -8 10 -7 16 3 8 12 13 12 37 -4
24 -15 29 -16 38 -3 12 16 110 19 134 5 6 -5 21 -3 33 4 13 6 19 7 15 1 -3 -6
1 -12 11 -14 14 -3 15 -5 2 -18 -14 -16 -39 -56 -39 -64 0 -2 9 -2 20 1 12 3
20 14 20 27 0 11 7 30 15 40 13 18 14 16 10 -17 -5 -36 7 -57 21 -36 4 8 9 7
15 -2 6 -9 7 -2 3 17 -3 18 -1 34 5 38 5 4 8 13 4 21 -4 11 1 14 18 12 14 -2
25 -11 25 -21 2 -14 1 -14 -3 -1 -4 13 -8 14 -19 4 -17 -14 -19 -39 -3 -39 8
0 7 -5 -1 -15 -10 -12 -10 -19 -2 -27 9 -9 12 -9 12 1 0 8 7 11 19 8 10 -2 24
-1 31 3 7 4 26 3 42 -2 22 -8 28 -15 25 -29 -3 -11 -1 -17 3 -14 5 3 11 -1 13
-7 4 -8 6 -7 6 3 1 18 34 36 38 22 2 -5 17 -8 33 -7 28 2 29 0 23 -24 -3 -15
-6 -32 -6 -39 0 -7 -4 -10 -9 -7 -4 3 -8 -6 -8 -21 0 -14 -7 -38 -16 -53 -14
-23 -14 -24 0 -8 14 18 15 16 9 -18 -4 -23 -2 -36 6 -36 6 0 11 -4 11 -10 0
-5 -7 -7 -15 -4 -10 4 -15 0 -15 -11 0 -9 5 -13 10 -10 6 3 10 -1 10 -9 0 -9
5 -16 11 -16 5 0 8 -4 4 -9 -3 -6 3 -14 12 -20 10 -6 12 -11 6 -11 -7 0 -13
-4 -13 -9 0 -13 39 -21 46 -9 5 8 33 -18 34 -33 0 -6 -40 -21 -65 -24 -5 0
-13 4 -17 10 -5 6 -8 2 -8 -8 0 -11 9 -21 20 -24 25 -7 20 -29 -5 -25 -15 3
-17 -2 -12 -37 4 -34 2 -41 -14 -46 -10 -4 -19 -10 -19 -15 0 -5 -3 -17 -6
-27 -5 -15 -4 -16 6 -3 10 13 11 11 7 -7 -6 -29 19 -31 28 -3 8 26 25 26 25 0
0 -22 38 -62 52 -54 12 8 10 -13 -4 -37 -11 -17 -10 -23 10 -39 12 -10 22 -24
22 -32 0 -10 -2 -10 -9 1 -5 8 -16 11 -25 8 -11 -4 -16 -1 -16 11 -1 14 -2 15
-9 2 -5 -8 -12 -30 -16 -47 -5 -28 -4 -32 9 -27 9 3 16 13 16 21 0 26 19 3 26
-32 3 -19 10 -35 15 -35 18 0 8 -31 -12 -39 -21 -7 -21 -8 5 -29 20 -15 26
-27 21 -42 -3 -11 -11 -20 -16 -20 -5 0 -9 -4 -9 -10 0 -5 7 -10 15 -10 17 0
20 -16 4 -26 -6 -3 -9 -19 -5 -35 4 -22 2 -29 -9 -29 -17 0 -20 -16 -6 -25 6
-3 6 -18 0 -37 -5 -20 -5 -36 1 -43 7 -9 5 -16 -5 -25 -17 -14 -20 -56 -5 -65
6 -4 8 -10 5 -14 -2 -5 -7 -25 -9 -45 -3 -21 -11 -45 -18 -54 -9 -12 -10 -14
0 -8 20 12 33 -36 20 -80 -7 -28 -7 -39 1 -42 6 -2 9 -7 7 -11 -3 -4 4 -7 15
-7 10 0 19 4 19 8 0 17 32 7 37 -12 3 -11 9 -21 14 -21 5 -1 14 -3 19 -4 6 -1
17 -3 25 -4 8 0 15 -4 15 -8 0 -5 -32 -8 -72 -8 l-72 0 -9 -38 c-7 -29 -12
-35 -22 -27 -11 9 -12 7 -8 -9 6 -22 -12 -30 -20 -8 -2 6 -4 0 -4 -16 0 -15 3
-30 8 -33 5 -3 9 -16 9 -30 0 -13 5 -24 11 -24 6 0 9 -7 6 -15 -4 -8 -2 -17 3
-20 16 -10 12 -35 -5 -35 -18 0 -19 -12 -3 -28 10 -10 8 -12 -11 -10 -19 2
-26 -3 -32 -25 -4 -16 -4 -25 2 -21 7 4 13 -19 8 -28 -4 -7 43 -88 51 -88 5 0
5 -12 0 -29 -9 -34 -2 -81 13 -81 21 0 -12 -23 -35 -25 -17 -1 -26 -11 -35
-41 -22 -73 -13 -184 14 -184 12 0 10 -8 -7 -38 -15 -24 -22 -51 -21 -79 1
-24 -3 -43 -7 -43 -5 0 -7 -13 -4 -30 3 -18 0 -30 -7 -30 -6 0 -11 6 -11 13 0
9 -3 9 -9 -1 -10 -17 -8 -92 3 -111 4 -7 5 -15 1 -19 -3 -3 -10 0 -15 8 -5 8
-13 11 -17 6 -4 -4 0 -13 10 -20 9 -7 17 -20 17 -28 0 -8 6 -20 13 -27 10 -10
9 -15 -5 -25 -10 -7 -18 -26 -18 -41 0 -15 -8 -34 -17 -41 -24 -18 -31 -17
-36 3 -4 14 -5 13 -6 -4 -1 -18 -9 -23 -48 -29 -27 -4 -61 -8 -78 -9 -16 -1
-35 -3 -42 -4 -8 0 -11 -14 -9 -36 1 -24 -2 -35 -11 -35 -7 0 -13 8 -13 17 0
9 -3 13 -6 10 -4 -4 -20 3 -37 15 -17 12 -27 17 -23 10 4 -6 2 -20 -3 -31 -9
-16 -14 -18 -36 -8 -14 7 -25 20 -25 32 0 12 3 15 8 9 11 -17 42 -25 42 -11
-1 28 -19 39 -64 39 -25 0 -49 4 -52 9 -3 6 -15 4 -29 -5 -13 -9 -31 -13 -39
-10 -11 4 -16 0 -16 -10 0 -9 -8 -16 -17 -16 -14 0 -15 2 -4 9 17 11 5 32 -14
25 -8 -3 -11 -13 -8 -22 4 -13 2 -12 -10 3 -9 12 -28 20 -47 20 -23 0 -36 7
-46 25 -13 24 -13 25 -14 3 0 -12 -9 -27 -20 -33 -18 -10 -19 -13 -5 -26 19
-19 19 -19 -6 -21 -14 -1 -19 3 -16 12 3 7 -1 21 -9 32 -14 17 -15 17 -9 -3 6
-22 -17 -40 -36 -28 -5 3 -9 0 -9 -5 0 -6 -8 -11 -17 -11 -11 0 -14 3 -7 8 9
6 11 33 5 61 -1 2 -7 -2 -15 -8 -8 -7 -12 -21 -9 -31 5 -19 -9 -26 -39 -21 -5
0 -8 -3 -8 -7 0 -4 -10 -9 -22 -9 -70 -4 -83 -21 -36 -46 43 -22 94 -11 91 20
-2 16 2 20 17 16 21 -6 26 -18 11 -27 -5 -3 -11 -15 -14 -26 -3 -11 -1 -18 3
-15 5 3 15 -1 23 -9 8 -9 19 -11 27 -6 7 5 23 4 36 0 26 -10 34 -4 34 23 0 16
3 17 15 7 12 -10 15 -10 15 1 0 11 2 11 8 2 8 -13 52 -6 52 8 0 5 7 9 16 9 14
0 14 -3 4 -15 -7 -9 -10 -19 -6 -22 4 -4 11 -1 15 6 6 10 10 10 16 2 3 -7 15
-9 26 -6 11 4 19 2 19 -4 0 -6 7 -11 15 -11 13 0 14 4 5 21 -6 11 -9 25 -6 32
2 7 5 4 5 -7 1 -12 6 -16 16 -12 8 3 25 2 38 -3 30 -12 67 13 48 32 -10 10
-15 8 -25 -6 -8 -10 -20 -15 -30 -11 -22 9 -20 24 3 19 11 -2 22 2 24 9 3 7
14 16 25 18 15 4 18 1 15 -12 -6 -24 13 -34 64 -31 27 1 43 -2 43 -10 0 -8 4
-8 15 1 24 20 17 -5 -8 -29 -13 -12 -39 -24 -58 -27 -46 -7 -278 -6 -290 2 -6
3 -18 -1 -27 -9 -13 -11 -56 -14 -204 -15 -117 -1 -190 3 -194 9 -4 6 -13 4
-24 -6 -10 -9 -21 -12 -24 -7 -3 5 -27 6 -58 1 -32 -5 -56 -5 -62 1 -6 6 -15
5 -24 -3 -12 -9 -16 -9 -19 1 -6 16 -23 15 -23 -2 0 -18 -142 -16 -148 2 -3 9
-9 9 -24 1 -20 -11 -209 -6 -228 6 -5 3 -11 1 -15 -5 -10 -16 -21 -12 -33 15
-13 29 -44 34 -41 8 3 -31 -1 -36 -16 -23 -12 10 -18 10 -30 0 -12 -10 -24
-10 -59 0 -25 7 -49 9 -54 6 -6 -3 -21 -2 -35 3 -17 7 -41 5 -76 -4 -44 -11
-51 -11 -51 1 0 17 -12 18 -27 3 -14 -14 -83 -3 -83 14 0 8 -3 9 -8 1 -4 -6
-52 -12 -117 -13 -60 -2 -130 -4 -155 -5 -25 -1 -74 7 -108 17 -47 15 -66 17
-71 9 -7 -12 -91 -10 -144 3 -18 5 -33 2 -44 -6 -15 -13 -16 -11 -9 16 l7 30
-25 -30 -24 -30 -7 28 c-7 27 -8 27 -27 11 -10 -10 -16 -24 -14 -31 7 -18 -2
-16 -22 3 -15 15 -17 15 -30 -5 -17 -25 -50 -28 -59 -5 -5 14 -8 12 -19 -7 -7
-13 -13 -19 -14 -14 0 12 -150 14 -150 3 0 -17 -21 -7 -30 15 l-9 22 -7 -22
c-5 -19 -11 -22 -33 -16 -14 4 -43 7 -63 7 -21 -1 -38 3 -38 8 0 4 -9 8 -20 8
-11 0 -20 -4 -20 -9 0 -4 -26 -8 -58 -8 -66 -1 -159 -10 -172 -18 -4 -3 -20 2
-36 9 -16 9 -34 12 -43 7 -9 -5 -33 -8 -53 -7 -21 1 -38 -1 -38 -4 0 -8 -141
-5 -224 4 -69 8 -96 1 -96 -24 0 -10 -4 -22 -10 -25 -5 -3 -10 -1 -10 4 0 6
-13 11 -29 11 -17 0 -32 4 -36 10 -8 13 -35 1 -35 -16 0 -8 -7 -14 -16 -14
-11 0 -13 6 -9 19 3 11 1 22 -5 26 -8 5 -8 10 0 20 7 9 7 15 1 19 -5 4 -13 27
-17 52 -9 59 7 78 54 65 18 -5 32 -6 32 -2 0 4 -15 11 -32 16 -23 7 -33 16
-33 29 0 11 -12 26 -27 35 -15 9 -37 28 -48 43 -16 21 -26 26 -38 19 -9 -4
-22 -6 -29 -4 -6 2 -14 -4 -17 -14 -3 -10 -15 -19 -26 -20 -18 -2 -20 2 -14
33 4 24 3 34 -6 34 -7 0 -10 7 -6 15 8 21 -3 45 -20 45 -8 0 -14 10 -14 26 0
14 4 23 10 19 5 -3 10 1 10 9 0 18 -16 21 -25 6 -12 -19 -20 -10 -21 25 0 19
3 35 8 35 5 0 6 11 2 25 -6 24 -4 25 19 20 16 -4 28 -2 33 7 11 17 5 70 -8 83
-7 7 -9 1 -4 -17 4 -17 2 -28 -4 -28 -10 0 -12 6 -14 55 -1 25 -6 31 -29 33
-28 3 -39 22 -13 22 8 0 17 9 21 19 3 12 12 18 20 15 18 -7 30 33 15 51 -7 8
-21 15 -31 15 -21 0 -34 16 -19 25 5 3 10 15 10 26 0 11 4 17 10 14 6 -3 7 1
4 9 -4 11 0 16 15 16 27 0 27 16 1 23 -11 3 -20 13 -20 22 0 13 3 15 13 7 19
-16 62 14 47 33 -7 9 -8 15 -1 19 13 8 2 37 -18 53 -11 8 -12 12 -3 13 14 0
17 40 2 40 -19 0 -10 18 12 24 18 4 20 8 10 18 -14 14 -16 32 -2 23 10 -6 16
41 12 97 -1 19 4 29 18 33 11 3 20 14 20 23 -1 15 -2 15 -11 -1 -8 -13 -14
-15 -30 -7 -10 6 -19 19 -19 30 0 10 -4 20 -9 22 -13 4 -18 62 -7 68 6 3 14
-11 19 -30 11 -44 9 -42 38 -31 13 5 18 10 11 10 -20 1 -47 32 -35 39 6 4 13
18 17 32 7 23 6 24 -8 7 -13 -17 -18 -17 -42 -5 -36 17 -41 36 -12 47 20 7 23
16 23 50 0 32 3 40 14 36 11 -4 13 4 8 46 -5 38 -3 55 8 66 17 17 20 53 4 53
-6 0 -8 -9 -3 -22 6 -20 5 -21 -10 -9 -20 17 -21 37 -1 45 22 8 19 46 -4 46
-11 0 -21 5 -23 12 -6 16 14 91 26 100 6 4 4 13 -4 23 -12 14 -12 18 0 25 8 5
18 6 22 4 4 -3 8 -1 8 4 0 5 -11 15 -25 22 -23 12 -36 34 -17 28 4 -2 18 7 30
18 22 20 23 25 11 65 -7 24 -11 51 -10 59 2 8 0 12 -4 8 -4 -4 -14 0 -22 8
-14 13 -14 16 0 27 8 7 17 27 21 46 3 19 14 40 24 47 16 12 15 13 -5 14 -13 0
-23 -4 -23 -10 0 -16 -20 -12 -27 6 -3 9 0 20 8 26 11 7 11 11 2 15 -7 2 -13
16 -13 31 0 23 1 24 13 8 14 -19 47 -13 47 9 0 7 7 15 15 19 17 6 20 32 5 41
-17 11 -32 -5 -20 -20 8 -10 8 -16 -3 -22 -8 -4 -17 -15 -21 -23 -3 -8 -4 -3
-1 13 4 20 1 27 -10 27 -8 0 -15 5 -15 10 0 6 7 10 16 8 9 -2 20 7 25 20 10
26 6 28 -15 7 -8 -9 -17 -11 -21 -6 -3 6 6 18 20 27 14 9 25 23 25 30 0 8 9
14 19 14 26 0 37 18 17 26 -19 7 -20 32 -3 73 10 24 16 28 25 19 19 -19 15 22
-4 43 -15 17 -15 19 1 35 13 13 19 14 25 5 5 -9 10 -10 14 -2 4 6 2 11 -4 11
-7 0 -10 6 -7 14 3 7 0 19 -6 25 -9 10 -8 15 6 26 14 10 15 14 5 18 -10 4 -10
8 1 15 13 9 13 13 0 29 -13 16 -12 17 3 5 12 -9 18 -10 23 -2 9 14 3 20 -25
25 -28 5 -33 10 -37 35 -2 12 3 20 11 20 8 0 18 5 22 11 4 7 0 9 -14 5 -11 -4
-23 -2 -27 4 -3 5 -2 10 4 10 5 0 8 12 6 26 -2 22 1 25 22 21 25 -5 40 7 23
18 -5 3 -7 17 -4 31 4 14 2 24 -5 24 -6 0 -11 -7 -11 -15 0 -8 -4 -15 -10 -15
-5 0 -10 9 -10 20 0 11 7 20 15 20 8 0 15 3 15 6 0 12 -34 33 -52 34 -17 0
-17 1 0 19 15 16 18 17 29 3 7 -9 16 -13 19 -9 4 3 15 -4 25 -16 19 -23 26
-13 10 13 -7 10 -4 18 9 27 11 8 17 20 13 28 -4 11 -1 13 12 9 14 -6 16 -3 10
16 -5 16 -4 21 6 18 8 -3 19 -18 24 -35 13 -39 36 -32 28 9 -4 20 -2 29 4 25
6 -4 29 -9 52 -12 32 -4 41 -2 41 10 0 8 5 15 10 15 6 0 10 -4 10 -8 0 -4 84
-7 188 -6 129 1 186 6 184 13 -2 13 24 15 32 2 3 -5 25 -5 48 0 72 14 118 11
112 -6 -9 -22 13 -18 33 5 17 19 43 27 43 14 0 -4 -8 -13 -18 -20 -15 -12 -15
-15 -2 -24 27 -18 41 -12 34 15 -6 26 1 31 26 15 8 -5 19 -5 25 0 16 13 43 6
59 -16 8 -11 18 -15 23 -10 4 5 2 11 -4 13 -7 3 -13 9 -13 13 0 12 40 7 68 -9
20 -11 26 -10 42 4 15 14 19 14 32 2 10 -10 20 -12 31 -6 11 7 18 5 25 -7 8
-14 10 -14 24 0 9 8 19 12 23 8 4 -4 12 -7 18 -7 5 0 11 -10 12 -22 1 -13 5
-26 10 -30 4 -5 5 2 2 14 -6 25 -4 27 35 37 23 5 25 3 20 -16 -3 -12 -7 -17
-10 -10 -5 17 -32 15 -32 -2 0 -8 7 -17 16 -20 23 -9 13 -39 -16 -47 -25 -7
-25 -7 -2 -8 13 -1 20 -5 17 -11 -13 -20 14 -9 29 12 l16 22 0 -22 c0 -21 1
-22 16 -8 19 19 31 20 37 4 4 -8 6 -7 6 3 1 22 -25 45 -31 27 -4 -10 -9 -8
-22 5 -16 16 -11 22 17 18 14 -2 7 20 -8 25 -8 4 -15 10 -15 15 0 5 7 9 15 9
8 0 15 -7 15 -15 0 -12 28 -35 44 -35 3 0 12 15 19 33 l14 32 -3 -47 c-1 -26
-5 -52 -9 -58 -3 -5 0 -10 8 -10 8 0 18 -7 21 -16 3 -8 11 -12 16 -9 8 5 7 11
-1 21 -9 11 -7 14 10 14 15 0 21 -5 19 -17 -2 -11 3 -18 12 -18 10 0 15 10 15
30 0 22 -4 30 -17 29 -18 -2 -34 29 -23 46 3 5 16 10 28 10 22 -1 22 -1 3 -15
-17 -13 -18 -15 -3 -15 9 0 17 -4 17 -10 0 -5 10 -10 23 -10 21 -1 21 -1 4
-14 -11 -8 -14 -17 -8 -20 5 -4 12 -2 16 4 10 16 35 12 35 -7 0 -21 11 -11 14
14 2 12 10 17 25 15 11 -2 21 2 21 7 0 6 11 11 25 11 18 0 25 5 25 18 0 17 11
19 128 21 191 4 194 4 203 -10 14 -22 10 -32 -8 -24 -10 5 -26 8 -35 9 -10 0
-18 4 -18 8 0 8 -48 3 -56 -5 -9 -8 9 -38 29 -48 16 -9 22 -8 29 5 13 24 59
21 65 -4 4 -17 8 -18 20 -8 11 9 16 9 23 -2 5 -8 12 -11 17 -6 4 4 0 12 -10
17 -23 13 -22 25 5 32 17 5 19 9 9 20 -9 12 -6 15 17 20 36 7 74 -2 88 -21 8
-12 15 -12 30 -4 14 8 15 12 4 12 -12 0 -13 2 -1 9 15 10 49 4 70 -13 11 -8
13 -8 8 0 -9 15 47 24 143 22 41 0 119 0 173 1 90 1 97 2 97 21 0 11 5 20 11
20 6 0 9 -6 6 -13 -3 -7 1 -21 8 -31 11 -14 17 -15 34 -6 17 9 21 8 21 -5 0
-20 10 -19 26 3 8 10 13 12 14 5 0 -18 20 -16 20 2 0 17 27 20 32 4 3 -9 10
-9 26 0 12 6 22 8 22 4 0 -5 14 -17 31 -27 25 -15 33 -16 39 -5 10 15 42 21
50 9 3 -5 12 -5 19 0 10 6 6 12 -19 25 -26 13 -38 15 -51 6 -20 -12 -49 -5
-49 11 0 7 4 7 13 0 8 -7 18 -6 31 4 10 7 22 11 27 9 4 -3 11 0 15 6 3 6 0 15
-7 20 -11 7 -11 9 3 9 9 0 21 -13 26 -30z m-3518 -24 c0 -3 -4 -8 -10 -11 -5
-3 -10 -1 -10 4 0 6 5 11 10 11 6 0 10 -2 10 -4z m4074 -2 c17 -6 22 -24 8
-24 -5 0 -17 7 -28 15 -19 15 -8 20 20 9z m-2174 -24 c0 -5 -4 -10 -10 -10 -5
0 -10 5 -10 10 0 6 5 10 10 10 6 0 10 -4 10 -10z m230 -5 c0 -8 -9 -15 -20
-15 -22 0 -27 15 -7 23 21 9 27 7 27 -8z m1655 5 c3 -5 1 -10 -4 -10 -6 0 -11
5 -11 10 0 6 2 10 4 10 3 0 8 -4 11 -10z m-1715 -20 c0 -11 -2 -20 -4 -20 -2
0 -6 9 -9 20 -3 11 -1 20 4 20 5 0 9 -9 9 -20z m-1670 -20 c0 -13 -7 -20 -20
-20 -22 0 -28 25 -7 33 22 10 27 7 27 -13z m3620 -16 c0 -8 -4 -13 -9 -10 -5
4 -11 0 -14 -6 -2 -7 -7 -10 -11 -6 -11 9 13 50 25 43 5 -4 9 -13 9 -21z m720
10 c0 -10 -6 -14 -14 -11 -8 3 -16 1 -18 -5 -2 -6 -11 -12 -20 -14 -11 -1 -15
3 -11 12 3 8 9 11 14 8 5 -3 9 -1 9 5 0 5 8 12 18 14 9 3 18 5 20 6 1 0 2 -6
2 -15z m-2710 2 c0 -3 -4 -8 -10 -11 -5 -3 -10 -1 -10 4 0 6 5 11 10 11 6 0
10 -2 10 -4z m2547 -28 c-3 -8 -6 -5 -6 6 -1 11 2 17 5 13 3 -3 4 -12 1 -19z
m247 -4 c4 -10 13 -13 26 -9 11 4 20 2 20 -4 0 -6 -16 -10 -35 -9 -27 1 -35 6
-35 20 0 22 16 24 24 2z m59 -210 c2 -34 -1 -39 -20 -42 -13 -2 -23 2 -23 8 0
6 4 9 9 5 6 -3 14 2 19 12 7 12 6 20 -6 29 -9 7 -13 18 -8 29 10 27 26 5 29
-41z m-4548 -64 c3 -5 1 -10 -4 -10 -6 0 -11 5 -11 10 0 6 2 10 4 10 3 0 8 -4
11 -10z m4582 -22 c-3 -7 -5 -2 -5 12 0 14 2 19 5 13 2 -7 2 -19 0 -25z m-17
12 c0 -5 -4 -10 -10 -10 -5 0 -10 5 -10 10 0 6 5 10 10 10 6 0 10 -4 10 -10z
m-4553 -82 c-3 -8 -6 -5 -6 6 -1 11 2 17 5 13 3 -3 4 -12 1 -19z m4573 -88 c0
-5 -5 -10 -11 -10 -5 0 -7 5 -4 10 3 6 8 10 11 10 2 0 4 -4 4 -10z m-10 -115
c0 -23 -2 -24 -20 -15 -11 6 -20 16 -20 22 0 7 5 6 15 -2 12 -10 15 -10 15 4
0 9 2 16 5 16 3 0 5 -11 5 -25z m-4610 -15 c0 -5 -4 -10 -10 -10 -5 0 -10 5
-10 10 0 6 5 10 10 10 6 0 10 -4 10 -10z m-213 -122 c-3 -8 -6 -5 -6 6 -1 11
2 17 5 13 3 -3 4 -12 1 -19z m5003 -90 c0 -19 -2 -20 -10 -8 -13 19 -13 30 0
30 6 0 10 -10 10 -22z m-63 -20 c-3 -7 -5 -2 -5 12 0 14 2 19 5 13 2 -7 2 -19
0 -25z m423 -28 c0 -5 -4 -10 -10 -10 -5 0 -10 5 -10 10 0 6 5 10 10 10 6 0
10 -4 10 -10z m44 -122 c7 -5 4 -12 -10 -22 -14 -10 -23 -30 -27 -57 -6 -45
-23 -71 -35 -53 -4 6 -15 13 -25 17 -10 4 -16 11 -13 16 4 5 0 12 -6 14 -10 4
-9 8 2 16 8 6 12 11 8 11 -3 0 -13 3 -22 6 -11 4 -16 1 -16 -10 0 -22 -17 -20
-30 3 -15 29 -13 34 20 53 28 16 30 16 30 0 0 -9 5 -24 11 -32 10 -13 10 -13
6 0 -2 8 2 21 10 29 13 11 14 11 13 -5 -4 -32 -1 -37 15 -24 8 7 15 23 15 37
0 13 4 22 9 19 5 -3 12 2 16 12 7 15 9 15 13 -3 2 -11 9 -23 16 -27z m96 22
c0 -5 -2 -10 -4 -10 -3 0 -8 5 -11 10 -3 6 -1 10 4 10 6 0 11 -4 11 -10z
m-413 -52 c-3 -7 -5 -2 -5 12 0 14 2 19 5 13 2 -7 2 -19 0 -25z m413 22 c0 -5
-4 -10 -10 -10 -5 0 -10 5 -10 10 0 6 5 10 10 10 6 0 10 -4 10 -10z m-5343
-72 c-3 -8 -6 -5 -6 6 -1 11 2 17 5 13 3 -3 4 -12 1 -19z m5247 -7 c3 -5 -1
-14 -8 -20 -12 -10 -13 -8 -9 8 6 23 9 25 17 12z m-139 -28 c-3 -13 -1 -23 5
-23 5 0 10 -7 10 -15 0 -9 9 -15 24 -15 32 0 38 -10 20 -35 -12 -16 -14 -16
-14 -2 0 9 -6 14 -13 11 -10 -4 -87 82 -87 98 0 3 14 5 31 5 27 0 30 -3 24
-24z m-210 -24 c-10 -15 -25 -10 -19 6 4 8 10 12 15 9 5 -3 7 -10 4 -15z
m-4871 -4 c3 -9 0 -15 -9 -15 -8 0 -15 7 -15 15 0 8 4 15 9 15 5 0 11 -7 15
-15z m5186 -41 c0 -14 -4 -23 -9 -20 -5 3 -7 15 -4 26 7 28 13 25 13 -6z
m-320 1 c0 -9 6 -12 15 -9 19 8 20 -13 1 -31 -12 -12 -15 -12 -19 3 -3 9 -8
25 -12 35 -4 10 -3 17 4 17 6 0 11 -7 11 -15z m197 -17 c-3 -8 -6 -5 -6 6 -1
11 2 17 5 13 3 -3 4 -12 1 -19z m-137 -26 c0 -9 -4 -23 -9 -31 -6 -10 -9 -2
-9 23 0 20 4 33 9 30 5 -3 9 -13 9 -22z m275 -2 c3 -5 1 -10 -4 -10 -6 0 -11
5 -11 10 0 6 2 10 4 10 3 0 8 -4 11 -10z m-105 -14 c0 -11 -19 -15 -25 -6 -3
5 1 10 9 10 9 0 16 -2 16 -4z m80 -17 c14 -24 9 -32 -14 -23 -17 7 -23 44 -6
44 5 0 14 -9 20 -21z m-104 -36 c-10 -10 -19 5 -10 18 6 11 8 11 12 0 2 -7 1
-15 -2 -18z m154 12 c0 -8 4 -15 10 -15 5 0 1 -15 -10 -32 -11 -18 -20 -36
-20 -39 0 -12 55 -17 68 -6 11 8 12 5 7 -15 -7 -29 9 -46 28 -29 16 13 32 2
39 -26 4 -16 2 -20 -8 -16 -9 3 -14 -2 -14 -15 0 -32 -16 -35 -38 -7 -11 14
-25 25 -31 25 -6 0 -11 7 -11 16 0 8 -7 22 -15 30 -13 13 -18 13 -44 -1 -35
-18 -41 -18 -41 -5 0 6 8 14 18 17 36 14 44 58 12 68 -17 6 -18 8 -6 21 8 8
22 11 30 8 19 -7 21 7 4 24 -9 9 -8 12 5 12 9 0 17 -7 17 -15z m-110 -5 c0 -5
-2 -10 -4 -10 -3 0 -8 5 -11 10 -3 6 -1 10 4 10 6 0 11 -4 11 -10z m-433 -42
c2 -18 0 -20 -7 -8 -12 18 -13 30 -2 30 4 0 9 -10 9 -22z m46 -17 c-2 -9 -16
-21 -30 -28 -25 -12 -25 -12 -8 7 11 12 14 26 10 40 -6 19 -5 20 13 9 11 -7
17 -19 15 -28z m87 29 c0 -5 -4 -10 -10 -10 -5 0 -10 5 -10 10 0 6 5 10 10 10
6 0 10 -4 10 -10z m120 6 c0 -3 -4 -8 -10 -11 -5 -3 -10 -1 -10 4 0 6 5 11 10
11 6 0 10 -2 10 -4z m17 -28 c-3 -8 -6 -5 -6 6 -1 11 2 17 5 13 3 -3 4 -12 1
-19z m163 -30 c0 -5 -11 -8 -25 -8 -16 0 -25 -6 -25 -15 0 -8 8 -15 18 -15 23
0 42 -19 42 -42 0 -11 -7 -18 -20 -18 -11 0 -20 -4 -20 -10 0 -5 5 -10 10 -10
6 0 10 -11 10 -25 0 -16 6 -25 15 -25 8 0 15 5 15 10 0 6 4 10 9 10 5 0 9 -12
9 -27 0 -15 5 -29 11 -31 6 -2 11 -8 11 -14 0 -5 7 -16 15 -24 8 -8 11 -22 8
-32 -6 -15 -5 -15 11 -3 13 11 14 16 4 23 -8 6 -5 7 11 3 16 -5 21 -4 17 4 -4
6 -2 11 4 11 6 0 10 -6 9 -12 -3 -27 2 -37 16 -32 16 7 21 -11 5 -21 -5 -3 -7
-12 -4 -19 3 -8 1 -17 -5 -21 -7 -3 -11 2 -11 14 0 12 -4 21 -10 21 -14 0 -12
-54 2 -68 16 -16 38 -15 34 1 -1 6 -1 9 1 5 8 -14 43 -8 43 7 0 8 5 15 10 15
9 0 14 -15 11 -33 -1 -5 3 -6 8 -3 5 4 13 1 16 -5 4 -5 13 -8 21 -5 23 9 16
-20 -8 -31 -23 -11 -23 -11 5 -18 23 -6 26 -11 21 -29 -10 -30 -12 -89 -4
-101 14 -19 21 -65 10 -65 -5 0 -10 3 -10 8 0 4 -14 16 -30 27 -28 19 -30 24
-25 68 2 26 7 53 11 60 4 7 -4 2 -18 -11 -30 -27 -37 -17 -32 44 3 33 0 41
-14 41 -9 0 -20 -5 -24 -10 -4 -7 -12 -6 -22 2 -8 7 -20 10 -25 7 -9 -6 -26
11 -26 26 0 12 -15 21 -15 9 0 -9 -3 -9 -13 1 -8 7 -12 24 -11 39 3 21 -2 28
-19 33 -37 10 -50 7 -43 -9 6 -17 -29 -36 -51 -28 -7 3 -13 -1 -13 -8 -1 -10
-4 -9 -11 3 -11 19 -37 14 -55 -11 -10 -12 -13 -11 -24 9 -15 29 -40 55 -40
43 0 -5 7 -19 16 -32 20 -28 6 -45 -43 -54 -29 -6 -33 -4 -33 16 0 18 2 19 10
7 7 -11 10 -11 10 -2 0 7 4 11 10 7 5 -3 8 7 7 25 -2 25 -4 28 -13 15 -18 -25
-45 -8 -38 24 4 14 11 32 17 39 8 10 7 16 -4 23 -12 8 -11 11 4 20 24 14 10
32 -19 25 -17 -5 -24 -2 -24 8 0 8 -6 19 -14 23 -7 4 -18 29 -24 55 -5 26 -6
45 -1 42 5 -3 9 3 9 13 1 49 64 69 65 21 0 -14 3 -30 8 -34 4 -4 7 -1 7 6 0
10 5 9 18 -3 10 -10 26 -17 35 -17 9 0 20 -6 24 -14 4 -7 22 -20 39 -29 27
-14 31 -21 31 -61 1 -24 4 -54 8 -66 6 -18 9 -19 22 -8 9 7 18 12 20 11 13
-10 24 0 20 18 -4 16 -3 18 8 9 9 -8 15 -8 20 0 9 14 -4 32 -17 24 -8 -5 -9
-1 -5 10 9 23 -3 43 -14 25 -6 -10 -9 -6 -9 14 0 15 5 27 10 27 6 0 10 7 10
16 0 8 -4 12 -10 9 -5 -3 -10 1 -10 11 0 12 -4 14 -12 7 -7 -6 -23 -13 -35
-16 -25 -6 -31 11 -11 31 9 9 8 15 -8 26 -10 8 -16 17 -13 20 3 3 15 -3 27
-14 25 -24 52 -16 52 14 0 13 2 25 5 28 7 7 55 -14 55 -24z m50 -12 c-13 -13
-35 7 -25 24 5 8 11 8 21 -1 10 -8 12 -15 4 -23z m-295 -6 c3 -5 1 -10 -4 -10
-6 0 -11 5 -11 10 0 6 2 10 4 10 3 0 8 -4 11 -10z m-127 -18 c2 -7 -3 -12 -12
-12 -9 0 -16 7 -16 16 0 17 22 14 28 -4z m162 8 c0 -5 -5 -10 -11 -10 -5 0 -7
5 -4 10 3 6 8 10 11 10 2 0 4 -4 4 -10z m289 -79 c-7 -20 -15 -28 -25 -24 -18
7 -18 9 4 32 25 28 32 25 21 -8z m-464 -4 c19 -19 -19 -44 -41 -26 -19 15 -18
30 1 23 8 -4 15 -1 15 5 0 15 9 14 25 -2z m-4767 -66 c3 -8 -1 -12 -9 -9 -7 2
-15 10 -17 17 -3 8 1 12 9 9 7 -2 15 -10 17 -17z m4853 -64 c-13 -13 -26 -3
-16 12 3 6 11 8 17 5 6 -4 6 -10 -1 -17z m539 4 c0 -12 -20 -25 -27 -18 -7 7
6 27 18 27 5 0 9 -4 9 -9z m-42 -43 c-10 -6 -10 -10 2 -17 18 -12 9 -24 -12
-16 -8 3 -13 16 -12 28 1 12 3 26 3 31 1 5 8 3 16 -4 13 -11 13 -15 3 -22z
m-183 -123 c13 -1 10 -88 -3 -112 -10 -17 -11 -16 -20 7 -5 14 -6 26 -1 28 19
8 8 19 -15 15 -34 -7 -44 35 -15 59 12 10 26 15 33 11 6 -4 16 -8 21 -8z
m-505 -5 c0 -5 -5 -10 -11 -10 -5 0 -7 5 -4 10 3 6 8 10 11 10 2 0 4 -4 4 -10z
m620 -25 c0 -7 7 -18 16 -23 14 -8 14 -10 1 -15 -11 -4 -19 3 -26 24 -6 18 -6
29 0 29 5 0 9 -7 9 -15z m-57 -20 c4 -8 3 -16 -1 -19 -13 -8 -35 11 -28 23 10
15 23 14 29 -4z m-250 -45 c-3 -11 -7 -20 -9 -20 -2 0 -4 9 -4 20 0 11 4 20 9
20 5 0 7 -9 4 -20z m129 -22 c-6 -6 -7 0 -4 19 5 21 7 23 10 9 2 -10 0 -22 -6
-28z m159 10 c-21 -7 -21 -9 -5 -33 17 -26 14 -28 -22 -26 -12 1 -24 -5 -28
-14 -3 -9 -11 -13 -16 -10 -13 8 -42 -14 -34 -26 3 -5 10 -7 15 -4 15 10 10
-12 -6 -25 -12 -10 -15 -9 -17 6 -6 80 -3 104 13 104 5 0 9 -7 9 -15 0 -18 1
-18 34 -5 25 9 37 40 16 40 -5 0 -10 7 -10 15 0 8 6 12 14 9 8 -3 17 0 21 6 5
8 11 8 22 -1 13 -11 12 -14 -6 -21z m-331 8 c0 -16 -18 -31 -27 -22 -8 8 5 36
17 36 5 0 10 -6 10 -14z m-4923 -53 c3 -7 -4 -11 -16 -10 -12 1 -21 7 -21 15
0 16 32 12 37 -5z m5363 7 c0 -5 -5 -10 -11 -10 -5 0 -7 5 -4 10 3 6 8 10 11
10 2 0 4 -4 4 -10z m-12 -60 c24 -55 28 -80 11 -80 -6 0 -4 -7 5 -15 44 -44
25 -90 -22 -56 -39 27 -42 27 -42 -9 0 -16 5 -30 10 -30 6 0 10 -5 10 -10 0
-7 -6 -7 -20 0 -16 9 -20 8 -20 -5 0 -8 -4 -15 -9 -15 -6 0 -9 -12 -8 -26 1
-15 -4 -29 -12 -32 -11 -4 -13 4 -7 38 4 26 3 46 -3 49 -6 4 -11 24 -13 45 -1
20 -5 39 -9 41 -9 6 2 59 15 68 7 5 5 12 -6 21 -24 18 -23 30 1 23 12 -3 22 1
25 9 7 17 27 19 22 2 -13 -42 -16 -69 -6 -63 6 4 10 -4 10 -19 0 -14 5 -26 10
-26 6 0 10 -6 10 -14 0 -8 7 -17 16 -20 12 -5 14 -1 9 15 -4 11 -2 26 4 33 12
14 4 73 -10 82 -11 7 -12 44 -1 44 5 0 18 -23 30 -50z m-603 -10 c3 -5 1 -10
-4 -10 -6 0 -11 5 -11 10 0 6 2 10 4 10 3 0 8 -4 11 -10z m220 -29 c3 -5 1
-12 -5 -16 -5 -3 -10 1 -10 9 0 18 6 21 15 7z m150 0 c3 -6 -4 -9 -15 -8 -11
1 -20 5 -20 9 0 11 28 10 35 -1z m28 -52 c-4 -14 0 -25 11 -31 10 -5 16 -19
15 -31 -2 -35 2 -44 10 -23 7 19 8 19 13 -1 3 -11 2 -27 -2 -34 -13 -20 -40 7
-40 40 0 15 -11 36 -25 50 -23 21 -26 49 -4 36 5 -4 9 -1 9 4 0 6 4 11 9 11 5
0 7 -10 4 -21z m-173 -5 c0 -8 -4 -12 -10 -9 -5 3 -10 10 -10 16 0 5 5 9 10 9
6 0 10 -7 10 -16z m-5130 -8 c0 -3 -4 -8 -10 -11 -5 -3 -10 -1 -10 4 0 6 5 11
10 11 6 0 10 -2 10 -4z m5194 -28 c5 -21 3 -28 -8 -28 -19 0 -33 23 -18 28 7
2 12 11 12 20 0 21 6 13 14 -20z m394 -9 c12 -19 11 -19 -8 -9 -11 6 -20 15
-20 20 0 17 15 11 28 -11z m-5592 -3 c3 -8 1 -22 -4 -32 -8 -14 -10 -11 -14
15 -5 31 8 43 18 17z m5286 -26 c6 0 8 -7 4 -15 -3 -8 -2 -14 2 -12 10 3 52
-40 45 -47 -3 -3 -13 -1 -23 4 -10 5 -20 7 -23 4 -2 -3 -11 9 -18 25 -8 17
-17 31 -21 31 -5 0 -8 5 -8 11 0 6 7 8 16 5 9 -3 20 -6 26 -6z m-5597 -10 c3
-5 1 -10 -4 -10 -6 0 -11 5 -11 10 0 6 2 10 4 10 3 0 8 -4 11 -10z m5195 0
c-8 -5 -19 -10 -25 -10 -5 0 -3 5 5 10 8 5 20 10 25 10 6 0 3 -5 -5 -10z m70
0 c0 -5 -6 -13 -13 -17 -8 -4 -19 -17 -25 -28 -11 -19 -11 -19 -12 6 0 14 5
30 12 37 14 14 38 16 38 2z m194 1 c3 -5 -5 -8 -18 -7 -13 0 -22 4 -19 9 6 10
31 9 37 -2z m52 -28 c-11 -11 -17 4 -9 23 7 18 8 18 11 1 2 -10 1 -21 -2 -24z
m317 31 c8 -8 -3 -34 -14 -34 -5 0 -9 9 -9 20 0 19 11 26 23 14z m-5433 -14
c0 -5 -4 -10 -9 -10 -6 0 -13 5 -16 10 -3 6 1 10 9 10 9 0 16 -4 16 -10z
m-150 -4 c0 -3 -4 -8 -10 -11 -5 -3 -10 -1 -10 4 0 6 5 11 10 11 6 0 10 -2 10
-4z m4952 -28 c-7 -7 -12 -8 -12 -2 0 14 12 26 19 19 2 -3 -1 -11 -7 -17z
m-5067 -19 c-10 -15 -25 -10 -19 6 4 8 10 12 15 9 5 -3 7 -10 4 -15z m-108
-21 c-3 -7 -5 -2 -5 12 0 14 2 19 5 13 2 -7 2 -19 0 -25z m53 12 c0 -5 -2 -10
-4 -10 -3 0 -8 5 -11 10 -3 6 -1 10 4 10 6 0 11 -4 11 -10z m140 1 c0 -5 3
-16 6 -24 4 -10 -1 -15 -13 -14 -25 3 -39 27 -22 38 18 11 29 11 29 0z m240
-15 c0 -3 -4 -8 -10 -11 -5 -3 -10 -1 -10 4 0 6 5 11 10 11 6 0 10 -2 10 -4z
m-408 -28 c-7 -7 -12 -8 -12 -2 0 14 12 26 19 19 2 -3 -1 -11 -7 -17z m318 12
c0 -5 -2 -10 -4 -10 -3 0 -8 5 -11 10 -3 6 -1 10 4 10 6 0 11 -4 11 -10z
m5325 -20 c27 -10 28 -12 12 -22 -14 -7 -22 -6 -32 8 -12 17 -13 17 -30 0 -10
-9 -20 -14 -24 -11 -3 4 2 11 12 16 9 6 17 18 17 27 0 11 3 13 8 5 4 -6 21
-17 37 -23z m-6045 -4 c0 -3 -4 -8 -10 -11 -5 -3 -10 -1 -10 4 0 6 5 11 10 11
6 0 10 -2 10 -4z m380 -11 c0 -9 -9 -25 -20 -37 -16 -17 -20 -18 -20 -6 0 9 7
18 15 22 8 3 12 12 9 21 -3 8 -1 15 5 15 6 0 11 -7 11 -15z m173 -52 c4 -33 2
-43 -9 -43 -8 0 -14 5 -14 11 0 5 -4 8 -9 4 -6 -3 -9 3 -9 12 1 10 -1 32 -5
48 -6 24 -5 26 3 12 14 -21 31 -13 24 11 -5 14 -4 14 4 2 5 -8 12 -34 15 -57z
m39 25 c-7 -7 -12 -8 -12 -2 0 14 12 26 19 19 2 -3 -1 -11 -7 -17z m-583 -46
c8 -36 7 -41 -5 -31 -8 7 -14 29 -13 53 1 45 4 42 18 -22z m461 44 c0 -2 -7
-6 -15 -10 -8 -3 -15 -1 -15 4 0 6 7 10 15 10 8 0 15 -2 15 -4z m5620 -6 c8
-5 11 -13 6 -17 -5 -4 -11 -2 -13 5 -3 6 -9 10 -13 7 -5 -3 -11 -1 -15 5 -8
13 15 13 35 0z m-5490 -46 c0 -8 -5 -12 -10 -9 -6 4 -8 11 -5 16 9 14 15 11
15 -7z m-584 -81 c-11 -11 -19 6 -11 24 8 17 8 17 12 0 3 -10 2 -21 -1 -24z
m284 33 c0 -3 -4 -8 -10 -11 -5 -3 -10 -1 -10 4 0 6 5 11 10 11 6 0 10 -2 10
-4z m270 -10 c0 -3 -4 -8 -10 -11 -5 -3 -10 -1 -10 4 0 6 5 11 10 11 6 0 10
-2 10 -4z m207 -28 c-3 -7 -5 -2 -5 12 0 14 2 19 5 13 2 -7 2 -19 0 -25z
m-670 -20 c-3 -8 -6 -5 -6 6 -1 11 2 17 5 13 3 -3 4 -12 1 -19z m52 -11 c0
-21 -1 -21 -9 -2 -12 28 -12 37 0 30 6 -3 10 -16 9 -28z m5928 11 c-3 -8 -6
-5 -6 6 -1 11 2 17 5 13 3 -3 4 -12 1 -19z m-5795 -30 c-3 -13 -7 -16 -12 -8
-4 7 -5 21 -2 32 3 13 7 16 12 8 4 -7 5 -21 2 -32z m-269 12 c-4 -14 0 -20 11
-20 9 0 16 -5 16 -11 0 -8 5 -8 15 1 22 18 18 -4 -4 -24 -19 -18 -47 -14 -36
5 4 5 -3 9 -14 9 -12 0 -21 5 -21 10 0 6 4 10 9 10 5 0 11 9 14 20 3 11 7 20
10 20 3 0 3 -9 0 -20z m337 -30 c0 -13 -5 -17 -20 -13 -11 3 -20 9 -20 14 0 5
8 5 17 2 13 -5 15 -2 10 11 -4 10 -3 15 3 11 6 -3 10 -14 10 -25z m-405 10 c3
-5 -1 -10 -10 -10 -9 0 -13 5 -10 10 3 6 8 10 10 10 2 0 7 -4 10 -10z m5536
-36 c-13 -23 -21 -31 -21 -21 0 17 31 68 38 62 2 -2 -6 -20 -17 -41z m119 27
c0 -6 -4 -13 -10 -16 -5 -3 -10 1 -10 9 0 9 5 16 10 16 6 0 10 -4 10 -9z
m-5168 -33 c-7 -7 -12 -8 -12 -2 0 14 12 26 19 19 2 -3 -1 -11 -7 -17z m-201
-36 c3 -19 0 -50 -7 -70 -7 -20 -13 -29 -14 -20 0 12 -7 15 -25 12 -14 -2 -25
0 -25 5 0 5 10 11 21 13 29 4 49 35 30 47 -7 5 -10 14 -7 20 4 6 2 11 -4 11
-6 0 -8 4 -5 10 12 19 30 5 36 -28z m119 34 c0 -3 -4 -8 -10 -11 -5 -3 -10 -1
-10 4 0 6 5 11 10 11 6 0 10 -2 10 -4z m-245 -33 c-4 -16 -9 -51 -11 -80 -1
-29 -8 -61 -13 -72 -15 -27 -14 -30 9 -28 11 1 20 5 20 10 0 5 7 4 15 -3 15
-13 14 -14 30 35 2 8 14 15 26 15 12 0 19 -3 15 -7 -4 -5 -13 -8 -19 -8 -22 0
-19 -42 4 -59 13 -8 19 -19 15 -23 -4 -5 -16 2 -26 14 -9 12 -19 20 -21 18 -4
-4 -51 -15 -79 -18 -9 -1 -14 5 -12 15 1 10 -9 40 -23 68 -20 39 -23 55 -15
65 6 7 10 19 9 27 -4 29 2 45 16 45 10 0 15 -10 15 -29 0 -15 5 -28 10 -28 6
0 10 9 10 19 0 27 10 51 22 51 6 0 7 -11 3 -27z m214 -9 c3 -16 1 -17 -13 -5
-19 16 -21 34 -3 29 6 -3 14 -13 16 -24z m391 -44 c0 -5 -2 -10 -4 -10 -3 0
-8 5 -11 10 -3 6 -1 10 4 10 6 0 11 -4 11 -10z m4803 -39 c-9 -12 -21 -21 -25
-21 -14 0 -8 18 15 44 15 17 23 21 25 11 2 -7 -5 -23 -15 -34z m90 2 c-3 -10
-13 -26 -21 -35 -9 -10 -13 -29 -10 -48 3 -17 1 -33 -4 -36 -4 -3 -8 0 -8 5 0
22 -31 10 -41 -16 -5 -14 -21 -36 -36 -49 -16 -14 -24 -28 -20 -38 5 -12 0
-16 -19 -16 -20 0 -25 4 -20 16 3 9 9 26 12 39 3 13 12 26 20 29 8 3 14 13 14
21 0 11 7 15 22 13 15 -2 26 5 35 22 7 14 17 24 23 23 5 -2 10 5 10 16 0 10 7
24 15 31 8 7 15 19 15 26 0 8 4 14 10 14 5 0 7 -8 3 -17z m-4884 -55 c1 -5 -3
-8 -9 -8 -5 0 -10 12 -9 28 0 24 1 25 9 7 5 -11 9 -23 9 -27z m5329 -7 c-15
-5 -21 7 -13 26 7 17 8 17 15 -2 4 -11 3 -22 -2 -24z m-5685 14 c-3 -9 -8 -14
-10 -11 -3 3 -2 9 2 15 9 16 15 13 8 -4z m131 -10 c-4 -8 -10 -15 -15 -15 -4
0 -6 7 -3 15 4 8 10 15 15 15 4 0 6 -7 3 -15z m-38 -45 c22 -19 17 -33 -11
-28 -14 3 -28 1 -31 -3 -10 -16 -24 -9 -24 12 0 11 5 17 10 14 6 -3 10 1 10
10 0 9 6 22 13 29 10 12 13 11 15 -4 2 -10 10 -24 18 -30z m103 10 c-13 -37
-22 -38 -44 -4 -16 25 -16 26 3 20 11 -4 23 -2 27 4 14 22 23 8 14 -20z m5076
-11 c5 -29 13 -43 27 -47 15 -3 19 -11 15 -29 -3 -15 1 -27 9 -30 20 -7 17
-20 -7 -44 -16 -16 -19 -26 -12 -38 30 -51 -44 -80 -76 -29 -9 15 -10 23 -2
31 8 8 11 8 11 -1 0 -7 5 -12 11 -12 6 0 9 9 6 20 -3 10 0 21 7 24 6 2 1 5
-10 5 -30 1 -41 19 -41 69 -1 37 2 42 23 42 32 0 37 14 14 35 -15 14 -17 21
-9 32 19 22 27 15 34 -28z m-5029 -17 c-14 -14 -18 -15 -25 -3 -6 9 -5 21 2
32 9 15 12 15 25 2 13 -13 13 -16 -2 -31z m5460 21 c-10 -10 -19 5 -10 18 6
11 8 11 12 0 2 -7 1 -15 -2 -18z m-5688 -1 c2 -7 -6 -12 -21 -12 -14 0 -33 -3
-43 -7 -12 -4 -15 -3 -10 6 9 14 46 31 60 27 6 -1 12 -8 14 -14z m5786 -35
c-2 -7 -13 -18 -24 -25 -25 -16 -28 3 -4 29 18 20 36 17 28 -4z m-74 9 c0 -2
-8 -10 -17 -17 -16 -13 -17 -12 -4 4 13 16 21 21 21 13z m150 -37 c0 -5 -7 -9
-15 -9 -8 0 -15 7 -15 15 0 9 6 12 15 9 8 -4 15 -10 15 -15z m-5342 -105 c13
8 42 -3 42 -15 0 -12 -67 -11 -75 1 -3 6 -3 15 1 21 5 8 9 8 14 -1 4 -7 12
-10 18 -6z m7 -44 c3 -5 1 -10 -4 -10 -6 0 -11 5 -11 10 0 6 2 10 4 10 3 0 8
-4 11 -10z m-645 -15 c-7 -9 -15 -13 -17 -11 -7 7 7 26 19 26 6 0 6 -6 -2 -15z
m4663 -39 c3 -8 0 -17 -8 -20 -10 -3 -12 0 -8 11 5 12 2 15 -10 10 -9 -3 -17
-2 -17 3 0 16 37 12 43 -4z m-65 -21 c-3 -3 -9 2 -12 12 -6 14 -5 15 5 6 7 -7
10 -15 7 -18z m-173 5 c3 -5 1 -10 -4 -10 -6 0 -11 5 -11 10 0 6 2 10 4 10 3
0 8 -4 11 -10z m145 -4 c0 -11 -19 -15 -25 -6 -3 5 1 10 9 10 9 0 16 -2 16 -4z
m260 -17 c0 -5 -7 -9 -15 -9 -15 0 -20 12 -9 23 8 8 24 -1 24 -14z m-4840 -46
c0 -3 -7 0 -15 7 -8 7 -15 22 -15 34 0 18 2 17 15 -8 8 -15 15 -31 15 -33z
m4200 32 c0 -8 -7 -15 -15 -15 -26 0 -18 20 13 29 1 1 2 -6 2 -14z m160 -17
c0 -5 -4 -6 -10 -3 -5 3 -10 0 -10 -7 0 -9 -3 -9 -10 2 -15 23 -12 29 10 23
11 -3 20 -10 20 -15z m525 2 c3 -5 1 -10 -4 -10 -6 0 -11 5 -11 10 0 6 2 10 4
10 3 0 8 -4 11 -10z m92 -82 c-3 -8 -6 -5 -6 6 -1 11 2 17 5 13 3 -3 4 -12 1
-19z m-2857 8 c0 -3 -4 -8 -10 -11 -5 -3 -10 -1 -10 4 0 6 5 11 10 11 6 0 10
-2 10 -4z m3230 -45 c0 -28 -14 -33 -36 -15 -17 14 -17 15 -1 10 11 -3 17 0
17 9 0 8 5 15 10 15 6 0 10 -9 10 -19z m-4520 -31 c0 -5 -7 -10 -15 -10 -8 0
-15 5 -15 10 0 6 7 10 15 10 8 0 15 -4 15 -10z m-853 -117 c-3 -10 -5 -2 -5
17 0 19 2 27 5 18 2 -10 2 -26 0 -35z m45 -5 c-15 -15 -24 -6 -16 16 5 12 10
14 17 7 8 -8 8 -14 -1 -23z m34 -146 c-13 -13 -16 -11 -29 19 -13 32 -12 34 5
37 11 2 17 9 14 17 -2 7 -2 16 2 20 4 4 11 -12 15 -35 7 -33 5 -46 -7 -58z
m934 65 c0 -5 -4 -5 -10 -2 -5 3 -10 14 -10 23 0 15 2 15 10 2 5 -8 10 -19 10
-23z m10 -65 c0 -13 -4 -20 -10 -17 -5 3 -10 21 -10 38 0 24 3 28 10 17 5 -8
10 -25 10 -38z m-50 -13 c0 -5 -4 -9 -10 -9 -5 0 -10 7 -10 16 0 8 5 12 10 9
6 -3 10 -10 10 -16z m1685 1 c3 -5 1 -10 -4 -10 -6 0 -11 5 -11 10 0 6 2 10 4
10 3 0 8 -4 11 -10z m-2570 -44 c0 -16 -6 -27 -17 -29 -11 -3 -18 0 -18 9 0 8
5 14 10 14 6 0 10 10 10 22 0 29 13 14 15 -16z m1715 24 c0 -5 -2 -10 -4 -10
-3 0 -8 5 -11 10 -3 6 -1 10 4 10 6 0 11 -4 11 -10z m-685 -10 c3 -5 2 -10 -4
-10 -5 0 -13 5 -16 10 -3 6 -2 10 4 10 5 0 13 -4 16 -10z m2540 -67 c-2 -41
-15 -75 -15 -40 0 20 -26 23 -33 5 -3 -9 -11 -4 -25 12 -11 14 -17 29 -14 34
3 6 7 5 10 -2 6 -20 22 -14 22 9 0 11 4 18 8 15 5 -3 15 6 23 20 12 23 14 23
20 7 3 -10 5 -37 4 -60z m-2651 46 c13 11 15 8 14 -17 -1 -28 -3 -30 -25 -21
-34 13 -34 12 -27 -16 4 -15 2 -25 -5 -25 -6 0 -11 19 -11 45 0 42 1 44 19 33
15 -9 23 -9 35 1z m2556 -19 c-8 -5 -17 -7 -19 -4 -3 3 1 9 9 14 8 5 17 7 19
4 3 -3 -1 -9 -9 -14z m135 -40 c-3 -5 -11 -10 -16 -10 -6 0 -7 5 -4 10 3 6 11
10 16 10 6 0 7 -4 4 -10z m-1788 -22 c-3 -8 -6 -5 -6 6 -1 11 2 17 5 13 3 -3
4 -12 1 -19z m3549 -24 c-18 -13 -14 -14 38 -14 42 0 56 -3 53 -12 -2 -7 -17
-12 -33 -11 -16 2 -54 3 -84 4 -41 1 -49 4 -32 10 12 5 22 13 22 19 0 11 42
31 50 23 3 -3 -4 -11 -14 -19z m-4486 6 c0 -5 -4 -10 -10 -10 -5 0 -10 5 -10
10 0 6 5 10 10 10 6 0 10 -4 10 -10z m71 -13 c21 -8 32 -7 53 6 32 21 38 21
34 0 -3 -16 9 -18 132 -19 208 -3 212 -3 204 -15 -5 -8 -1 -8 14 0 32 17 192
15 192 -3 0 -7 -7 -19 -15 -26 -8 -7 -15 -21 -15 -31 0 -14 -9 -19 -47 -21
-28 -2 -57 3 -70 10 -17 10 -27 11 -43 2 -39 -21 -17 -35 51 -33 35 2 70 2 77
2 104 -4 184 10 209 38 13 13 23 26 23 29 0 11 -24 2 -35 -13 -14 -19 -35 -9
-35 17 0 10 -5 22 -11 26 -22 13 12 21 82 19 38 -2 75 -8 83 -14 7 -6 26 -8
43 -5 20 4 33 1 42 -10 11 -13 10 -17 -5 -22 -11 -3 -27 -10 -36 -15 -24 -12
-28 -11 -28 6 0 23 -28 18 -55 -10 -37 -36 -32 -48 20 -43 25 2 45 1 45 -2 0
-3 16 -14 35 -24 44 -24 56 -14 61 46 3 24 11 48 20 55 9 6 13 16 9 22 -12 21
27 11 46 -11 28 -34 23 -46 -21 -53 -36 -6 -40 -10 -40 -36 0 -30 6 -34 29
-20 9 6 24 5 39 -2 20 -9 26 -8 37 6 17 23 35 22 35 -3 0 -11 1 -20 3 -20 1 0
18 4 37 10 27 8 42 6 68 -6 18 -8 51 -16 72 -16 22 0 43 -4 46 -9 7 -12 61
-11 84 1 13 7 19 6 24 -5 7 -19 33 -9 41 16 4 10 11 19 16 19 6 0 8 -8 4 -19
-6 -19 6 -33 38 -44 14 -5 20 -2 24 12 4 16 13 19 54 17 33 -1 49 -5 49 -14 0
-23 45 -9 48 15 5 33 23 42 69 36 31 -4 43 -11 47 -27 6 -21 6 -21 25 4 15 18
22 21 33 13 8 -7 30 -8 63 -3 28 5 75 9 106 9 39 1 61 6 70 17 13 16 56 15
121 -1 15 -4 35 -4 44 -1 24 9 -1 36 -26 29 -11 -3 -20 -1 -20 3 0 5 -3 19 -6
30 -5 19 -2 21 23 16 35 -6 74 -40 71 -61 -2 -11 7 -17 30 -19 33 -3 43 13 21
35 -7 7 -7 24 2 57 9 35 16 46 31 46 11 0 29 5 41 11 21 12 21 12 3 -16 -13
-19 -15 -30 -7 -38 13 -13 61 10 61 29 0 9 20 13 70 13 66 0 97 -14 48 -21
-24 -3 -34 -28 -24 -55 5 -13 9 -14 18 -5 17 17 38 15 38 -3 0 -8 -9 -15 -20
-15 -13 0 -20 -7 -20 -20 0 -22 38 -28 56 -10 7 7 25 8 52 1 38 -8 42 -7 42
10 0 21 -11 24 -26 9 -7 -7 -17 -5 -30 5 -17 13 -15 14 32 15 43 0 53 -3 57
-20 3 -11 14 -20 25 -20 23 0 46 -25 37 -40 -3 -5 -14 -10 -24 -10 -20 0 -33
-9 -26 -20 3 -4 19 -4 37 -1 24 5 33 12 31 27 -2 19 13 34 35 34 9 0 11 -9 7
-33 -6 -28 -3 -35 19 -47 24 -12 29 -11 54 6 15 12 31 30 37 42 12 28 44 35
72 16 29 -18 29 -30 2 -37 -12 -3 -18 -10 -14 -16 9 -16 42 -13 49 4 6 18 46
20 46 3 0 -6 -7 -20 -17 -30 -25 -28 -8 -32 22 -4 14 13 25 32 23 42 -4 21 58
42 75 25 18 -18 48 -12 54 9 6 24 26 26 43 5 9 -10 16 -11 29 -3 12 7 34 6 79
-6 58 -15 65 -15 87 0 14 9 25 24 25 34 0 21 -24 43 -35 32 -4 -4 -2 3 4 16 6
12 18 22 26 22 8 0 15 7 15 15 0 23 31 31 42 12 5 -10 21 -17 35 -17 22 0 24
-2 13 -15 -7 -9 -10 -19 -6 -22 9 -9 52 42 70 81 l13 28 6 -23 c8 -31 49 -49
94 -42 30 5 35 4 32 -13 -3 -15 -25 -24 -106 -43 -57 -14 -103 -30 -103 -36 0
-7 12 -18 28 -26 15 -8 31 -20 36 -27 6 -10 20 -12 55 -7 57 9 74 22 66 52 -6
24 8 30 33 15 10 -7 10 -14 -3 -38 -21 -41 -19 -48 21 -67 26 -13 40 -15 54
-7 14 7 25 7 38 -1 24 -15 52 -5 59 21 5 17 13 19 65 18 47 -1 62 2 70 15 9
17 38 24 38 9 0 -4 -6 -14 -12 -20 -10 -10 -10 -15 2 -22 9 -5 16 -6 18 0 4
10 73 1 87 -11 5 -5 17 -9 28 -9 14 0 17 5 12 19 -7 24 23 36 71 26 19 -3 44
-3 54 0 27 9 26 45 0 45 -11 0 -19 -6 -17 -12 3 -19 -35 -21 -58 -4 -19 15
-19 15 7 16 15 0 36 9 47 21 24 26 55 21 59 -8 4 -26 28 -35 102 -39 119 -6
118 -6 66 -52 -23 -20 -53 -34 -88 -41 -67 -13 -397 -12 -421 1 -13 6 -25 5
-40 -4 -43 -27 -100 -40 -129 -29 -18 7 -38 7 -64 0 -26 -8 -55 -7 -100 1 -34
7 -75 9 -91 6 -15 -3 -66 -8 -112 -11 -69 -4 -87 -2 -102 11 -16 14 -21 15
-35 3 -9 -8 -50 -15 -98 -18 -87 -4 -94 -4 -173 1 -34 3 -54 0 -57 -8 -6 -15
-193 -12 -221 3 -12 7 -27 8 -44 2 -29 -12 -298 0 -324 13 -14 7 -24 5 -38 -8
-10 -9 -20 -15 -22 -13 -1 2 -10 18 -19 34 -11 19 -26 31 -43 33 -25 3 -26 2
-20 -27 7 -33 -9 -43 -33 -19 -9 9 -17 8 -37 -2 -21 -11 -36 -11 -89 -1 -36 7
-74 10 -85 6 -12 -3 -37 -1 -55 5 -27 9 -51 8 -112 -5 -68 -14 -79 -14 -86 -1
-6 11 -14 12 -37 3 -22 -8 -43 -8 -78 0 -26 6 -60 9 -76 6 -15 -3 -34 0 -41 7
-10 7 -21 8 -33 2 -19 -9 -158 -16 -333 -16 -88 1 -112 4 -147 22 -50 26 -79
27 -122 6 -24 -12 -35 -13 -45 -5 -8 7 -29 9 -54 5 -42 -7 -87 10 -76 28 8 12
-25 4 -70 -18 -35 -17 -50 -10 -35 17 18 34 2 34 -27 0 -25 -30 -27 -31 -45
-15 -11 9 -19 24 -19 32 0 12 -4 12 -20 -3 -11 -10 -20 -26 -20 -37 0 -21 -12
-23 -42 -7 -17 9 -24 8 -33 -5 -16 -21 -67 -31 -93 -17 -15 8 -23 8 -28 0 -3
-6 -14 -9 -24 -6 -9 2 -38 1 -64 -3 -26 -4 -70 -3 -98 1 -43 7 -53 6 -64 -9
-12 -16 -14 -16 -35 5 -20 19 -24 20 -34 7 -9 -13 -20 -14 -62 -6 -29 5 -58 5
-65 1 -16 -10 -58 -1 -80 18 -14 13 -21 13 -50 -1 -20 -10 -59 -16 -103 -15
-85 0 -153 -6 -223 -22 -45 -10 -55 -10 -70 4 -14 13 -33 16 -80 13 -34 -3
-67 -8 -73 -12 -20 -12 -319 -8 -402 5 -95 15 -134 5 -139 -37 -2 -22 -8 -27
-28 -24 -14 1 -40 3 -58 5 -18 1 -37 8 -42 16 -12 20 -65 -3 -56 -24 6 -17
-19 -21 -29 -5 -4 6 -8 36 -9 68 -2 31 -8 68 -13 82 -6 14 -13 44 -17 67 -5
37 -3 44 20 62 14 11 31 18 37 16 41 -12 67 -14 67 -5 0 5 -7 10 -15 10 -9 0
-29 7 -45 15 -21 11 -27 20 -23 35 5 18 14 20 92 21 240 3 386 -1 389 -11 2
-5 10 -10 18 -10 9 0 12 5 9 10 -7 12 -16 11 161 13 110 1 146 -2 159 -13 15
-12 19 -12 29 3 11 14 27 15 117 11 61 -4 107 -11 112 -18 5 -8 9 -8 15 0 4 7
38 14 76 18 38 3 72 9 75 11 2 3 -1 5 -7 5 -7 0 -12 5 -12 11 0 7 7 8 18 4 9
-4 29 -12 43 -18z m2019 -16 c2 -1 -5 -8 -17 -16 -12 -9 -20 -22 -17 -29 3 -9
-5 -15 -23 -19 -34 -6 -43 -2 -43 23 0 10 -6 22 -12 27 -8 5 4 10 32 13 39 5
53 5 80 1z m836 -1 c32 0 44 -4 44 -15 0 -8 5 -15 10 -15 6 0 10 -7 10 -15 0
-8 -2 -15 -4 -15 -2 0 -11 -3 -19 -6 -9 -3 -16 3 -20 15 -3 12 -13 21 -24 21
-24 0 -73 22 -73 34 0 4 7 5 16 2 9 -3 36 -6 60 -6z m120 -6 c-4 -9 -1 -23 5
-30 15 -19 -9 -19 -33 0 -29 22 -20 43 21 45 8 1 11 -5 7 -15z m1199 7 c7 -12
-31 -25 -46 -15 -8 4 -7 9 2 15 18 11 36 11 44 0z m-3488 -7 c-3 -3 -12 -4
-19 -1 -8 3 -5 6 6 6 11 1 17 -2 13 -5z m493 -1 c-1 -16 -28 -43 -44 -43 -17
0 -20 9 -10 34 6 16 54 23 54 9z m78 -10 c6 -19 -25 -16 -32 3 -4 11 -1 14 11
12 9 -2 18 -9 21 -15z m352 8 c0 -6 -4 -13 -10 -16 -6 -4 -5 -13 2 -24 11 -18
5 -51 -9 -51 -26 1 -35 19 -28 59 5 31 11 41 26 41 10 0 19 -4 19 -9z m120
-31 c5 0 10 -7 10 -15 0 -8 -4 -15 -10 -15 -5 0 -10 7 -10 15 0 22 -18 18 -31
-7 -11 -21 -12 -21 -25 -3 -19 26 -18 32 14 47 24 12 28 12 34 -4 4 -10 12
-18 18 -18z m168 16 c12 -26 7 -36 -17 -36 -9 0 -22 14 -28 30 -10 28 -10 30
11 30 14 0 27 -9 34 -24z m310 18 c18 -5 20 -9 11 -20 -15 -19 -22 -18 -37 6
-13 21 -10 23 26 14z m216 -9 c-4 -8 -12 -15 -20 -15 -8 0 -11 6 -8 15 4 8 12
15 20 15 8 0 11 -6 8 -15z m773 9 c-3 -3 -12 -4 -19 -1 -8 3 -5 6 6 6 11 1 17
-2 13 -5z m107 -13 c10 -11 15 -25 11 -31 -4 -6 -2 -16 4 -23 21 -26 -15 -47
-56 -33 -15 5 -23 15 -23 31 0 26 15 41 25 25 9 -14 37 -12 32 3 -2 6 -11 12
-20 12 -9 0 -24 8 -34 18 -16 16 -16 17 13 17 18 0 38 -8 48 -19z m78 -39
c-22 -6 -26 6 -12 35 l13 28 6 -30 c5 -21 2 -31 -7 -33z m151 52 c9 -10 -4
-34 -19 -34 -8 0 -14 2 -14 4 0 2 -3 11 -6 20 -4 11 0 16 13 16 11 0 22 -3 26
-6z m117 -1 c-1 -18 -17 -31 -49 -38 -29 -6 -33 -5 -28 10 4 9 7 21 7 26 0 5
16 9 35 9 19 0 35 -3 35 -7z m330 3 c0 -9 -30 -14 -35 -6 -4 6 3 10 14 10 12
0 21 -2 21 -4z m128 -12 c15 -15 14 -18 -7 -36 -14 -11 -32 -16 -42 -13 -11 4
-19 2 -19 -4 0 -6 -4 -11 -10 -11 -5 0 -10 11 -10 25 0 18 5 25 20 25 11 0 23
7 26 15 8 19 21 19 42 -1z m-628 -12 c0 -10 -22 -32 -32 -32 -4 0 -8 9 -8 20
0 13 7 20 20 20 11 0 20 -4 20 -8z m910 -12 c0 -5 -4 -10 -10 -10 -5 0 -10 5
-10 10 0 6 5 10 10 10 6 0 10 -4 10 -10z m-3682 -12 c-7 -19 -38 -22 -38 -4 0
10 9 16 21 16 12 0 19 -5 17 -12z m629 -14 c-9 -9 -28 6 -21 18 4 6 10 6 17
-1 6 -6 8 -13 4 -17z m741 20 c34 -10 26 -24 -13 -24 -24 0 -35 5 -35 15 0 16
12 18 48 9z m2502 -13 c6 -12 6 -22 1 -25 -5 -3 -11 1 -15 9 -3 8 -15 15 -26
15 -12 0 -18 5 -15 10 10 17 44 11 55 -9z m-420 -6 c0 -8 -7 -15 -15 -15 -8 0
-15 7 -15 15 0 8 7 15 15 15 8 0 15 -7 15 -15z m-2932 -19 c3 -12 -1 -17 -10
-14 -7 3 -15 13 -16 22 -3 12 1 17 10 14 7 -3 15 -13 16 -22z m207 14 c-3 -5
-10 -10 -16 -10 -5 0 -9 5 -9 10 0 6 7 10 16 10 8 0 12 -4 9 -10z m2129 -16
c16 -6 23 -34 9 -34 -11 1 -43 26 -43 34 0 8 14 8 34 0z m876 -3 c0 -14 -18
-23 -30 -16 -6 4 -8 11 -5 16 8 12 35 12 35 0z m-2690 -56 c0 -8 -7 -15 -15
-15 -8 0 -15 7 -15 15 0 8 7 15 15 15 8 0 15 -7 15 -15z m2118 3 c-7 -19 -38
-22 -38 -4 0 10 9 16 21 16 12 0 19 -5 17 -12z m242 -20 c0 -13 -43 -6 -47 8
-2 7 6 10 22 7 14 -3 25 -10 25 -15z m-3380 -108 c0 -5 -4 -10 -10 -10 -5 0
-10 5 -10 10 0 6 5 10 10 10 6 0 10 -4 10 -10z m-1930 -109 c0 -6 -5 -13 -10
-16 -15 -9 -43 3 -35 15 8 13 45 13 45 1z m225 -291 c3 -5 1 -10 -4 -10 -6 0
-11 5 -11 10 0 6 2 10 4 10 3 0 8 -4 11 -10z m25 -96 c7 -19 9 -38 5 -42 -10
-10 -35 29 -35 55 0 35 17 28 30 -13z m140 -84 c0 -5 -2 -10 -4 -10 -3 0 -8 5
-11 10 -3 6 -1 10 4 10 6 0 11 -4 11 -10z m3823 -29 c-3 -21 -1 -41 5 -45 9
-5 5 -84 -4 -95 -3 -3 -10 4 -17 13 -11 15 -17 16 -35 7 -28 -15 -42 -14 -42
3 0 7 -7 19 -15 26 -21 18 -19 32 5 25 15 -5 22 0 30 19 5 14 14 26 19 26 6 0
18 14 28 30 24 41 32 38 26 -9z m-3997 -12 c34 15 34 15 31 -16 -4 -32 -9 -35
-59 -26 -39 6 -42 10 -32 37 5 13 9 14 20 5 11 -9 21 -9 40 0z m-41 -82 c0
-26 -18 -25 -20 1 -1 12 3 21 9 19 6 -2 11 -11 11 -20z m4110 3 c-3 -5 -10
-10 -16 -10 -5 0 -9 5 -9 10 0 6 7 10 16 10 8 0 12 -4 9 -10z m-4105 -54 c0
-3 -4 -8 -10 -11 -5 -3 -10 -1 -10 4 0 6 5 11 10 11 6 0 10 -2 10 -4z"/>
<path d="M2806 4951 c-4 -7 -5 -15 -2 -18 9 -9 19 4 14 18 -4 11 -6 11 -12 0z"/>
<path d="M1230 4831 c0 -7 7 -19 15 -27 13 -13 15 -13 15 -1 0 8 -7 20 -15 27
-11 9 -15 10 -15 1z"/>
<path d="M2930 4818 c0 -7 5 -20 10 -28 8 -12 10 -9 10 13 0 15 -4 27 -10 27
-5 0 -10 -6 -10 -12z"/>
<path d="M3296 4821 c-3 -5 -16 -7 -28 -3 -17 4 -20 2 -15 -11 4 -10 2 -17 -3
-17 -6 0 -10 -6 -10 -14 0 -20 49 -15 56 7 3 9 10 17 15 17 5 0 9 7 9 15 0 16
-16 20 -24 6z"/>
<path d="M2891 4804 c0 -11 3 -14 6 -6 3 7 2 16 -1 19 -3 4 -6 -2 -5 -13z"/>
<path d="M1146 4793 c-4 -9 -2 -21 4 -27 7 -7 10 -2 10 17 0 31 -5 34 -14 10z"/>
<path d="M1881 4791 c-6 -11 -7 -22 -2 -25 5 -3 11 4 14 16 8 30 1 35 -12 9z"/>
<path d="M4870 4799 c0 -5 5 -7 10 -4 6 3 10 8 10 11 0 2 -4 4 -10 4 -5 0 -10
-5 -10 -11z"/>
<path d="M1285 4790 c3 -5 8 -10 11 -10 2 0 4 5 4 10 0 6 -5 10 -11 10 -5 0
-7 -4 -4 -10z"/>
<path d="M3486 4792 c-3 -6 -1 -14 5 -17 14 -9 20 -2 10 14 -6 8 -11 9 -15 3z"/>
<path d="M1969 4784 c-1 -5 -1 -13 0 -18 1 -5 -3 -12 -9 -16 -7 -4 -3 -14 11
-26 l22 -19 -13 24 c-11 21 -10 23 4 18 9 -4 16 -3 16 1 -1 12 -30 46 -31 36z"/>
<path d="M3435 4780 c3 -5 8 -10 11 -10 2 0 4 5 4 10 0 6 -5 10 -11 10 -5 0
-7 -4 -4 -10z"/>
<path d="M1635 4770 c-3 -5 -1 -10 4 -10 6 0 11 5 11 10 0 6 -2 10 -4 10 -3 0
-8 -4 -11 -10z"/>
<path d="M1911 4764 c0 -11 3 -14 6 -6 3 7 2 16 -1 19 -3 4 -6 -2 -5 -13z"/>
<path d="M4758 4773 c7 -3 16 -2 19 1 4 3 -2 6 -13 5 -11 0 -14 -3 -6 -6z"/>
<path d="M4987 4774 c-8 -8 1 -24 13 -24 4 0 10 7 14 15 5 15 -14 21 -27 9z"/>
<path d="M1656 4755 c-9 -26 -7 -32 5 -12 6 10 9 21 6 23 -2 3 -7 -2 -11 -11z"/>
<path d="M2321 4754 c0 -11 3 -14 6 -6 3 7 2 16 -1 19 -3 4 -6 -2 -5 -13z"/>
<path d="M4800 4749 c0 -11 4 -18 9 -14 6 3 14 -3 20 -12 8 -14 10 -15 10 -3
0 16 -22 50 -33 50 -3 0 -6 -9 -6 -21z"/>
<path d="M4890 4759 c0 -5 5 -7 10 -4 6 3 10 8 10 11 0 2 -4 4 -10 4 -5 0 -10
-5 -10 -11z"/>
<path d="M4945 4760 c-3 -5 -1 -10 4 -10 6 0 11 5 11 10 0 6 -2 10 -4 10 -3 0
-8 -4 -11 -10z"/>
<path d="M4651 4725 c2 -11 0 -25 -4 -32 -4 -6 -3 -15 3 -18 14 -9 -7 -35 -27
-35 -8 0 -11 -5 -8 -10 4 -6 10 -8 15 -5 4 3 10 -2 14 -10 3 -8 15 -15 26 -15
26 0 26 16 0 23 -11 3 -20 11 -19 19 0 10 2 10 6 0 4 -10 8 -9 19 5 7 10 14
13 14 7 0 -14 38 -25 45 -14 10 16 -7 41 -24 36 -22 -8 -45 9 -38 27 3 9 -1
21 -10 28 -13 11 -14 10 -12 -6z"/>
<path d="M1086 4711 c-4 -5 -2 -12 3 -15 5 -4 12 -2 15 3 4 5 2 12 -3 15 -5 4
-12 2 -15 -3z"/>
<path d="M5350 4710 c0 -5 5 -10 10 -10 6 0 10 5 10 10 0 6 -4 10 -10 10 -5 0
-10 -4 -10 -10z"/>
<path d="M1730 4701 c0 -5 7 -12 16 -15 14 -5 15 -4 4 9 -14 17 -20 19 -20 6z"/>
<path d="M5500 4685 c0 -5 5 -17 10 -25 5 -8 10 -10 10 -5 0 6 -5 17 -10 25
-5 8 -10 11 -10 5z"/>
<path d="M1085 4670 c-3 -5 -1 -10 4 -10 6 0 11 5 11 10 0 6 -2 10 -4 10 -3 0
-8 -4 -11 -10z"/>
<path d="M4597 4666 c-4 -10 -1 -13 8 -9 8 3 12 9 9 14 -7 12 -11 11 -17 -5z"/>
<path d="M4565 4660 c3 -5 8 -10 11 -10 2 0 4 5 4 10 0 6 -5 10 -11 10 -5 0
-7 -4 -4 -10z"/>
<path d="M4500 4638 c-12 -22 -12 -22 6 -6 10 10 15 20 12 24 -4 3 -12 -5 -18
-18z"/>
<path d="M4750 4650 c0 -5 5 -10 10 -10 6 0 10 5 10 10 0 6 -4 10 -10 10 -5 0
-10 -4 -10 -10z"/>
<path d="M1047 4606 c-3 -8 -2 -18 3 -21 13 -8 24 15 12 27 -6 6 -11 4 -15 -6z"/>
<path d="M4580 4604 c0 -8 5 -12 10 -9 6 3 10 10 10 16 0 5 -4 9 -10 9 -5 0
-10 -7 -10 -16z"/>
<path d="M4610 4601 c0 -17 31 -41 52 -41 17 0 18 3 8 14 -6 8 -18 12 -26 9
-8 -3 -14 1 -14 11 0 9 -4 16 -10 16 -5 0 -10 -4 -10 -9z"/>
<path d="M4540 4569 c0 -5 5 -7 10 -4 6 3 10 8 10 11 0 2 -4 4 -10 4 -5 0 -10
-5 -10 -11z"/>
<path d="M1155 4509 c-11 -17 1 -21 15 -4 8 9 8 15 2 15 -6 0 -14 -5 -17 -11z"/>
<path d="M4700 4500 c0 -5 7 -10 16 -10 8 0 12 5 9 10 -3 6 -10 10 -16 10 -5
0 -9 -4 -9 -10z"/>
<path d="M5481 4494 c0 -11 3 -14 6 -6 3 7 2 16 -1 19 -3 4 -6 -2 -5 -13z"/>
<path d="M4810 4486 c0 -9 5 -16 10 -16 6 0 10 4 10 9 0 6 -4 13 -10 16 -5 3
-10 -1 -10 -9z"/>
<path d="M4700 4445 c-11 -28 -13 -28 -20 -10 -8 17 -9 18 -9 2 -1 -20 31 -37
37 -19 5 15 38 16 47 2 11 -18 23 -10 21 15 -1 28 -6 31 -24 13 -9 -9 -15 -8
-26 8 -14 18 -15 18 -26 -11z"/>
<path d="M4790 4414 c0 -8 5 -12 10 -9 6 4 8 11 5 16 -9 14 -15 11 -15 -7z"/>
<path d="M5513 4383 c-1 -21 1 -31 4 -23 3 8 11 18 17 22 8 5 6 12 -4 23 -14
14 -16 11 -17 -22z"/>
<path d="M5450 4140 c0 -5 5 -10 11 -10 5 0 7 5 4 10 -3 6 -8 10 -11 10 -2 0
-4 -4 -4 -10z"/>
<path d="M5535 4100 c-3 -5 -1 -10 4 -10 6 0 11 5 11 10 0 6 -2 10 -4 10 -3 0
-8 -4 -11 -10z"/>
<path d="M2621 4063 c-11 -10 -46 -67 -76 -126 -30 -60 -66 -118 -80 -129 -17
-13 -24 -26 -20 -38 3 -10 1 -21 -5 -25 -5 -3 -10 -15 -10 -25 0 -10 -13 -43
-28 -73 -47 -90 -66 -161 -53 -199 10 -30 27 -41 171 -112 88 -43 160 -82 160
-87 0 -5 6 -9 13 -9 14 0 239 -111 328 -163 31 -18 86 -49 122 -69 36 -21 74
-38 85 -38 11 0 25 -7 32 -15 7 -8 19 -15 27 -15 7 0 23 -8 34 -18 11 -11 39
-25 62 -32 23 -7 66 -26 94 -42 95 -51 155 -30 199 69 13 29 27 53 31 53 7 0
82 -49 93 -60 3 -3 18 -11 33 -18 15 -6 30 -20 33 -29 4 -10 15 -37 25 -60 10
-24 19 -46 19 -49 0 -19 55 -54 95 -60 55 -8 69 2 96 65 11 25 29 62 40 81 57
102 142 288 143 314 1 26 -5 33 -44 53 -54 28 -67 28 -149 5 l-63 -18 -75 39
c-41 21 -77 45 -80 53 -3 7 4 33 16 57 12 24 21 57 21 74 0 29 -32 83 -50 83
-5 0 -33 14 -62 31 -29 17 -134 72 -233 121 -217 108 -352 176 -590 298 -256
130 -311 148 -354 113z"/>
<path d="M5545 4070 c3 -5 8 -10 11 -10 2 0 4 5 4 10 0 6 -5 10 -11 10 -5 0
-7 -4 -4 -10z"/>
<path d="M5581 4064 c0 -11 3 -14 6 -6 3 7 2 16 -1 19 -3 4 -6 -2 -5 -13z"/>
<path d="M5592 3771 c4 -13 18 -16 19 -4 0 4 -5 9 -11 12 -7 2 -11 -2 -8 -8z"/>
<path d="M5595 3650 c-3 -5 -1 -10 4 -10 6 0 11 5 11 10 0 6 -2 10 -4 10 -3 0
-8 -4 -11 -10z"/>
<path d="M1015 3500 c-3 -5 -1 -10 4 -10 6 0 11 -7 11 -16 0 -8 4 -13 9 -10
11 7 2 46 -10 46 -4 0 -11 -4 -14 -10z"/>
<path d="M1050 3397 c0 -21 11 -27 31 -16 27 14 23 29 -6 29 -14 0 -25 -6 -25
-13z"/>
<path d="M1095 3320 c3 -5 8 -10 11 -10 2 0 4 5 4 10 0 6 -5 10 -11 10 -5 0
-7 -4 -4 -10z"/>
<path d="M1576 3291 c-4 -5 -2 -12 3 -15 5 -4 12 -2 15 3 4 5 2 12 -3 15 -5 4
-12 2 -15 -3z"/>
<path d="M1017 3255 c-4 -8 -2 -17 3 -20 6 -4 10 3 10 14 0 25 -6 27 -13 6z"/>
<path d="M1031 3184 c0 -11 3 -14 6 -6 3 7 2 16 -1 19 -3 4 -6 -2 -5 -13z"/>
<path d="M2685 3113 c-20 -47 -20 -156 0 -173 8 -7 15 -20 15 -29 0 -9 16 -36
35 -60 32 -41 35 -49 35 -114 l0 -70 -112 8 c-143 10 -484 12 -493 3 -4 -3 -9
-49 -12 -102 l-6 -96 29 -1 c16 -1 52 -3 79 -4 28 -2 188 -6 358 -9 l307 -5
24 37 c24 39 34 81 42 194 l6 66 47 20 c48 21 114 83 124 118 5 14 -2 23 -26
35 -18 9 -116 58 -218 111 -102 52 -193 98 -202 101 -13 5 -21 -3 -32 -30z"/>
<path d="M1019 3083 c-13 -16 -12 -17 4 -4 9 7 17 15 17 17 0 8 -8 3 -21 -13z"/>
<path d="M5540 2935 c0 -8 0 -18 -1 -22 0 -4 4 -9 10 -11 6 -2 11 8 11 22 0
14 -4 26 -10 26 -5 0 -10 -7 -10 -15z"/>
<path d="M1018 2919 c-17 -10 -26 -49 -10 -49 4 0 20 14 36 30 25 26 27 30 10
30 -10 0 -27 -5 -36 -11z"/>
<path d="M1141 2751 c-8 -5 -9 -15 -2 -32 7 -17 10 -19 10 -6 1 9 6 17 12 17
6 0 8 -9 4 -20 -4 -11 -2 -20 4 -20 12 0 26 48 17 57 -10 10 -32 12 -45 4z"/>
<path d="M1116 2674 c-9 -24 -2 -26 12 -4 7 11 8 20 3 20 -5 0 -12 -7 -15 -16z"/>
<path d="M949 2643 c-13 -15 -12 -15 9 -4 23 12 28 21 13 21 -5 0 -15 -7 -22
-17z"/>
<path d="M1007 2588 c8 -42 9 -43 28 -25 20 21 19 34 -4 47 -29 15 -31 13 -24
-22z"/>
<path d="M967 2552 c-5 -7 -1 -22 11 -37 l19 -24 1 32 c0 20 -2 27 -8 18 -6
-11 -9 -10 -12 5 -2 14 -6 16 -11 6z"/>
<path d="M4100 2520 c0 -5 5 -10 11 -10 5 0 7 5 4 10 -3 6 -8 10 -11 10 -2 0
-4 -4 -4 -10z"/>
<path d="M1002 2468 c-7 -7 -12 -19 -12 -28 0 -9 -6 -22 -12 -30 -11 -12 -10
-12 5 -1 9 7 17 22 17 31 0 10 6 20 13 23 6 2 9 7 6 10 -3 4 -11 1 -17 -5z"/>
<path d="M920 2449 c0 -5 5 -7 10 -4 6 3 10 8 10 11 0 2 -4 4 -10 4 -5 0 -10
-5 -10 -11z"/>
<path d="M2117 2423 c-4 -3 -7 -13 -7 -21 0 -12 3 -12 15 -2 8 7 15 16 15 21
0 11 -14 12 -23 2z"/>
<path d="M2175 2402 c23 -23 37 -29 60 -26 16 2 50 5 75 8 25 2 57 9 71 14 14
6 32 7 39 2 8 -5 22 -4 32 1 9 5 21 9 25 8 21 -3 53 2 53 9 0 11 -203 2 -217
-10 -9 -7 -13 -7 -13 0 0 13 -31 4 -42 -12 -5 -7 -8 -4 -8 7 0 10 -8 17 -19
17 -10 0 -34 3 -52 6 l-34 7 30 -31z"/>
<path d="M2570 2410 c0 -5 4 -10 9 -10 6 0 13 5 16 10 3 6 -1 10 -9 10 -9 0
-16 -4 -16 -10z"/>
<path d="M2615 2410 c3 -5 12 -10 20 -10 7 0 16 -8 18 -17 4 -14 5 -13 6 3 0
12 -6 25 -15 28 -23 9 -36 7 -29 -4z"/>
<path d="M2690 2403 c14 -9 29 -22 33 -27 5 -7 7 -4 3 7 -4 13 0 17 19 17 14
0 25 -5 25 -11 0 -8 4 -8 13 -1 6 6 15 11 20 11 4 1 8 4 10 9 1 4 -32 8 -73
10 -74 3 -75 2 -50 -15z"/>
<path d="M1376 2291 c-4 -7 -5 -15 -2 -18 9 -9 19 4 14 18 -4 11 -6 11 -12 0z"/>
<path d="M4300 2154 c0 -8 5 -12 10 -9 6 4 8 11 5 16 -9 14 -15 11 -15 -7z"/>
<path d="M2615 2040 c3 -5 8 -10 11 -10 2 0 4 5 4 10 0 6 -5 10 -11 10 -5 0
-7 -4 -4 -10z"/>
<path d="M4550 1991 c0 -6 5 -13 10 -16 6 -3 10 1 10 9 0 9 -4 16 -10 16 -5 0
-10 -4 -10 -9z"/>
<path d="M1130 1976 c0 -2 8 -10 18 -17 15 -13 16 -12 3 4 -13 16 -21 21 -21
13z"/>
<path d="M962 1948 c3 -7 12 -14 21 -16 12 -2 15 1 11 12 -7 19 -38 22 -32 4z"/>
<path d="M1015 1940 c-3 -5 1 -10 9 -10 9 0 16 5 16 10 0 6 -4 10 -9 10 -6 0
-13 -4 -16 -10z"/>
<path d="M1038 1903 c7 -3 16 -2 19 1 4 3 -2 6 -13 5 -11 0 -14 -3 -6 -6z"/>
<path d="M4321 1894 c0 -11 3 -14 6 -6 3 7 2 16 -1 19 -3 4 -6 -2 -5 -13z"/>
<path d="M3141 1884 c0 -11 3 -14 6 -6 3 7 2 16 -1 19 -3 4 -6 -2 -5 -13z"/>
<path d="M4405 1869 c-4 -6 -5 -13 -2 -16 7 -7 27 6 27 18 0 12 -17 12 -25 -2z"/>
<path d="M4768 1874 c-5 -4 -8 -15 -8 -25 0 -10 -7 -19 -15 -21 -8 -2 -11 -8
-7 -15 13 -20 44 12 40 42 -2 15 -6 23 -10 19z"/>
<path d="M5404 1869 c-3 -6 -2 -15 4 -21 6 -6 11 -2 15 11 5 22 -7 29 -19 10z"/>
<path d="M1070 1861 c0 -6 5 -13 10 -16 6 -3 10 1 10 9 0 9 -4 16 -10 16 -5 0
-10 -4 -10 -9z"/>
<path d="M2005 1860 c3 -5 8 -10 11 -10 2 0 4 5 4 10 0 6 -5 10 -11 10 -5 0
-7 -4 -4 -10z"/>
<path d="M1857 1842 c-26 -28 -21 -37 21 -38 20 -1 29 1 20 3 -10 3 -18 11
-18 20 0 11 7 14 25 10 16 -3 24 0 22 7 -6 19 -52 18 -70 -2z"/>
<path d="M4239 1833 c12 -24 -3 -35 -38 -26 -15 4 -21 1 -21 -10 0 -8 5 -17
10 -19 15 -5 22 -55 10 -63 -15 -9 -62 3 -55 14 2 5 7 25 9 45 l5 36 -24 -16
c-16 -10 -32 -13 -42 -9 -10 5 -22 7 -26 6 -4 0 -10 6 -13 14 -8 19 -24 19
-24 0 0 -9 -9 -15 -23 -15 -31 0 -40 -10 -24 -28 10 -13 8 -14 -15 -8 -24 5
-28 3 -28 -15 0 -16 -5 -20 -20 -16 -11 3 -20 2 -20 -3 0 -4 9 -10 20 -13 11
-3 20 -12 20 -21 0 -9 -8 -16 -20 -16 -11 0 -20 -4 -20 -9 0 -12 50 -8 51 4 1
6 1 16 0 23 -2 15 35 16 45 0 4 -7 3 -8 -4 -4 -17 10 -15 -29 2 -43 10 -8 19
-6 39 9 14 12 24 26 21 33 -6 18 35 19 58 2 19 -13 19 -13 -1 -20 -12 -3 -21
-13 -21 -21 0 -12 6 -11 30 6 24 17 30 18 30 6 0 -8 -4 -18 -10 -21 -5 -3 -10
-11 -10 -16 0 -5 11 -2 25 8 20 14 24 24 20 47 l-5 29 20 -25 c11 -14 31 -29
45 -32 14 -4 25 -13 25 -21 0 -24 15 -24 16 0 1 14 -6 27 -20 33 -11 6 -15 11
-8 11 6 1 12 8 12 16 0 8 7 15 15 15 8 0 15 -4 15 -8 0 -4 16 -8 35 -8 26 0
35 4 35 17 0 10 -6 20 -12 23 -7 3 -4 4 7 3 13 -2 19 -10 18 -22 -1 -10 6 -25
15 -32 16 -12 15 -15 -11 -37 -24 -19 -26 -24 -13 -29 10 -4 16 -1 16 7 0 8 7
16 15 20 8 3 15 17 15 31 0 14 5 25 10 25 6 0 10 -7 10 -15 0 -8 5 -15 10 -15
7 0 7 6 0 19 -5 11 -10 30 -11 43 0 13 -3 17 -6 11 -8 -21 -22 -15 -16 7 4 15
11 19 24 15 13 -4 19 -1 19 9 0 9 5 16 10 16 6 0 10 -5 10 -11 0 -6 9 -9 20
-6 11 3 20 1 20 -4 0 -5 -4 -9 -10 -9 -5 0 -10 -4 -10 -10 0 -21 19 -8 42 28
16 26 24 32 26 21 2 -10 13 -20 25 -23 38 -10 45 -7 40 15 -4 16 -8 17 -14 7
-7 -10 -9 -8 -10 7 0 11 -3 14 -6 8 -2 -7 -9 -13 -14 -13 -4 0 -6 7 -3 15 5
11 2 13 -10 9 -9 -3 -16 -2 -16 3 0 5 -9 9 -20 10 -23 2 -26 -7 -8 -25 9 -9 9
-12 1 -12 -7 0 -15 10 -19 23 l-8 22 -7 -25 -7 -25 -7 23 c-7 22 -9 22 -46
-18 -36 -38 -69 -52 -69 -30 0 6 6 10 13 10 6 0 -1 11 -18 24 -33 27 -47 26
-22 -2 11 -12 13 -22 6 -32 -7 -12 -10 -11 -15 7 -3 12 -16 25 -28 29 -11 4
-32 19 -44 33 -20 21 -22 22 -13 4z m17 -54 c-1 -12 5 -24 12 -26 6 -3 12 2
12 11 0 8 6 13 13 11 6 -3 12 -17 12 -30 0 -19 -3 -22 -10 -13 -5 7 -21 12
-34 10 -33 -5 -44 10 -25 36 19 27 21 27 20 1z m-146 -44 c9 -10 9 -15 1 -15
-6 0 -11 5 -11 11 0 5 -4 7 -10 4 -5 -3 -10 -1 -10 4 0 16 16 13 30 -4z m118
-64 c3 -8 -1 -12 -9 -9 -7 2 -15 10 -17 17 -3 8 1 12 9 9 7 -2 15 -10 17 -17z"/>
<path d="M5376 1835 c4 -8 11 -15 16 -15 6 0 5 6 -2 15 -7 8 -14 15 -16 15 -2
0 -1 -7 2 -15z"/>
<path d="M3185 1830 c3 -5 13 -10 21 -10 8 0 14 -7 14 -16 0 -8 4 -13 8 -10 5
3 15 -6 23 -20 11 -22 11 -27 -1 -34 -12 -7 -16 -3 -20 17 -3 18 -13 29 -32
34 -30 8 -38 -7 -17 -28 8 -8 8 -13 0 -17 -6 -4 -11 0 -11 9 0 9 -5 13 -10 10
-6 -4 -8 -10 -5 -15 3 -5 1 -11 -5 -15 -12 -8 -13 11 -1 33 6 12 4 21 -6 31
-13 12 -14 11 -9 -7 7 -19 -11 -62 -25 -62 -4 0 -9 9 -12 20 -3 13 0 20 9 20
22 0 16 27 -7 33 -15 4 -23 0 -26 -14 -3 -10 -10 -19 -15 -19 -6 0 -5 -7 2
-15 10 -12 10 -19 2 -27 -16 -16 -25 -4 -24 32 1 25 -3 30 -24 30 -16 0 -24 6
-24 18 0 12 -3 13 -8 5 -5 -7 -29 -16 -55 -19 -37 -5 -48 -3 -52 9 -6 15 -28
17 -41 4 -4 -4 -13 -2 -21 4 -10 9 -13 8 -13 0 0 -8 -8 -10 -22 -5 -36 11 -67
13 -73 4 -3 -5 0 -20 6 -33 13 -29 43 -25 36 4 -4 14 0 19 14 19 21 0 26 -24
8 -36 -8 -5 -8 -9 1 -14 9 -5 9 -9 1 -14 -6 -4 -11 -2 -11 3 0 6 -7 11 -15 11
-8 0 -15 -4 -15 -10 0 -5 -12 -8 -27 -6 -24 2 -28 -1 -28 -21 0 -25 5 -29 22
-12 8 8 13 8 17 0 10 -16 36 -13 36 4 0 8 5 15 11 15 6 0 9 -7 6 -15 -4 -8 -2
-17 3 -20 6 -4 10 -2 10 4 0 5 12 7 28 5 15 -3 37 -6 49 -8 13 -1 26 -5 29 -9
3 -3 12 -3 20 0 8 3 14 1 14 -4 0 -17 49 -13 60 5 9 14 10 11 5 -13 l-5 -30
24 27 c16 18 23 35 20 50 -4 21 -4 21 5 3 5 -11 7 -29 5 -40 -4 -15 0 -21 15
-22 12 -1 21 4 21 13 0 17 5 17 30 4 15 -8 22 -5 34 12 9 12 19 18 23 14 5 -5
2 -11 -4 -13 -18 -7 -16 -33 2 -33 9 0 20 11 25 24 12 33 70 35 70 3 0 -11 3
-17 8 -13 4 4 7 13 7 19 0 5 6 12 13 15 7 2 12 -5 12 -20 0 -13 3 -18 8 -12 9
14 60 28 91 25 13 -2 28 3 32 11 7 11 9 11 9 0 0 -10 4 -10 15 2 9 8 22 13 30
10 10 -4 15 0 16 12 0 16 2 15 9 -3 11 -27 60 -33 60 -8 0 18 -20 20 -20 3 0
-7 -6 -4 -12 7 -6 11 -16 23 -22 28 -13 9 32 3 57 -8 9 -4 17 -16 17 -26 0
-14 7 -19 25 -19 27 0 32 9 15 26 -8 8 -7 20 0 39 14 37 -1 48 -57 41 -38 -5
-43 -3 -43 14 0 20 0 20 -20 0 -11 -11 -27 -20 -35 -20 -8 0 -15 -5 -15 -11 0
-6 7 -9 15 -5 17 6 21 -9 5 -19 -17 -10 -37 18 -32 44 4 22 3 23 -10 10 -9 -8
-14 -17 -11 -21 2 -5 0 -8 -4 -8 -5 0 -14 12 -21 28 l-12 27 5 -27 c4 -23 1
-27 -22 -30 -17 -2 -32 -12 -38 -25 -5 -12 -19 -23 -30 -26 -18 -3 -21 0 -17
20 3 13 -1 23 -7 23 -7 0 -11 10 -9 22 2 13 -2 23 -9 23 -6 0 -15 3 -19 8 -11
11 -56 9 -49 -3z m416 -63 c-8 -8 -11 -7 -11 4 0 20 13 34 18 19 3 -7 -1 -17
-7 -23z m-771 7 c0 -8 -4 -12 -10 -9 -5 3 -10 10 -10 16 0 5 5 9 10 9 6 0 10
-7 10 -16z m90 -14 c0 -5 -4 -10 -10 -10 -5 0 -10 5 -10 10 0 6 5 10 10 10 6
0 10 -4 10 -10z m-30 -9 c0 -5 8 -12 18 -14 9 -2 3 -4 -14 -3 -21 1 -30 5 -27
14 6 14 23 16 23 3z m506 -6 c9 -8 12 -15 7 -15 -5 0 -14 5 -21 12 -9 9 -12 9
-12 -1 0 -7 -4 -9 -10 -6 -5 3 -10 10 -10 16 0 14 30 11 46 -6z m-586 -11 c0
-8 -4 -12 -10 -9 -5 3 -10 10 -10 16 0 5 5 9 10 9 6 0 10 -7 10 -16z m145 6
c-3 -5 -10 -10 -16 -10 -5 0 -9 5 -9 10 0 6 7 10 16 10 8 0 12 -4 9 -10z m505
6 c0 -3 -4 -8 -10 -11 -5 -3 -10 -1 -10 4 0 6 5 11 10 11 6 0 10 -2 10 -4z
m-240 -10 c0 -3 -4 -8 -10 -11 -5 -3 -10 -1 -10 4 0 6 5 11 10 11 6 0 10 -2
10 -4z m-257 -41 c-7 -21 -13 -19 -13 6 0 11 4 18 10 14 5 -3 7 -12 3 -20z"/>
<path d="M1161 1821 c-10 -6 -9 -10 3 -14 8 -3 18 -2 21 3 8 13 -9 20 -24 11z"/>
<path d="M1200 1820 c0 -4 7 -13 15 -20 12 -10 15 -9 15 7 0 11 -7 20 -15 20
-8 0 -15 -4 -15 -7z"/>
<path d="M1528 1823 c7 -3 16 -2 19 1 4 3 -2 6 -13 5 -11 0 -14 -3 -6 -6z"/>
<path d="M1612 1820 c2 -6 7 -11 11 -11 11 2 71 -31 79 -43 5 -7 8 -3 8 9 0
11 -5 27 -10 35 -8 12 -12 13 -19 2 -7 -12 -14 -11 -41 3 -20 10 -31 12 -28 5z"/>
<path d="M1992 1821 c-11 -7 -11 -9 2 -14 10 -4 16 -1 16 8 0 17 -1 17 -18 6z"/>
<path d="M2060 1822 c-5 -2 -10 -11 -10 -19 0 -13 3 -13 15 -3 10 9 15 9 15 1
0 -17 18 -13 29 7 7 14 5 17 -15 17 -13 0 -28 -1 -34 -3z"/>
<path d="M4820 1820 c0 -5 5 -10 11 -10 5 0 7 5 4 10 -3 6 -8 10 -11 10 -2 0
-4 -4 -4 -10z"/>
<path d="M1340 1804 c0 -8 5 -12 10 -9 6 3 10 10 10 16 0 5 -4 9 -10 9 -5 0
-10 -7 -10 -16z"/>
<path d="M1807 1813 c-4 -3 -7 -13 -7 -22 1 -13 3 -13 11 2 11 19 8 33 -4 20z"/>
<path d="M2120 1790 c-7 -17 -10 -33 -6 -37 3 -3 6 1 6 9 0 9 7 21 15 28 17
14 20 30 6 30 -5 0 -14 -14 -21 -30z"/>
<path d="M2583 1803 c-7 -18 1 -25 29 -28 36 -4 38 -4 38 -15 0 -5 -9 -10 -20
-10 -25 0 -28 -45 -4 -54 28 -11 34 -6 34 28 0 36 19 53 39 33 7 -7 11 -7 11
-1 0 6 -16 19 -35 30 -19 10 -35 21 -35 25 0 13 -52 6 -57 -8z"/>
<path d="M4386 1805 c-3 -8 -1 -15 4 -15 6 0 10 7 10 15 0 8 -2 15 -4 15 -2 0
-6 -7 -10 -15z"/>
<path d="M2310 1800 c0 -5 5 -10 10 -10 6 0 10 5 10 10 0 6 -4 10 -10 10 -5 0
-10 -4 -10 -10z"/>
<path d="M2280 1785 c-8 -9 -8 -15 -2 -15 12 0 26 19 19 26 -2 2 -10 -2 -17
-11z"/>
<path d="M2380 1790 c0 -5 5 -10 10 -10 6 0 10 5 10 10 0 6 -4 10 -10 10 -5 0
-10 -4 -10 -10z"/>
<path d="M2410 1766 c-7 -20 -18 -36 -23 -36 -5 0 -7 -5 -5 -11 2 -7 19 -13
37 -14 23 -2 29 0 20 6 -10 6 -3 9 22 9 25 0 43 7 59 25 13 14 20 28 17 32 -4
3 -7 1 -7 -5 0 -7 -7 -12 -16 -12 -8 0 -12 -4 -9 -10 3 -5 -1 -10 -9 -10 -9 0
-13 6 -10 13 7 18 -22 42 -31 27 -5 -8 -11 -6 -19 5 -10 14 -14 12 -26 -19z
m60 -16 c0 -5 -7 -10 -16 -10 -8 0 -12 5 -9 10 3 6 10 10 16 10 5 0 9 -4 9
-10z"/>
<path d="M3664 1787 c-19 -22 -6 -36 21 -23 14 6 23 16 22 21 -5 15 -31 16
-43 2z"/>
<path d="M1175 1779 c-3 -3 4 -9 15 -12 12 -3 20 0 20 7 0 13 -28 18 -35 5z"/>
<path d="M1455 1780 c-3 -5 1 -10 10 -10 9 0 13 5 10 10 -3 6 -8 10 -10 10 -2
0 -7 -4 -10 -10z"/>
<path d="M1853 1768 c-1 -12 -9 -26 -18 -30 -8 -5 -13 -13 -10 -19 8 -12 35
15 35 35 0 9 5 16 10 16 6 0 10 5 10 10 0 20 -26 9 -27 -12z"/>
<path d="M3764 1758 c1 -16 4 -28 9 -28 4 0 7 -7 7 -15 0 -8 7 -15 15 -15 8 0
15 5 15 10 0 7 6 7 20 0 14 -7 20 -7 20 0 0 5 -4 10 -10 10 -5 0 -9 12 -9 28
1 22 2 23 6 5 3 -15 9 -20 20 -16 12 5 14 1 8 -15 -4 -16 -2 -22 8 -22 10 0
13 7 10 20 -4 16 -1 18 21 14 15 -2 26 0 26 6 0 6 -4 8 -10 5 -5 -3 -10 1 -10
10 0 12 -5 15 -17 11 -9 -4 -20 -1 -24 5 -4 7 -29 13 -57 13 -47 1 -49 0 -48
-26z m46 -16 c0 -13 -12 -22 -22 -16 -10 6 -1 24 13 24 5 0 9 -4 9 -8z"/>
<path d="M3927 1783 c-4 -3 -7 -11 -7 -17 0 -6 5 -5 12 2 6 6 9 14 7 17 -3 3
-9 2 -12 -2z"/>
<path d="M4675 1781 c-6 -11 9 -23 19 -14 9 9 7 23 -3 23 -6 0 -12 -4 -16 -9z"/>
<path d="M1940 1770 c0 -5 5 -10 11 -10 5 0 7 5 4 10 -3 6 -8 10 -11 10 -2 0
-4 -4 -4 -10z"/>
<path d="M1735 1760 c3 -5 8 -10 11 -10 2 0 4 5 4 10 0 6 -5 10 -11 10 -5 0
-7 -4 -4 -10z"/>
<path d="M1890 1760 c0 -5 5 -10 10 -10 6 0 10 5 10 10 0 6 -4 10 -10 10 -5 0
-10 -4 -10 -10z"/>
<path d="M4170 1754 c0 -8 5 -12 10 -9 6 4 8 11 5 16 -9 14 -15 11 -15 -7z"/>
<path d="M5215 1760 c3 -5 8 -10 11 -10 2 0 4 5 4 10 0 6 -5 10 -11 10 -5 0
-7 -4 -4 -10z"/>
<path d="M2552 1735 l-22 -25 33 3 c24 2 33 8 35 25 5 30 -19 29 -46 -3z"/>
<path d="M3691 1754 c-1 -5 -10 -20 -22 -33 -12 -12 -19 -25 -16 -27 8 -8 77
7 77 17 0 5 -5 8 -12 7 -6 -2 -15 8 -19 22 -4 14 -7 20 -8 14z"/>
<path d="M1413 1742 c-24 -4 -30 -16 -13 -27 6 -3 10 -1 10 5 0 6 4 9 9 5 5
-3 13 0 16 6 9 14 5 16 -22 11z"/>
<path d="M1953 1743 c-67 -6 -50 -23 21 -23 66 0 94 13 53 24 -12 3 -24 5 -27
4 -3 -1 -24 -3 -47 -5z"/>
<path d="M2081 1736 c-14 -16 -9 -20 21 -17 9 1 19 -3 23 -9 3 -5 11 -10 16
-10 6 0 4 7 -5 15 -8 8 -19 15 -24 15 -6 0 -12 5 -14 11 -2 7 -9 5 -17 -5z"/>
<path d="M1325 1730 c-3 -5 1 -10 9 -10 9 0 16 5 16 10 0 6 -4 10 -9 10 -6 0
-13 -4 -16 -10z"/>
<path d="M1450 1729 c0 -5 8 -10 18 -10 61 -5 72 -4 72 6 0 7 -18 12 -45 13
-25 0 -45 -4 -45 -9z"/>
<path d="M1600 1730 c0 -5 5 -10 10 -10 6 0 10 5 10 10 0 6 -4 10 -10 10 -5 0
-10 -4 -10 -10z"/>
<path d="M2293 1733 c-7 -3 -13 -10 -13 -17 0 -12 8 -12 83 -7 4 1 7 6 7 12 0
6 -8 9 -19 6 -10 -2 -24 -1 -32 3 -8 4 -20 5 -26 3z"/>
<path d="M1630 1719 c0 -5 5 -7 10 -4 6 3 10 8 10 11 0 2 -4 4 -10 4 -5 0 -10
-5 -10 -11z"/>
<path d="M2230 1720 c0 -5 5 -10 11 -10 5 0 7 5 4 10 -3 6 -8 10 -11 10 -2 0
-4 -4 -4 -10z"/>
<path d="M1570 1710 c0 -5 5 -10 11 -10 5 0 7 5 4 10 -3 6 -8 10 -11 10 -2 0
-4 -4 -4 -10z"/>
<path d="M4450 1703 c0 -5 4 -14 9 -22 7 -11 11 -9 20 8 10 18 9 21 -9 21 -11
0 -20 -3 -20 -7z"/>
<path d="M2550 1690 c0 -5 5 -10 10 -10 6 0 10 5 10 10 0 6 -4 10 -10 10 -5 0
-10 -4 -10 -10z"/>
<path d="M2668 1655 c-3 -14 -1 -25 3 -25 5 0 9 11 9 25 0 14 -2 25 -4 25 -2
0 -6 -11 -8 -25z"/>
<path d="M1176 1656 c10 -8 21 -12 24 -10 5 6 -21 24 -34 24 -6 0 -1 -6 10
-14z"/>
<path d="M2480 1660 c0 -5 5 -10 11 -10 5 0 7 5 4 10 -3 6 -8 10 -11 10 -2 0
-4 -4 -4 -10z"/>
<path d="M2708 1663 c7 -3 16 -2 19 1 4 3 -2 6 -13 5 -11 0 -14 -3 -6 -6z"/>
<path d="M4500 1660 c0 -5 5 -10 10 -10 6 0 10 5 10 10 0 6 -4 10 -10 10 -5 0
-10 -4 -10 -10z"/>
<path d="M2749 1643 c-13 -16 -12 -17 4 -4 16 13 21 21 13 21 -2 0 -10 -8 -17
-17z"/>
<path d="M2435 1639 c-4 -6 -5 -13 -2 -16 7 -7 27 6 27 18 0 12 -17 12 -25 -2z"/>
<path d="M4480 1630 c0 -5 5 -10 11 -10 5 0 7 5 4 10 -3 6 -8 10 -11 10 -2 0
-4 -4 -4 -10z"/>
<path d="M1201 1614 c0 -11 3 -14 6 -6 3 7 2 16 -1 19 -3 4 -6 -2 -5 -13z"/>
<path d="M2130 1609 c0 -5 5 -7 10 -4 6 3 10 8 10 11 0 2 -4 4 -10 4 -5 0 -10
-5 -10 -11z"/>
<path d="M1215 1590 c-3 -5 -1 -10 4 -10 6 0 11 5 11 10 0 6 -2 10 -4 10 -3 0
-8 -4 -11 -10z"/>
<path d="M6100 3721 c0 -6 5 -13 10 -16 6 -3 10 1 10 9 0 9 -4 16 -10 16 -5 0
-10 -4 -10 -9z"/>
<path d="M5753 3393 c-3 -10 -8 -22 -10 -28 -3 -5 3 -1 12 10 9 11 19 19 23
17 3 -2 8 1 10 7 6 19 -28 12 -35 -6z"/>
<path d="M5813 3356 c-22 -10 -31 -26 -15 -26 10 1 46 29 41 33 -2 2 -14 -2
-26 -7z"/>
<path d="M5868 3323 c7 -3 16 -2 19 1 4 3 -2 6 -13 5 -11 0 -14 -3 -6 -6z"/>
<path d="M5783 3305 c0 -8 4 -15 9 -15 4 0 8 7 8 15 0 8 -4 15 -8 15 -5 0 -9
-7 -9 -15z"/>
<path d="M5890 3302 c0 -4 9 -13 20 -19 20 -13 37 -2 25 17 -7 12 -45 14 -45
2z"/>
<path d="M5892 3176 c0 -28 3 -33 19 -29 19 5 27 33 9 33 -5 0 -10 7 -10 15 0
8 -4 15 -9 15 -5 0 -9 -15 -9 -34z"/>
<path d="M6085 3190 c3 -5 8 -10 11 -10 2 0 4 5 4 10 0 6 -5 10 -11 10 -5 0
-7 -4 -4 -10z"/>
<path d="M5830 3179 c0 -5 5 -7 10 -4 6 3 10 8 10 11 0 2 -4 4 -10 4 -5 0 -10
-5 -10 -11z"/>
<path d="M6290 3023 c0 -5 4 -15 10 -23 11 -18 25 -7 17 15 -6 15 -27 21 -27
8z"/>
<path d="M6181 2684 c0 -11 3 -14 6 -6 3 7 2 16 -1 19 -3 4 -6 -2 -5 -13z"/>
<path d="M5722 1910 c0 -14 2 -19 5 -12 2 6 2 18 0 25 -3 6 -5 1 -5 -13z"/>
<path d="M160 1056 c0 -2 7 -6 15 -10 8 -3 15 -1 15 4 0 6 -7 10 -15 10 -8 0
-15 -2 -15 -4z"/>
<path d="M1538 1019 c-38 -36 -35 -49 10 -49 34 1 36 2 18 15 -15 12 -17 17
-7 29 23 28 6 31 -21 5z"/>
<path d="M1159 1033 c-1 -5 -2 -14 -3 -21 0 -7 -8 -17 -16 -22 -20 -12 -6 -24
16 -12 18 10 29 62 13 62 -5 0 -10 -3 -10 -7z"/>
<path d="M1230 1030 c0 -5 5 -10 10 -10 6 0 10 5 10 10 0 6 -4 10 -10 10 -5 0
-10 -4 -10 -10z"/>
<path d="M3916 992 c-9 -17 -21 -32 -28 -35 -10 -3 -10 -7 -1 -17 9 -10 22
-10 65 1 45 11 49 14 28 19 -18 4 -25 13 -25 30 -1 35 -22 36 -39 2z"/>
<path d="M1326 1001 c-37 -4 -61 -11 -64 -20 -3 -10 14 -12 91 -10 88 4 119
11 105 24 -10 10 -71 13 -132 6z"/>
<path d="M475 989 c-11 -17 1 -21 34 -14 17 4 29 11 25 16 -7 12 -51 11 -59
-2z"/>
<path d="M560 990 c0 -13 69 -30 105 -26 17 2 30 9 30 17 0 10 -18 15 -67 16
-38 1 -68 -2 -68 -7z"/>
<path d="M380 980 c0 -5 7 -10 15 -10 8 0 15 5 15 10 0 6 -7 10 -15 10 -8 0
-15 -4 -15 -10z"/>
<path d="M795 980 c3 -5 19 -10 36 -10 16 0 29 5 29 10 0 6 -16 10 -36 10 -21
0 -33 -4 -29 -10z"/>
<path d="M5091 951 c-17 -11 -7 -41 13 -41 23 0 40 36 20 44 -19 7 -16 8 -33
-3z"/>
<path d="M2395 890 c3 -5 10 -10 16 -10 5 0 9 5 9 10 0 6 -7 10 -16 10 -8 0
-12 -4 -9 -10z"/>
<path d="M4735 880 c-3 -5 1 -10 9 -10 9 0 25 -9 36 -20 20 -20 40 -19 40 0 0
8 -56 40 -71 40 -4 0 -11 -4 -14 -10z"/>
<path d="M5160 880 c0 -5 7 -10 15 -10 8 0 15 5 15 10 0 6 -7 10 -15 10 -8 0
-15 -4 -15 -10z"/>
<path d="M4996 865 c-11 -8 -17 -18 -13 -21 10 -11 37 4 37 21 0 18 0 18 -24
0z"/>
<path d="M2053 845 c-3 -9 -3 -18 0 -21 9 -9 27 6 27 22 0 19 -19 18 -27 -1z"/>
<path d="M4940 815 c0 -8 7 -15 15 -15 8 0 15 7 15 15 0 8 -7 15 -15 15 -8 0
-15 -7 -15 -15z"/>
<path d="M6 5464 c-9 -23 -7 -54 3 -54 5 0 7 9 4 20 -4 14 0 20 11 20 9 0 16
7 16 15 0 20 -26 19 -34 -1z"/>
<path d="M1 5364 c0 -11 3 -14 6 -6 3 7 2 16 -1 19 -3 4 -6 -2 -5 -13z"/>
</g>
</svg>
